<svg width="265" height="289" viewBox="0 0 265 289" fill="none" xmlns="http://www.w3.org/2000/svg">
<g filter="url(#filter0_d_171427_3210)">
<rect y="13" width="252" height="263" rx="24" fill="white" shape-rendering="crispEdges"/>
<rect x="16" y="29" width="113" height="27" rx="8" fill="#0038FF"/>
<path d="M41.0455 36.3636H42.4545V44.0682C42.4545 44.8636 42.267 45.5739 41.892 46.1989C41.5208 46.8201 40.9962 47.3106 40.3182 47.6705C39.6402 48.0265 38.8447 48.2045 37.9318 48.2045C37.0189 48.2045 36.2235 48.0265 35.5455 47.6705C34.8674 47.3106 34.3409 46.8201 33.9659 46.1989C33.5947 45.5739 33.4091 44.8636 33.4091 44.0682V36.3636H34.8182V43.9545C34.8182 44.5227 34.9432 45.0284 35.1932 45.4716C35.4432 45.911 35.7992 46.2576 36.2614 46.5114C36.7273 46.7614 37.2841 46.8864 37.9318 46.8864C38.5795 46.8864 39.1364 46.7614 39.6023 46.5114C40.0682 46.2576 40.4242 45.911 40.6705 45.4716C40.9205 45.0284 41.0455 44.5227 41.0455 43.9545V36.3636ZM51.2685 41.2273L50.0639 41.5682C49.9882 41.3674 49.8764 41.1723 49.7287 40.983C49.5848 40.7898 49.3878 40.6307 49.1378 40.5057C48.8878 40.3807 48.5677 40.3182 48.1776 40.3182C47.6435 40.3182 47.1984 40.4413 46.8423 40.6875C46.4901 40.9299 46.3139 41.2386 46.3139 41.6136C46.3139 41.947 46.4351 42.2102 46.6776 42.4034C46.92 42.5966 47.2988 42.7576 47.8139 42.8864L49.1094 43.2045C49.8897 43.3939 50.4711 43.6837 50.8537 44.0739C51.2363 44.4602 51.4276 44.9583 51.4276 45.5682C51.4276 46.0682 51.2836 46.5152 50.9957 46.9091C50.7116 47.303 50.3139 47.6136 49.8026 47.8409C49.2912 48.0682 48.6965 48.1818 48.0185 48.1818C47.1283 48.1818 46.3916 47.9886 45.8082 47.6023C45.2249 47.2159 44.8556 46.6515 44.7003 45.9091L45.973 45.5909C46.0942 46.0606 46.3234 46.4129 46.6605 46.6477C47.0014 46.8826 47.4465 47 47.9957 47C48.6207 47 49.117 46.8674 49.4844 46.6023C49.8556 46.3333 50.0412 46.0114 50.0412 45.6364C50.0412 45.3333 49.9351 45.0795 49.723 44.875C49.5109 44.6667 49.1851 44.5114 48.7457 44.4091L47.2912 44.0682C46.492 43.8788 45.9048 43.5852 45.5298 43.1875C45.1586 42.786 44.973 42.2841 44.973 41.6818C44.973 41.1894 45.1113 40.7538 45.3878 40.375C45.6681 39.9962 46.0488 39.6989 46.5298 39.483C47.0147 39.267 47.5639 39.1591 48.1776 39.1591C49.0412 39.1591 49.7192 39.3485 50.2116 39.7273C50.7079 40.1061 51.0601 40.6061 51.2685 41.2273ZM57.1051 48.1818C56.2642 48.1818 55.5388 47.9962 54.929 47.625C54.3229 47.25 53.8551 46.7273 53.5256 46.0568C53.1998 45.3826 53.0369 44.5985 53.0369 43.7045C53.0369 42.8106 53.1998 42.0227 53.5256 41.3409C53.8551 40.6553 54.3134 40.1212 54.9006 39.7386C55.4915 39.3523 56.1809 39.1591 56.9688 39.1591C57.4233 39.1591 57.8722 39.2348 58.3153 39.3864C58.7585 39.5379 59.1619 39.7841 59.5256 40.125C59.8892 40.4621 60.179 40.9091 60.3949 41.4659C60.6108 42.0227 60.7188 42.7083 60.7188 43.5227V44.0909L53.9915 44.0909V42.9318H59.3551C59.3551 42.4394 59.2566 42 59.0597 41.6136C58.8665 41.2273 58.59 40.9223 58.2301 40.6989C57.8741 40.4754 57.4536 40.3636 56.9688 40.3636C56.4347 40.3636 55.9725 40.4962 55.5824 40.7614C55.196 41.0227 54.8987 41.3636 54.6903 41.7841C54.482 42.2045 54.3778 42.6553 54.3778 43.1364V43.9091C54.3778 44.5682 54.4915 45.1269 54.7188 45.5852C54.9498 46.0398 55.2699 46.3864 55.679 46.625C56.0881 46.8598 56.5634 46.9773 57.1051 46.9773C57.4574 46.9773 57.7756 46.928 58.0597 46.8295C58.3475 46.7273 58.5956 46.5758 58.804 46.375C59.0123 46.1705 59.1733 45.9167 59.2869 45.6136L60.5824 45.9773C60.446 46.4167 60.2169 46.803 59.8949 47.1364C59.5729 47.4659 59.1752 47.7235 58.7017 47.9091C58.2282 48.0909 57.696 48.1818 57.1051 48.1818ZM62.7585 48V39.2727H64.054V40.5909H64.1449C64.304 40.1591 64.5919 39.8087 65.0085 39.5398C65.4252 39.2708 65.8949 39.1364 66.4176 39.1364C66.5161 39.1364 66.6392 39.1383 66.7869 39.142C66.9347 39.1458 67.0464 39.1515 67.1222 39.1591V40.5227C67.0767 40.5114 66.9725 40.4943 66.8097 40.4716C66.6506 40.4451 66.482 40.4318 66.304 40.4318C65.8797 40.4318 65.5009 40.5208 65.1676 40.6989C64.8381 40.8731 64.5767 41.1155 64.3835 41.4261C64.1941 41.733 64.0994 42.0833 64.0994 42.4773V48H62.7585ZM79.7571 39.2727C79.6889 38.697 79.4124 38.25 78.9276 37.9318C78.4427 37.6136 77.848 37.4545 77.1435 37.4545C76.6283 37.4545 76.1776 37.5379 75.7912 37.7045C75.4086 37.8712 75.1094 38.1004 74.8935 38.392C74.6813 38.6837 74.5753 39.0152 74.5753 39.3864C74.5753 39.697 74.6491 39.964 74.7969 40.1875C74.9484 40.4072 75.1416 40.5909 75.3764 40.7386C75.6113 40.8826 75.8575 41.0019 76.1151 41.0966C76.3726 41.1875 76.6094 41.2614 76.8253 41.3182L78.0071 41.6364C78.3101 41.7159 78.6473 41.8258 79.0185 41.9659C79.3935 42.1061 79.7514 42.2973 80.0923 42.5398C80.437 42.7784 80.7211 43.0852 80.9446 43.4602C81.1681 43.8352 81.2798 44.2955 81.2798 44.8409C81.2798 45.4697 81.1151 46.0379 80.7855 46.5455C80.4598 47.053 79.9825 47.4564 79.3537 47.7557C78.7287 48.0549 77.9692 48.2045 77.0753 48.2045C76.242 48.2045 75.5204 48.0701 74.9105 47.8011C74.3045 47.5322 73.8272 47.1572 73.4787 46.6761C73.134 46.1951 72.9389 45.6364 72.8935 45H74.348C74.3859 45.4394 74.5336 45.803 74.7912 46.0909C75.0526 46.375 75.3821 46.5871 75.7798 46.7273C76.1813 46.8636 76.6132 46.9318 77.0753 46.9318C77.6132 46.9318 78.0961 46.8447 78.5241 46.6705C78.9522 46.4924 79.2912 46.2462 79.5412 45.9318C79.7912 45.6136 79.9162 45.2424 79.9162 44.8182C79.9162 44.4318 79.8082 44.1174 79.5923 43.875C79.3764 43.6326 79.0923 43.4356 78.7401 43.2841C78.3878 43.1326 78.0071 43 77.598 42.8864L76.1662 42.4773C75.2571 42.2159 74.5374 41.8428 74.0071 41.358C73.4768 40.8731 73.2116 40.2386 73.2116 39.4545C73.2116 38.803 73.3878 38.2348 73.7401 37.75C74.0961 37.2614 74.5734 36.8826 75.1719 36.6136C75.7741 36.3409 76.4465 36.2045 77.1889 36.2045C77.9389 36.2045 78.6056 36.339 79.1889 36.608C79.7723 36.8731 80.2344 37.2367 80.5753 37.6989C80.92 38.161 81.1018 38.6856 81.1207 39.2727H79.7571ZM87.2102 39.2727V40.4091H82.6875V39.2727H87.2102ZM84.0057 37.1818H85.3466V45.5C85.3466 45.8788 85.4015 46.1629 85.5114 46.3523C85.625 46.5379 85.7689 46.6629 85.9432 46.7273C86.1212 46.7879 86.3087 46.8182 86.5057 46.8182C86.6534 46.8182 86.7746 46.8106 86.8693 46.7955C86.964 46.7765 87.0398 46.7614 87.0966 46.75L87.3693 47.9545C87.2784 47.9886 87.1515 48.0227 86.9886 48.0568C86.8258 48.0947 86.6193 48.1136 86.3693 48.1136C85.9905 48.1136 85.6193 48.0322 85.2557 47.8693C84.8958 47.7064 84.5966 47.4583 84.358 47.125C84.1231 46.7917 84.0057 46.3712 84.0057 45.8636V37.1818ZM92.679 48.1818C91.8911 48.1818 91.1998 47.9943 90.6051 47.6193C90.0142 47.2443 89.5521 46.7197 89.2188 46.0455C88.8892 45.3712 88.7244 44.5833 88.7244 43.6818C88.7244 42.7727 88.8892 41.9792 89.2188 41.3011C89.5521 40.6231 90.0142 40.0966 90.6051 39.7216C91.1998 39.3466 91.8911 39.1591 92.679 39.1591C93.4669 39.1591 94.1563 39.3466 94.7472 39.7216C95.3419 40.0966 95.804 40.6231 96.1335 41.3011C96.4669 41.9792 96.6335 42.7727 96.6335 43.6818C96.6335 44.5833 96.4669 45.3712 96.1335 46.0455C95.804 46.7197 95.3419 47.2443 94.7472 47.6193C94.1563 47.9943 93.4669 48.1818 92.679 48.1818ZM92.679 46.9773C93.2775 46.9773 93.7699 46.8239 94.1562 46.517C94.5426 46.2102 94.8286 45.8068 95.0142 45.3068C95.1998 44.8068 95.2926 44.2652 95.2926 43.6818C95.2926 43.0985 95.1998 42.5549 95.0142 42.0511C94.8286 41.5473 94.5426 41.1402 94.1562 40.8295C93.7699 40.5189 93.2775 40.3636 92.679 40.3636C92.0805 40.3636 91.5881 40.5189 91.2017 40.8295C90.8153 41.1402 90.5294 41.5473 90.3438 42.0511C90.1581 42.5549 90.0653 43.0985 90.0653 43.6818C90.0653 44.2652 90.1581 44.8068 90.3438 45.3068C90.5294 45.8068 90.8153 46.2102 91.2017 46.517C91.5881 46.8239 92.0805 46.9773 92.679 46.9773ZM98.6804 48V39.2727H99.9759V40.5909H100.067C100.226 40.1591 100.514 39.8087 100.93 39.5398C101.347 39.2708 101.817 39.1364 102.339 39.1364C102.438 39.1364 102.561 39.1383 102.709 39.142C102.857 39.1458 102.968 39.1515 103.044 39.1591V40.5227C102.999 40.5114 102.894 40.4943 102.732 40.4716C102.572 40.4451 102.404 40.4318 102.226 40.4318C101.802 40.4318 101.423 40.5208 101.089 40.6989C100.76 40.8731 100.499 41.1155 100.305 41.4261C100.116 41.733 100.021 42.0833 100.021 42.4773V48H98.6804ZM105.763 51.2727C105.536 51.2727 105.333 51.2538 105.155 51.2159C104.977 51.1818 104.854 51.1477 104.786 51.1136L105.126 49.9318C105.452 50.0152 105.74 50.0455 105.99 50.0227C106.24 50 106.462 49.8883 106.655 49.6875C106.852 49.4905 107.032 49.1705 107.195 48.7273L107.445 48.0455L104.217 39.2727H105.672L108.081 46.2273H108.172L110.581 39.2727H112.036L108.331 49.2727C108.164 49.7235 107.958 50.0966 107.712 50.392C107.465 50.6913 107.179 50.9129 106.854 51.0568C106.532 51.2008 106.168 51.2727 105.763 51.2727Z" fill="white"/>
<path d="M17.0114 95V83.3636H19.4716V88.4943H19.625L23.8125 83.3636H26.7614L22.4432 88.5739L26.8125 95H23.8693L20.6818 90.2159L19.4716 91.6932V95H17.0114ZM31.2997 95.1705C30.4171 95.1705 29.6539 94.983 29.0099 94.608C28.3698 94.2292 27.8755 93.7027 27.527 93.0284C27.1785 92.3504 27.0043 91.5644 27.0043 90.6705C27.0043 89.7689 27.1785 88.9811 27.527 88.3068C27.8755 87.6288 28.3698 87.1023 29.0099 86.7273C29.6539 86.3485 30.4171 86.1591 31.2997 86.1591C32.1823 86.1591 32.9437 86.3485 33.5838 86.7273C34.2277 87.1023 34.724 87.6288 35.0724 88.3068C35.4209 88.9811 35.5952 89.7689 35.5952 90.6705C35.5952 91.5644 35.4209 92.3504 35.0724 93.0284C34.724 93.7027 34.2277 94.2292 33.5838 94.608C32.9437 94.983 32.1823 95.1705 31.2997 95.1705ZM31.3111 93.2955C31.7126 93.2955 32.0478 93.1818 32.3168 92.9545C32.5857 92.7235 32.7884 92.4091 32.9247 92.0114C33.0649 91.6136 33.1349 91.161 33.1349 90.6534C33.1349 90.1458 33.0649 89.6932 32.9247 89.2955C32.7884 88.8977 32.5857 88.5833 32.3168 88.3523C32.0478 88.1212 31.7126 88.0057 31.3111 88.0057C30.9058 88.0057 30.5649 88.1212 30.2884 88.3523C30.0156 88.5833 29.8092 88.8977 29.669 89.2955C29.5327 89.6932 29.4645 90.1458 29.4645 90.6534C29.4645 91.161 29.5327 91.6136 29.669 92.0114C29.8092 92.4091 30.0156 92.7235 30.2884 92.9545C30.5649 93.1818 30.9058 93.2955 31.3111 93.2955ZM41.1122 95.1705C40.2183 95.1705 39.4493 94.9811 38.8054 94.6023C38.1652 94.2197 37.6728 93.6894 37.3281 93.0114C36.9872 92.3333 36.8168 91.553 36.8168 90.6705C36.8168 89.7765 36.9891 88.9924 37.3338 88.3182C37.6823 87.6402 38.1766 87.1117 38.8168 86.733C39.4569 86.3504 40.2183 86.1591 41.1009 86.1591C41.8622 86.1591 42.5289 86.2973 43.1009 86.5739C43.6728 86.8504 44.1255 87.2386 44.4588 87.7386C44.7921 88.2386 44.9759 88.8258 45.0099 89.5H42.7259C42.6615 89.0644 42.491 88.714 42.2145 88.4489C41.9418 88.1799 41.5838 88.0455 41.1406 88.0455C40.7656 88.0455 40.438 88.1477 40.1577 88.3523C39.8812 88.553 39.6652 88.8466 39.5099 89.233C39.3546 89.6193 39.277 90.0871 39.277 90.6364C39.277 91.1932 39.3527 91.6667 39.5043 92.0568C39.6596 92.447 39.8774 92.7443 40.1577 92.9489C40.438 93.1534 40.7656 93.2557 41.1406 93.2557C41.4171 93.2557 41.6652 93.1989 41.8849 93.0852C42.1084 92.9716 42.2921 92.8068 42.4361 92.5909C42.5838 92.3712 42.6804 92.108 42.7259 91.8011H45.0099C44.9721 92.4678 44.7902 93.0549 44.4645 93.5625C44.1425 94.0663 43.6974 94.4602 43.1293 94.7443C42.5611 95.0284 41.8887 95.1705 41.1122 95.1705ZM48.9801 89.9545V95H46.5597V83.3636H48.9119V87.8125H49.0142C49.2112 87.2973 49.5294 86.8939 49.9688 86.6023C50.4081 86.3068 50.9593 86.1591 51.6222 86.1591C52.2282 86.1591 52.7566 86.2917 53.2074 86.5568C53.6619 86.8182 54.0142 87.1951 54.2642 87.6875C54.518 88.1761 54.643 88.7614 54.6392 89.4432V95H52.2188V89.875C52.2225 89.3371 52.0862 88.9186 51.8097 88.6193C51.5369 88.3201 51.1544 88.1705 50.6619 88.1705C50.3324 88.1705 50.0407 88.2405 49.7869 88.3807C49.5369 88.5208 49.34 88.7254 49.196 88.9943C49.0559 89.2595 48.9839 89.5795 48.9801 89.9545ZM58.2656 95L55.8906 86.2727H58.3395L59.6918 92.1364H59.7713L61.1804 86.2727H63.5838L65.0156 92.1023H65.0895L66.419 86.2727H68.8622L66.4929 95H63.9304L62.4304 89.5114H62.3224L60.8224 95H58.2656ZM73.9119 95.1705C73.0142 95.1705 72.2415 94.9886 71.5938 94.625C70.9498 94.2576 70.4536 93.7386 70.1051 93.0682C69.7566 92.3939 69.5824 91.5966 69.5824 90.6761C69.5824 89.7784 69.7566 88.9905 70.1051 88.3125C70.4536 87.6345 70.9441 87.1061 71.5767 86.7273C72.2131 86.3485 72.9593 86.1591 73.8153 86.1591C74.3911 86.1591 74.9271 86.2519 75.4233 86.4375C75.9233 86.6193 76.3589 86.8939 76.7301 87.2614C77.1051 87.6288 77.3968 88.0909 77.6051 88.6477C77.8134 89.2008 77.9176 89.8485 77.9176 90.5909V91.2557H70.5483V89.7557H75.6392C75.6392 89.4072 75.5634 89.0985 75.4119 88.8295C75.2604 88.5606 75.0502 88.3504 74.7812 88.1989C74.5161 88.0436 74.2074 87.9659 73.8551 87.9659C73.4877 87.9659 73.1619 88.0511 72.8778 88.2216C72.5975 88.3883 72.3778 88.6136 72.2188 88.8977C72.0597 89.178 71.9782 89.4905 71.9744 89.8352V91.2614C71.9744 91.6932 72.054 92.0663 72.2131 92.3807C72.3759 92.6951 72.6051 92.9375 72.9006 93.108C73.196 93.2784 73.5464 93.3636 73.9517 93.3636C74.2206 93.3636 74.4669 93.3258 74.6903 93.25C74.9138 93.1742 75.1051 93.0606 75.2642 92.9091C75.4233 92.7576 75.5445 92.572 75.6278 92.3523L77.8665 92.5C77.7528 93.0379 77.5199 93.5076 77.1676 93.9091C76.8191 94.3068 76.3684 94.6174 75.8153 94.8409C75.2661 95.0606 74.6316 95.1705 73.9119 95.1705ZM81.9176 83.3636V95H79.4972V83.3636H81.9176ZM88.4986 86.2727V88.0909H83.2429V86.2727H88.4986ZM84.4361 84.1818H86.8565V92.3182C86.8565 92.5417 86.8906 92.7159 86.9588 92.8409C87.027 92.9621 87.1217 93.0473 87.2429 93.0966C87.3679 93.1458 87.5118 93.1705 87.6747 93.1705C87.7884 93.1705 87.902 93.161 88.0156 93.142C88.1293 93.1193 88.2164 93.1023 88.277 93.0909L88.6577 94.892C88.5365 94.9299 88.366 94.9735 88.1463 95.0227C87.9266 95.0758 87.6596 95.108 87.3452 95.1193C86.7618 95.142 86.2505 95.0644 85.8111 94.8864C85.3755 94.7083 85.0365 94.4318 84.794 94.0568C84.5516 93.6818 84.4323 93.2083 84.4361 92.6364V84.1818ZM93.8239 95V83.3636H98.4148C99.2973 83.3636 100.049 83.5322 100.67 83.8693C101.292 84.2027 101.765 84.6667 102.091 85.2614C102.42 85.8523 102.585 86.5341 102.585 87.3068C102.585 88.0795 102.419 88.7614 102.085 89.3523C101.752 89.9432 101.269 90.4034 100.636 90.733C100.008 91.0625 99.2462 91.2273 98.3523 91.2273H95.4261V89.2557H97.9545C98.428 89.2557 98.8182 89.1742 99.125 89.0114C99.4356 88.8447 99.6667 88.6155 99.8182 88.3239C99.9735 88.0284 100.051 87.6894 100.051 87.3068C100.051 86.9205 99.9735 86.5833 99.8182 86.2955C99.6667 86.0038 99.4356 85.7784 99.125 85.6193C98.8144 85.4564 98.4205 85.375 97.9432 85.375H96.2841V95H93.8239ZM106.392 95.1648C105.835 95.1648 105.339 95.0682 104.903 94.875C104.468 94.678 104.123 94.3883 103.869 94.0057C103.619 93.6193 103.494 93.1383 103.494 92.5625C103.494 92.0777 103.583 91.6705 103.761 91.3409C103.939 91.0114 104.182 90.7462 104.489 90.5455C104.795 90.3447 105.144 90.1932 105.534 90.0909C105.928 89.9886 106.341 89.9167 106.773 89.875C107.28 89.822 107.689 89.7727 108 89.7273C108.311 89.678 108.536 89.6061 108.676 89.5114C108.816 89.4167 108.886 89.2765 108.886 89.0909V89.0568C108.886 88.697 108.773 88.4186 108.545 88.2216C108.322 88.0246 108.004 87.9261 107.591 87.9261C107.155 87.9261 106.809 88.0227 106.551 88.2159C106.294 88.4053 106.123 88.6439 106.04 88.9318L103.801 88.75C103.915 88.2197 104.138 87.7614 104.472 87.375C104.805 86.9848 105.235 86.6856 105.761 86.4773C106.292 86.2652 106.905 86.1591 107.602 86.1591C108.087 86.1591 108.551 86.2159 108.994 86.3295C109.441 86.4432 109.837 86.6193 110.182 86.858C110.53 87.0966 110.805 87.4034 111.006 87.7784C111.206 88.1496 111.307 88.5947 111.307 89.1136V95H109.011V93.7898H108.943C108.803 94.0625 108.616 94.303 108.381 94.5114C108.146 94.7159 107.864 94.8769 107.534 94.9943C107.205 95.108 106.824 95.1648 106.392 95.1648ZM107.085 93.4943C107.441 93.4943 107.756 93.4242 108.028 93.2841C108.301 93.1402 108.515 92.947 108.67 92.7045C108.826 92.4621 108.903 92.1875 108.903 91.8807V90.9545C108.828 91.0038 108.723 91.0492 108.591 91.0909C108.462 91.1288 108.316 91.1648 108.153 91.1989C107.991 91.2292 107.828 91.2576 107.665 91.2841C107.502 91.3068 107.354 91.3277 107.222 91.3466C106.938 91.3883 106.689 91.4545 106.477 91.5455C106.265 91.6364 106.1 91.7595 105.983 91.9148C105.866 92.0663 105.807 92.2557 105.807 92.483C105.807 92.8125 105.926 93.0644 106.165 93.2386C106.407 93.4091 106.714 93.4943 107.085 93.4943ZM117.116 98.4545C116.332 98.4545 115.66 98.3466 115.099 98.1307C114.543 97.9186 114.099 97.6288 113.77 97.2614C113.44 96.8939 113.226 96.4811 113.128 96.0227L115.366 95.7216C115.435 95.8958 115.543 96.0587 115.69 96.2102C115.838 96.3617 116.033 96.483 116.276 96.5739C116.522 96.6686 116.821 96.7159 117.173 96.7159C117.7 96.7159 118.134 96.5871 118.474 96.3295C118.819 96.0758 118.991 95.6496 118.991 95.0511V93.4545H118.889C118.783 93.697 118.624 93.9261 118.412 94.142C118.2 94.358 117.927 94.5341 117.594 94.6705C117.26 94.8068 116.863 94.875 116.401 94.875C115.745 94.875 115.149 94.7235 114.611 94.4205C114.077 94.1136 113.651 93.6458 113.332 93.017C113.018 92.3845 112.861 91.5852 112.861 90.6193C112.861 89.6307 113.022 88.8049 113.344 88.142C113.666 87.4792 114.094 86.983 114.628 86.6534C115.166 86.3239 115.755 86.1591 116.395 86.1591C116.884 86.1591 117.293 86.2424 117.622 86.4091C117.952 86.572 118.217 86.7765 118.418 87.0227C118.622 87.2652 118.779 87.5038 118.889 87.7386H118.98V86.2727H121.384V95.0852C121.384 95.8277 121.202 96.4489 120.838 96.9489C120.474 97.4489 119.971 97.8239 119.327 98.0739C118.687 98.3277 117.95 98.4545 117.116 98.4545ZM117.168 93.0568C117.558 93.0568 117.887 92.9602 118.156 92.767C118.429 92.5701 118.637 92.2898 118.781 91.9261C118.929 91.5587 119.003 91.1193 119.003 90.608C119.003 90.0966 118.931 89.6534 118.787 89.2784C118.643 88.8996 118.435 88.6061 118.162 88.3977C117.889 88.1894 117.558 88.0852 117.168 88.0852C116.77 88.0852 116.435 88.1932 116.162 88.4091C115.889 88.6212 115.683 88.9167 115.543 89.2955C115.402 89.6742 115.332 90.1117 115.332 90.608C115.332 91.1117 115.402 91.5473 115.543 91.9148C115.687 92.2784 115.893 92.5606 116.162 92.7614C116.435 92.9583 116.77 93.0568 117.168 93.0568ZM127.287 95.1705C126.389 95.1705 125.616 94.9886 124.969 94.625C124.325 94.2576 123.829 93.7386 123.48 93.0682C123.132 92.3939 122.957 91.5966 122.957 90.6761C122.957 89.7784 123.132 88.9905 123.48 88.3125C123.829 87.6345 124.319 87.1061 124.952 86.7273C125.588 86.3485 126.334 86.1591 127.19 86.1591C127.766 86.1591 128.302 86.2519 128.798 86.4375C129.298 86.6193 129.734 86.8939 130.105 87.2614C130.48 87.6288 130.772 88.0909 130.98 88.6477C131.188 89.2008 131.293 89.8485 131.293 90.5909V91.2557H123.923V89.7557H129.014C129.014 89.4072 128.938 89.0985 128.787 88.8295C128.635 88.5606 128.425 88.3504 128.156 88.1989C127.891 88.0436 127.582 87.9659 127.23 87.9659C126.863 87.9659 126.537 88.0511 126.253 88.2216C125.973 88.3883 125.753 88.6136 125.594 88.8977C125.435 89.178 125.353 89.4905 125.349 89.8352V91.2614C125.349 91.6932 125.429 92.0663 125.588 92.3807C125.751 92.6951 125.98 92.9375 126.276 93.108C126.571 93.2784 126.921 93.3636 127.327 93.3636C127.596 93.3636 127.842 93.3258 128.065 93.25C128.289 93.1742 128.48 93.0606 128.639 92.9091C128.798 92.7576 128.92 92.572 129.003 92.3523L131.241 92.5C131.128 93.0379 130.895 93.5076 130.543 93.9091C130.194 94.3068 129.743 94.6174 129.19 94.8409C128.641 95.0606 128.007 95.1705 127.287 95.1705ZM140.143 95.1705C139.34 95.1705 138.647 95.0265 138.064 94.7386C137.481 94.4508 137.032 94.0606 136.717 93.5682C136.407 93.072 136.251 92.5189 136.251 91.9091C136.251 91.4545 136.342 91.0511 136.524 90.6989C136.706 90.3466 136.96 90.0227 137.286 89.7273C137.611 89.428 137.99 89.1307 138.422 88.8352L140.678 87.3523C140.969 87.1667 141.183 86.9716 141.32 86.767C141.456 86.5587 141.524 86.3333 141.524 86.0909C141.524 85.8598 141.431 85.6458 141.246 85.4489C141.06 85.2519 140.797 85.1553 140.456 85.1591C140.229 85.1591 140.032 85.2102 139.865 85.3125C139.698 85.411 139.568 85.5417 139.473 85.7045C139.382 85.8636 139.337 86.0417 139.337 86.2386C139.337 86.4811 139.405 86.7273 139.541 86.9773C139.678 87.2273 139.859 87.4924 140.087 87.7727C140.314 88.0492 140.562 88.3485 140.831 88.6705L146.348 95H143.825L139.223 89.875C138.92 89.5303 138.617 89.1705 138.314 88.7955C138.015 88.4167 137.765 88.0152 137.564 87.5909C137.363 87.1629 137.263 86.6989 137.263 86.1989C137.263 85.6345 137.393 85.1269 137.655 84.6761C137.92 84.2254 138.291 83.8693 138.768 83.608C139.246 83.3428 139.803 83.2102 140.439 83.2102C141.06 83.2102 141.596 83.3371 142.047 83.5909C142.501 83.8409 142.85 84.1742 143.092 84.5909C143.339 85.0038 143.462 85.4583 143.462 85.9545C143.462 86.5038 143.325 87.0019 143.053 87.4489C142.784 87.892 142.405 88.2898 141.916 88.642L139.541 90.3523C139.219 90.5871 138.981 90.8277 138.825 91.0739C138.674 91.3163 138.598 91.5492 138.598 91.7727C138.598 92.0492 138.666 92.2973 138.803 92.517C138.939 92.7367 139.132 92.911 139.382 93.0398C139.632 93.1648 139.926 93.2273 140.263 93.2273C140.672 93.2273 141.075 93.1345 141.473 92.9489C141.875 92.7595 142.238 92.4924 142.564 92.1477C142.893 91.7992 143.157 91.3864 143.354 90.9091C143.551 90.4318 143.649 89.9034 143.649 89.3239H145.655C145.655 90.036 145.577 90.678 145.422 91.25C145.267 91.8182 145.051 92.3144 144.774 92.7386C144.498 93.1591 144.181 93.5038 143.825 93.7727C143.712 93.8447 143.602 93.9129 143.496 93.9773C143.39 94.0417 143.28 94.1098 143.166 94.1818C142.734 94.5303 142.251 94.7822 141.717 94.9375C141.187 95.0928 140.662 95.1705 140.143 95.1705ZM151.105 95V83.3636H155.696C156.575 83.3636 157.325 83.5208 157.946 83.8352C158.571 84.1458 159.046 84.5871 159.372 85.1591C159.702 85.7273 159.866 86.3958 159.866 87.1648C159.866 87.9375 159.7 88.6023 159.366 89.1591C159.033 89.7121 158.55 90.1364 157.918 90.4318C157.289 90.7273 156.527 90.875 155.634 90.875H152.56V88.8977H155.236C155.705 88.8977 156.096 88.8333 156.406 88.7045C156.717 88.5758 156.948 88.3826 157.099 88.125C157.255 87.8674 157.332 87.5473 157.332 87.1648C157.332 86.7784 157.255 86.4527 157.099 86.1875C156.948 85.9223 156.715 85.7216 156.401 85.5852C156.09 85.4451 155.698 85.375 155.224 85.375H153.565V95H151.105ZM157.389 89.7045L160.281 95H157.565L154.736 89.7045H157.389ZM165.396 95.1705C164.499 95.1705 163.726 94.9886 163.078 94.625C162.434 94.2576 161.938 93.7386 161.589 93.0682C161.241 92.3939 161.067 91.5966 161.067 90.6761C161.067 89.7784 161.241 88.9905 161.589 88.3125C161.938 87.6345 162.429 87.1061 163.061 86.7273C163.697 86.3485 164.444 86.1591 165.3 86.1591C165.875 86.1591 166.411 86.2519 166.908 86.4375C167.408 86.6193 167.843 86.8939 168.214 87.2614C168.589 87.6288 168.881 88.0909 169.089 88.6477C169.298 89.2008 169.402 89.8485 169.402 90.5909V91.2557H162.033V89.7557H167.124C167.124 89.4072 167.048 89.0985 166.896 88.8295C166.745 88.5606 166.535 88.3504 166.266 88.1989C166 88.0436 165.692 87.9659 165.339 87.9659C164.972 87.9659 164.646 88.0511 164.362 88.2216C164.082 88.3883 163.862 88.6136 163.703 88.8977C163.544 89.178 163.463 89.4905 163.459 89.8352V91.2614C163.459 91.6932 163.538 92.0663 163.697 92.3807C163.86 92.6951 164.089 92.9375 164.385 93.108C164.68 93.2784 165.031 93.3636 165.436 93.3636C165.705 93.3636 165.951 93.3258 166.175 93.25C166.398 93.1742 166.589 93.0606 166.749 92.9091C166.908 92.7576 167.029 92.572 167.112 92.3523L169.351 92.5C169.237 93.0379 169.004 93.5076 168.652 93.9091C168.304 94.3068 167.853 94.6174 167.3 94.8409C166.75 95.0606 166.116 95.1705 165.396 95.1705ZM174.925 95.1705C174.031 95.1705 173.262 94.9811 172.618 94.6023C171.978 94.2197 171.485 93.6894 171.141 93.0114C170.8 92.3333 170.629 91.553 170.629 90.6705C170.629 89.7765 170.802 88.9924 171.146 88.3182C171.495 87.6402 171.989 87.1117 172.629 86.733C173.269 86.3504 174.031 86.1591 174.913 86.1591C175.675 86.1591 176.341 86.2973 176.913 86.5739C177.485 86.8504 177.938 87.2386 178.271 87.7386C178.605 88.2386 178.788 88.8258 178.822 89.5H176.538C176.474 89.0644 176.304 88.714 176.027 88.4489C175.754 88.1799 175.396 88.0455 174.953 88.0455C174.578 88.0455 174.25 88.1477 173.97 88.3523C173.694 88.553 173.478 88.8466 173.322 89.233C173.167 89.6193 173.089 90.0871 173.089 90.6364C173.089 91.1932 173.165 91.6667 173.317 92.0568C173.472 92.447 173.69 92.7443 173.97 92.9489C174.25 93.1534 174.578 93.2557 174.953 93.2557C175.23 93.2557 175.478 93.1989 175.697 93.0852C175.921 92.9716 176.105 92.8068 176.249 92.5909C176.396 92.3712 176.493 92.108 176.538 91.8011H178.822C178.785 92.4678 178.603 93.0549 178.277 93.5625C177.955 94.0663 177.51 94.4602 176.942 94.7443C176.374 95.0284 175.701 95.1705 174.925 95.1705ZM180.372 95V86.2727H182.793V95H180.372ZM181.588 85.1477C181.228 85.1477 180.92 85.0284 180.662 84.7898C180.408 84.5473 180.281 84.2576 180.281 83.9205C180.281 83.5871 180.408 83.3011 180.662 83.0625C180.92 82.8201 181.228 82.6989 181.588 82.6989C181.948 82.6989 182.255 82.8201 182.509 83.0625C182.766 83.3011 182.895 83.5871 182.895 83.9205C182.895 84.2576 182.766 84.5473 182.509 84.7898C182.255 85.0284 181.948 85.1477 181.588 85.1477ZM184.732 98.2727V86.2727H187.118V87.7386H187.226C187.332 87.5038 187.485 87.2652 187.686 87.0227C187.891 86.7765 188.156 86.572 188.482 86.4091C188.811 86.2424 189.22 86.1591 189.709 86.1591C190.345 86.1591 190.932 86.3258 191.47 86.6591C192.008 86.9886 192.438 87.4867 192.76 88.1534C193.082 88.8163 193.243 89.6477 193.243 90.6477C193.243 91.6212 193.086 92.4432 192.771 93.1136C192.461 93.7803 192.036 94.286 191.499 94.6307C190.964 94.9716 190.366 95.142 189.703 95.142C189.233 95.142 188.834 95.0644 188.504 94.9091C188.179 94.7538 187.911 94.5587 187.703 94.3239C187.495 94.0852 187.336 93.8447 187.226 93.6023H187.152V98.2727H184.732ZM187.101 90.6364C187.101 91.1553 187.173 91.608 187.317 91.9943C187.461 92.3807 187.669 92.6818 187.942 92.8977C188.214 93.1098 188.546 93.2159 188.936 93.2159C189.33 93.2159 189.663 93.108 189.936 92.892C190.209 92.6723 190.415 92.3693 190.555 91.983C190.699 91.5928 190.771 91.1439 190.771 90.6364C190.771 90.1326 190.701 89.6894 190.561 89.3068C190.421 88.9242 190.214 88.625 189.942 88.4091C189.669 88.1932 189.334 88.0852 188.936 88.0852C188.542 88.0852 188.209 88.1894 187.936 88.3977C187.667 88.6061 187.461 88.9015 187.317 89.2841C187.173 89.6667 187.101 90.1174 187.101 90.6364ZM198.834 95.1705C197.936 95.1705 197.163 94.9886 196.516 94.625C195.872 94.2576 195.375 93.7386 195.027 93.0682C194.679 92.3939 194.504 91.5966 194.504 90.6761C194.504 89.7784 194.679 88.9905 195.027 88.3125C195.375 87.6345 195.866 87.1061 196.499 86.7273C197.135 86.3485 197.881 86.1591 198.737 86.1591C199.313 86.1591 199.849 86.2519 200.345 86.4375C200.845 86.6193 201.281 86.8939 201.652 87.2614C202.027 87.6288 202.319 88.0909 202.527 88.6477C202.735 89.2008 202.839 89.8485 202.839 90.5909V91.2557H195.47V89.7557H200.561C200.561 89.4072 200.485 89.0985 200.334 88.8295C200.182 88.5606 199.972 88.3504 199.703 88.1989C199.438 88.0436 199.129 87.9659 198.777 87.9659C198.41 87.9659 198.084 88.0511 197.8 88.2216C197.519 88.3883 197.3 88.6136 197.141 88.8977C196.982 89.178 196.9 89.4905 196.896 89.8352V91.2614C196.896 91.6932 196.976 92.0663 197.135 92.3807C197.298 92.6951 197.527 92.9375 197.822 93.108C198.118 93.2784 198.468 93.3636 198.874 93.3636C199.143 93.3636 199.389 93.3258 199.612 93.25C199.836 93.1742 200.027 93.0606 200.186 92.9091C200.345 92.7576 200.466 92.572 200.55 92.3523L202.788 92.5C202.675 93.0379 202.442 93.5076 202.089 93.9091C201.741 94.3068 201.29 94.6174 200.737 94.8409C200.188 95.0606 199.554 95.1705 198.834 95.1705ZM17.0114 114V102.364H21.6023C22.4811 102.364 23.2311 102.521 23.8523 102.835C24.4773 103.146 24.9527 103.587 25.2784 104.159C25.608 104.727 25.7727 105.396 25.7727 106.165C25.7727 106.937 25.6061 107.602 25.2727 108.159C24.9394 108.712 24.4564 109.136 23.8239 109.432C23.1951 109.727 22.4337 109.875 21.5398 109.875H18.4659V107.898H21.142C21.6117 107.898 22.0019 107.833 22.3125 107.705C22.6231 107.576 22.8542 107.383 23.0057 107.125C23.161 106.867 23.2386 106.547 23.2386 106.165C23.2386 105.778 23.161 105.453 23.0057 105.188C22.8542 104.922 22.6212 104.722 22.3068 104.585C21.9962 104.445 21.6042 104.375 21.1307 104.375H19.4716V114H17.0114ZM23.2955 108.705L26.1875 114H23.4716L20.642 108.705H23.2955ZM31.3026 114.17C30.4048 114.17 29.6321 113.989 28.9844 113.625C28.3404 113.258 27.8442 112.739 27.4957 112.068C27.1473 111.394 26.973 110.597 26.973 109.676C26.973 108.778 27.1473 107.991 27.4957 107.312C27.8442 106.634 28.3348 106.106 28.9673 105.727C29.6037 105.348 30.3499 105.159 31.206 105.159C31.7817 105.159 32.3177 105.252 32.8139 105.438C33.3139 105.619 33.7495 105.894 34.1207 106.261C34.4957 106.629 34.7874 107.091 34.9957 107.648C35.2041 108.201 35.3082 108.848 35.3082 109.591V110.256H27.9389V108.756H33.0298C33.0298 108.407 32.9541 108.098 32.8026 107.83C32.651 107.561 32.4408 107.35 32.1719 107.199C31.9067 107.044 31.598 106.966 31.2457 106.966C30.8783 106.966 30.5526 107.051 30.2685 107.222C29.9882 107.388 29.7685 107.614 29.6094 107.898C29.4503 108.178 29.3688 108.491 29.3651 108.835V110.261C29.3651 110.693 29.4446 111.066 29.6037 111.381C29.7666 111.695 29.9957 111.938 30.2912 112.108C30.5866 112.278 30.937 112.364 31.3423 112.364C31.6113 112.364 31.8575 112.326 32.081 112.25C32.3045 112.174 32.4957 112.061 32.6548 111.909C32.8139 111.758 32.9351 111.572 33.0185 111.352L35.2571 111.5C35.1435 112.038 34.9105 112.508 34.5582 112.909C34.2098 113.307 33.759 113.617 33.206 113.841C32.6567 114.061 32.0223 114.17 31.3026 114.17ZM40.831 114.17C39.937 114.17 39.1681 113.981 38.5241 113.602C37.884 113.22 37.3916 112.689 37.0469 112.011C36.706 111.333 36.5355 110.553 36.5355 109.67C36.5355 108.777 36.7079 107.992 37.0526 107.318C37.401 106.64 37.8954 106.112 38.5355 105.733C39.1757 105.35 39.937 105.159 40.8196 105.159C41.581 105.159 42.2476 105.297 42.8196 105.574C43.3916 105.85 43.8442 106.239 44.1776 106.739C44.5109 107.239 44.6946 107.826 44.7287 108.5H42.4446C42.3802 108.064 42.2098 107.714 41.9332 107.449C41.6605 107.18 41.3026 107.045 40.8594 107.045C40.4844 107.045 40.1567 107.148 39.8764 107.352C39.5999 107.553 39.384 107.847 39.2287 108.233C39.0734 108.619 38.9957 109.087 38.9957 109.636C38.9957 110.193 39.0715 110.667 39.223 111.057C39.3783 111.447 39.5961 111.744 39.8764 111.949C40.1567 112.153 40.4844 112.256 40.8594 112.256C41.1359 112.256 41.384 112.199 41.6037 112.085C41.8272 111.972 42.0109 111.807 42.1548 111.591C42.3026 111.371 42.3991 111.108 42.4446 110.801H44.7287C44.6908 111.468 44.509 112.055 44.1832 112.562C43.8613 113.066 43.4162 113.46 42.848 113.744C42.2798 114.028 41.6075 114.17 40.831 114.17ZM50.2216 114.17C49.339 114.17 48.5758 113.983 47.9318 113.608C47.2917 113.229 46.7973 112.703 46.4489 112.028C46.1004 111.35 45.9261 110.564 45.9261 109.67C45.9261 108.769 46.1004 107.981 46.4489 107.307C46.7973 106.629 47.2917 106.102 47.9318 105.727C48.5758 105.348 49.339 105.159 50.2216 105.159C51.1042 105.159 51.8655 105.348 52.5057 105.727C53.1496 106.102 53.6458 106.629 53.9943 107.307C54.3428 107.981 54.517 108.769 54.517 109.67C54.517 110.564 54.3428 111.35 53.9943 112.028C53.6458 112.703 53.1496 113.229 52.5057 113.608C51.8655 113.983 51.1042 114.17 50.2216 114.17ZM50.233 112.295C50.6345 112.295 50.9697 112.182 51.2386 111.955C51.5076 111.723 51.7102 111.409 51.8466 111.011C51.9867 110.614 52.0568 110.161 52.0568 109.653C52.0568 109.146 51.9867 108.693 51.8466 108.295C51.7102 107.898 51.5076 107.583 51.2386 107.352C50.9697 107.121 50.6345 107.006 50.233 107.006C49.8277 107.006 49.4867 107.121 49.2102 107.352C48.9375 107.583 48.7311 107.898 48.5909 108.295C48.4545 108.693 48.3864 109.146 48.3864 109.653C48.3864 110.161 48.4545 110.614 48.5909 111.011C48.7311 111.409 48.9375 111.723 49.2102 111.955C49.4867 112.182 49.8277 112.295 50.233 112.295ZM56.0909 114V105.273H58.3977V106.812H58.5C58.6818 106.301 58.9848 105.898 59.4091 105.602C59.8333 105.307 60.3409 105.159 60.9318 105.159C61.5303 105.159 62.0398 105.309 62.4602 105.608C62.8807 105.903 63.161 106.305 63.3011 106.812H63.392C63.5701 106.312 63.892 105.913 64.358 105.614C64.8277 105.311 65.3826 105.159 66.0227 105.159C66.8371 105.159 67.4981 105.419 68.0057 105.938C68.517 106.453 68.7727 107.184 68.7727 108.131V114H66.358V108.608C66.358 108.123 66.2292 107.759 65.9716 107.517C65.714 107.275 65.392 107.153 65.0057 107.153C64.5663 107.153 64.2235 107.294 63.9773 107.574C63.7311 107.85 63.608 108.216 63.608 108.67V114H61.2614V108.557C61.2614 108.129 61.1383 107.788 60.892 107.534C60.6496 107.28 60.3295 107.153 59.9318 107.153C59.6629 107.153 59.4205 107.222 59.2045 107.358C58.9924 107.491 58.8239 107.678 58.6989 107.92C58.5739 108.159 58.5114 108.439 58.5114 108.761V114H56.0909ZM70.6847 114V105.273H72.9915V106.812H73.0938C73.2756 106.301 73.5786 105.898 74.0028 105.602C74.4271 105.307 74.9347 105.159 75.5256 105.159C76.1241 105.159 76.6335 105.309 77.054 105.608C77.4744 105.903 77.7547 106.305 77.8949 106.812H77.9858C78.1638 106.312 78.4858 105.913 78.9517 105.614C79.4214 105.311 79.9763 105.159 80.6165 105.159C81.4309 105.159 82.0919 105.419 82.5994 105.938C83.1108 106.453 83.3665 107.184 83.3665 108.131V114H80.9517V108.608C80.9517 108.123 80.8229 107.759 80.5653 107.517C80.3078 107.275 79.9858 107.153 79.5994 107.153C79.16 107.153 78.8172 107.294 78.571 107.574C78.3248 107.85 78.2017 108.216 78.2017 108.67V114H75.8551V108.557C75.8551 108.129 75.732 107.788 75.4858 107.534C75.2434 107.28 74.9233 107.153 74.5256 107.153C74.2566 107.153 74.0142 107.222 73.7983 107.358C73.5862 107.491 73.4176 107.678 73.2926 107.92C73.1676 108.159 73.1051 108.439 73.1051 108.761V114H70.6847ZM89.2557 114.17C88.358 114.17 87.5852 113.989 86.9375 113.625C86.2936 113.258 85.7973 112.739 85.4489 112.068C85.1004 111.394 84.9261 110.597 84.9261 109.676C84.9261 108.778 85.1004 107.991 85.4489 107.312C85.7973 106.634 86.2879 106.106 86.9205 105.727C87.5568 105.348 88.303 105.159 89.1591 105.159C89.7348 105.159 90.2708 105.252 90.767 105.438C91.267 105.619 91.7027 105.894 92.0739 106.261C92.4489 106.629 92.7405 107.091 92.9489 107.648C93.1572 108.201 93.2614 108.848 93.2614 109.591V110.256H85.892V108.756H90.983C90.983 108.407 90.9072 108.098 90.7557 107.83C90.6042 107.561 90.3939 107.35 90.125 107.199C89.8598 107.044 89.5511 106.966 89.1989 106.966C88.8314 106.966 88.5057 107.051 88.2216 107.222C87.9413 107.388 87.7216 107.614 87.5625 107.898C87.4034 108.178 87.322 108.491 87.3182 108.835V110.261C87.3182 110.693 87.3977 111.066 87.5568 111.381C87.7197 111.695 87.9489 111.938 88.2443 112.108C88.5398 112.278 88.8902 112.364 89.2955 112.364C89.5644 112.364 89.8106 112.326 90.0341 112.25C90.2576 112.174 90.4489 112.061 90.608 111.909C90.767 111.758 90.8883 111.572 90.9716 111.352L93.2102 111.5C93.0966 112.038 92.8636 112.508 92.5114 112.909C92.1629 113.307 91.7121 113.617 91.1591 113.841C90.6098 114.061 89.9754 114.17 89.2557 114.17ZM97.2614 108.955V114H94.8409V105.273H97.1477V106.812H97.25C97.4432 106.305 97.767 105.903 98.2216 105.608C98.6761 105.309 99.2273 105.159 99.875 105.159C100.481 105.159 101.009 105.292 101.46 105.557C101.911 105.822 102.261 106.201 102.511 106.693C102.761 107.182 102.886 107.765 102.886 108.443V114H100.466V108.875C100.47 108.341 100.333 107.924 100.057 107.625C99.7803 107.322 99.3996 107.17 98.9148 107.17C98.589 107.17 98.3011 107.241 98.0511 107.381C97.8049 107.521 97.6117 107.725 97.4716 107.994C97.3352 108.259 97.2652 108.58 97.2614 108.955ZM108.01 114.142C107.347 114.142 106.747 113.972 106.209 113.631C105.675 113.286 105.25 112.78 104.936 112.114C104.625 111.443 104.47 110.621 104.47 109.648C104.47 108.648 104.631 107.816 104.953 107.153C105.275 106.487 105.703 105.989 106.237 105.659C106.775 105.326 107.364 105.159 108.004 105.159C108.493 105.159 108.9 105.242 109.226 105.409C109.555 105.572 109.821 105.777 110.021 106.023C110.226 106.265 110.381 106.504 110.487 106.739H110.561V102.364H112.976V114H110.589V112.602H110.487C110.374 112.845 110.213 113.085 110.004 113.324C109.8 113.559 109.533 113.754 109.203 113.909C108.877 114.064 108.48 114.142 108.01 114.142ZM108.777 112.216C109.167 112.216 109.497 112.11 109.766 111.898C110.038 111.682 110.247 111.381 110.391 110.994C110.538 110.608 110.612 110.155 110.612 109.636C110.612 109.117 110.54 108.667 110.396 108.284C110.252 107.902 110.044 107.606 109.771 107.398C109.499 107.189 109.167 107.085 108.777 107.085C108.379 107.085 108.044 107.193 107.771 107.409C107.499 107.625 107.292 107.924 107.152 108.307C107.012 108.689 106.942 109.133 106.942 109.636C106.942 110.144 107.012 110.593 107.152 110.983C107.296 111.369 107.502 111.672 107.771 111.892C108.044 112.108 108.379 112.216 108.777 112.216ZM118.943 114.17C118.045 114.17 117.273 113.989 116.625 113.625C115.981 113.258 115.485 112.739 115.136 112.068C114.788 111.394 114.614 110.597 114.614 109.676C114.614 108.778 114.788 107.991 115.136 107.312C115.485 106.634 115.975 106.106 116.608 105.727C117.244 105.348 117.991 105.159 118.847 105.159C119.422 105.159 119.958 105.252 120.455 105.438C120.955 105.619 121.39 105.894 121.761 106.261C122.136 106.629 122.428 107.091 122.636 107.648C122.845 108.201 122.949 108.848 122.949 109.591V110.256H115.58V108.756H120.67C120.67 108.407 120.595 108.098 120.443 107.83C120.292 107.561 120.081 107.35 119.812 107.199C119.547 107.044 119.239 106.966 118.886 106.966C118.519 106.966 118.193 107.051 117.909 107.222C117.629 107.388 117.409 107.614 117.25 107.898C117.091 108.178 117.009 108.491 117.006 108.835V110.261C117.006 110.693 117.085 111.066 117.244 111.381C117.407 111.695 117.636 111.938 117.932 112.108C118.227 112.278 118.578 112.364 118.983 112.364C119.252 112.364 119.498 112.326 119.722 112.25C119.945 112.174 120.136 112.061 120.295 111.909C120.455 111.758 120.576 111.572 120.659 111.352L122.898 111.5C122.784 112.038 122.551 112.508 122.199 112.909C121.85 113.307 121.4 113.617 120.847 113.841C120.297 114.061 119.663 114.17 118.943 114.17ZM124.528 114V105.273H126.875V106.795H126.966C127.125 106.254 127.392 105.845 127.767 105.568C128.142 105.288 128.574 105.148 129.062 105.148C129.184 105.148 129.314 105.155 129.455 105.17C129.595 105.186 129.718 105.206 129.824 105.233V107.381C129.71 107.347 129.553 107.316 129.352 107.29C129.152 107.263 128.968 107.25 128.801 107.25C128.445 107.25 128.127 107.328 127.847 107.483C127.57 107.634 127.35 107.847 127.188 108.119C127.028 108.392 126.949 108.706 126.949 109.062V114H124.528Z" fill="#2A3647"/>
<path d="M17.4091 141V129.364H21.4773C22.2879 129.364 22.9564 129.504 23.483 129.784C24.0095 130.061 24.4015 130.434 24.6591 130.903C24.9167 131.369 25.0455 131.886 25.0455 132.455C25.0455 132.955 24.9564 133.367 24.7784 133.693C24.6042 134.019 24.3731 134.277 24.0852 134.466C23.8011 134.655 23.4924 134.795 23.1591 134.886V135C23.5152 135.023 23.8731 135.148 24.233 135.375C24.5928 135.602 24.8939 135.928 25.1364 136.352C25.3788 136.777 25.5 137.295 25.5 137.909C25.5 138.492 25.3674 139.017 25.1023 139.483C24.8371 139.949 24.4186 140.318 23.8466 140.591C23.2746 140.864 22.5303 141 21.6136 141H17.4091ZM18.8182 139.75H21.6136C22.5341 139.75 23.1875 139.572 23.5739 139.216C23.964 138.856 24.1591 138.42 24.1591 137.909C24.1591 137.515 24.0587 137.152 23.858 136.818C23.6572 136.481 23.3712 136.212 23 136.011C22.6288 135.807 22.1894 135.705 21.6818 135.705H18.8182V139.75ZM18.8182 134.477H21.4318C21.8561 134.477 22.2386 134.394 22.5795 134.227C22.9242 134.061 23.197 133.826 23.3977 133.523C23.6023 133.22 23.7045 132.864 23.7045 132.455C23.7045 131.943 23.5265 131.509 23.1705 131.153C22.8144 130.794 22.25 130.614 21.4773 130.614H18.8182V134.477ZM33.1335 137.432V132.273H34.4744V141H33.1335V139.523H33.0426C32.8381 139.966 32.5199 140.343 32.0881 140.653C31.6563 140.96 31.1108 141.114 30.4517 141.114C29.9062 141.114 29.4214 140.994 28.9972 140.756C28.5729 140.513 28.2396 140.15 27.9972 139.665C27.7547 139.176 27.6335 138.561 27.6335 137.818V132.273H28.9744V137.727C28.9744 138.364 29.1525 138.871 29.5085 139.25C29.8684 139.629 30.3267 139.818 30.8835 139.818C31.2169 139.818 31.5559 139.733 31.9006 139.562C32.2491 139.392 32.5407 139.131 32.7756 138.778C33.0142 138.426 33.1335 137.977 33.1335 137.432ZM36.9304 141V132.273H38.2713V141H36.9304ZM37.6122 130.818C37.3509 130.818 37.1255 130.729 36.9361 130.551C36.7505 130.373 36.6577 130.159 36.6577 129.909C36.6577 129.659 36.7505 129.445 36.9361 129.267C37.1255 129.089 37.3509 129 37.6122 129C37.8736 129 38.0971 129.089 38.2827 129.267C38.4721 129.445 38.5668 129.659 38.5668 129.909C38.5668 130.159 38.4721 130.373 38.2827 130.551C38.0971 130.729 37.8736 130.818 37.6122 130.818ZM42.0682 129.364V141H40.7273V129.364H42.0682ZM47.8196 141.182C47.0923 141.182 46.4503 140.998 45.8935 140.631C45.3366 140.259 44.901 139.737 44.5866 139.062C44.2723 138.384 44.1151 137.583 44.1151 136.659C44.1151 135.742 44.2723 134.947 44.5866 134.273C44.901 133.598 45.3385 133.078 45.8991 132.71C46.4598 132.343 47.1075 132.159 47.8423 132.159C48.4105 132.159 48.8594 132.254 49.1889 132.443C49.5223 132.629 49.776 132.841 49.9503 133.08C50.1283 133.314 50.2666 133.508 50.3651 133.659H50.4787V129.364H51.8196V141H50.5241V139.659H50.3651C50.2666 139.818 50.1264 140.019 49.9446 140.261C49.7628 140.5 49.5033 140.714 49.1662 140.903C48.8291 141.089 48.3802 141.182 47.8196 141.182ZM48.0014 139.977C48.5393 139.977 48.9938 139.837 49.3651 139.557C49.7363 139.273 50.0185 138.881 50.2116 138.381C50.4048 137.877 50.5014 137.295 50.5014 136.636C50.5014 135.985 50.4067 135.415 50.2173 134.926C50.0279 134.434 49.7476 134.051 49.3764 133.778C49.0052 133.502 48.5469 133.364 48.0014 133.364C47.4332 133.364 46.9598 133.509 46.581 133.801C46.206 134.089 45.9238 134.481 45.7344 134.977C45.5488 135.47 45.456 136.023 45.456 136.636C45.456 137.258 45.5507 137.822 45.7401 138.33C45.9332 138.833 46.2173 139.235 46.5923 139.534C46.9711 139.83 47.4408 139.977 48.0014 139.977ZM65.1435 134.227L63.9389 134.568C63.8632 134.367 63.7514 134.172 63.6037 133.983C63.4598 133.79 63.2628 133.631 63.0128 133.506C62.7628 133.381 62.4427 133.318 62.0526 133.318C61.5185 133.318 61.0734 133.441 60.7173 133.688C60.3651 133.93 60.1889 134.239 60.1889 134.614C60.1889 134.947 60.3101 135.21 60.5526 135.403C60.795 135.597 61.1738 135.758 61.6889 135.886L62.9844 136.205C63.7647 136.394 64.3461 136.684 64.7287 137.074C65.1113 137.46 65.3026 137.958 65.3026 138.568C65.3026 139.068 65.1586 139.515 64.8707 139.909C64.5866 140.303 64.1889 140.614 63.6776 140.841C63.1662 141.068 62.5715 141.182 61.8935 141.182C61.0033 141.182 60.2666 140.989 59.6832 140.602C59.0999 140.216 58.7306 139.652 58.5753 138.909L59.848 138.591C59.9692 139.061 60.1984 139.413 60.5355 139.648C60.8764 139.883 61.3215 140 61.8707 140C62.4957 140 62.992 139.867 63.3594 139.602C63.7306 139.333 63.9162 139.011 63.9162 138.636C63.9162 138.333 63.8101 138.08 63.598 137.875C63.3859 137.667 63.0601 137.511 62.6207 137.409L61.1662 137.068C60.367 136.879 59.7798 136.585 59.4048 136.188C59.0336 135.786 58.848 135.284 58.848 134.682C58.848 134.189 58.9863 133.754 59.2628 133.375C59.5431 132.996 59.9238 132.699 60.4048 132.483C60.8897 132.267 61.4389 132.159 62.0526 132.159C62.9162 132.159 63.5942 132.348 64.0866 132.727C64.5829 133.106 64.9351 133.606 65.1435 134.227ZM71.1165 132.273V133.409H66.5938V132.273H71.1165ZM67.9119 130.182H69.2528V138.5C69.2528 138.879 69.3078 139.163 69.4176 139.352C69.5313 139.538 69.6752 139.663 69.8494 139.727C70.0275 139.788 70.215 139.818 70.4119 139.818C70.5597 139.818 70.6809 139.811 70.7756 139.795C70.8703 139.777 70.946 139.761 71.0028 139.75L71.2756 140.955C71.1847 140.989 71.0578 141.023 70.8949 141.057C70.732 141.095 70.5256 141.114 70.2756 141.114C69.8968 141.114 69.5256 141.032 69.1619 140.869C68.8021 140.706 68.5028 140.458 68.2642 140.125C68.0294 139.792 67.9119 139.371 67.9119 138.864V130.182ZM75.7017 141.205C75.1487 141.205 74.6468 141.1 74.196 140.892C73.7453 140.68 73.3873 140.375 73.1222 139.977C72.857 139.576 72.7244 139.091 72.7244 138.523C72.7244 138.023 72.8229 137.617 73.0199 137.307C73.2169 136.992 73.4801 136.746 73.8097 136.568C74.1392 136.39 74.5028 136.258 74.9006 136.17C75.3021 136.08 75.7055 136.008 76.1108 135.955C76.6411 135.886 77.071 135.835 77.4006 135.801C77.7339 135.763 77.9763 135.701 78.1278 135.614C78.2831 135.527 78.3608 135.375 78.3608 135.159V135.114C78.3608 134.553 78.2074 134.117 77.9006 133.807C77.5975 133.496 77.1373 133.341 76.5199 133.341C75.8797 133.341 75.3778 133.481 75.0142 133.761C74.6506 134.042 74.3949 134.341 74.2472 134.659L72.9744 134.205C73.2017 133.674 73.5047 133.261 73.8835 132.966C74.2661 132.667 74.6828 132.458 75.1335 132.341C75.5881 132.22 76.035 132.159 76.4744 132.159C76.7547 132.159 77.0767 132.193 77.4403 132.261C77.8078 132.326 78.1619 132.46 78.5028 132.665C78.8475 132.869 79.1335 133.178 79.3608 133.591C79.5881 134.004 79.7017 134.557 79.7017 135.25V141H78.3608V139.818H78.2926C78.2017 140.008 78.0502 140.21 77.8381 140.426C77.6259 140.642 77.3438 140.826 76.9915 140.977C76.6392 141.129 76.2093 141.205 75.7017 141.205ZM75.9062 140C76.4366 140 76.8835 139.896 77.2472 139.688C77.6146 139.479 77.8911 139.21 78.0767 138.881C78.2661 138.551 78.3608 138.205 78.3608 137.841V136.614C78.304 136.682 78.179 136.744 77.9858 136.801C77.7964 136.854 77.5767 136.902 77.3267 136.943C77.0805 136.981 76.84 137.015 76.6051 137.045C76.3741 137.072 76.1866 137.095 76.0426 137.114C75.6941 137.159 75.3684 137.233 75.0653 137.335C74.7661 137.434 74.5237 137.583 74.3381 137.784C74.1563 137.981 74.0653 138.25 74.0653 138.591C74.0653 139.057 74.2377 139.409 74.5824 139.648C74.9309 139.883 75.3722 140 75.9062 140ZM82.1491 141V132.273H83.4446V133.591H83.5355C83.6946 133.159 83.9825 132.809 84.3991 132.54C84.8158 132.271 85.2855 132.136 85.8082 132.136C85.9067 132.136 86.0298 132.138 86.1776 132.142C86.3253 132.146 86.437 132.152 86.5128 132.159V133.523C86.4673 133.511 86.3632 133.494 86.2003 133.472C86.0412 133.445 85.8726 133.432 85.6946 133.432C85.2704 133.432 84.8916 133.521 84.5582 133.699C84.2287 133.873 83.9673 134.116 83.7741 134.426C83.5848 134.733 83.4901 135.083 83.4901 135.477V141H82.1491ZM92.4446 132.273V133.409H87.9219V132.273H92.4446ZM89.2401 130.182H90.581V138.5C90.581 138.879 90.6359 139.163 90.7457 139.352C90.8594 139.538 91.0033 139.663 91.1776 139.727C91.3556 139.788 91.5431 139.818 91.7401 139.818C91.8878 139.818 92.009 139.811 92.1037 139.795C92.1984 139.777 92.2741 139.761 92.331 139.75L92.6037 140.955C92.5128 140.989 92.3859 141.023 92.223 141.057C92.0601 141.095 91.8537 141.114 91.6037 141.114C91.2249 141.114 90.8537 141.032 90.4901 140.869C90.1302 140.706 89.831 140.458 89.5923 140.125C89.3575 139.792 89.2401 139.371 89.2401 138.864V130.182ZM98.9616 144.273V132.273H100.257V133.659H100.416C100.515 133.508 100.651 133.314 100.825 133.08C101.003 132.841 101.257 132.629 101.587 132.443C101.92 132.254 102.371 132.159 102.939 132.159C103.674 132.159 104.321 132.343 104.882 132.71C105.443 133.078 105.88 133.598 106.195 134.273C106.509 134.947 106.666 135.742 106.666 136.659C106.666 137.583 106.509 138.384 106.195 139.062C105.88 139.737 105.445 140.259 104.888 140.631C104.331 140.998 103.689 141.182 102.962 141.182C102.401 141.182 101.952 141.089 101.615 140.903C101.278 140.714 101.018 140.5 100.837 140.261C100.655 140.019 100.515 139.818 100.416 139.659H100.303V144.273H98.9616ZM100.28 136.636C100.28 137.295 100.376 137.877 100.57 138.381C100.763 138.881 101.045 139.273 101.416 139.557C101.787 139.837 102.242 139.977 102.78 139.977C103.34 139.977 103.808 139.83 104.183 139.534C104.562 139.235 104.846 138.833 105.036 138.33C105.229 137.822 105.325 137.258 105.325 136.636C105.325 136.023 105.231 135.47 105.041 134.977C104.856 134.481 104.573 134.089 104.195 133.801C103.82 133.509 103.348 133.364 102.78 133.364C102.234 133.364 101.776 133.502 101.405 133.778C101.034 134.051 100.753 134.434 100.564 134.926C100.375 135.415 100.28 135.985 100.28 136.636ZM111.28 141.205C110.727 141.205 110.225 141.1 109.774 140.892C109.323 140.68 108.965 140.375 108.7 139.977C108.435 139.576 108.303 139.091 108.303 138.523C108.303 138.023 108.401 137.617 108.598 137.307C108.795 136.992 109.058 136.746 109.388 136.568C109.717 136.39 110.081 136.258 110.479 136.17C110.88 136.08 111.284 136.008 111.689 135.955C112.219 135.886 112.649 135.835 112.979 135.801C113.312 135.763 113.554 135.701 113.706 135.614C113.861 135.527 113.939 135.375 113.939 135.159V135.114C113.939 134.553 113.786 134.117 113.479 133.807C113.176 133.496 112.715 133.341 112.098 133.341C111.458 133.341 110.956 133.481 110.592 133.761C110.229 134.042 109.973 134.341 109.825 134.659L108.553 134.205C108.78 133.674 109.083 133.261 109.462 132.966C109.844 132.667 110.261 132.458 110.712 132.341C111.166 132.22 111.613 132.159 112.053 132.159C112.333 132.159 112.655 132.193 113.018 132.261C113.386 132.326 113.74 132.46 114.081 132.665C114.426 132.869 114.712 133.178 114.939 133.591C115.166 134.004 115.28 134.557 115.28 135.25V141H113.939V139.818H113.871C113.78 140.008 113.628 140.21 113.416 140.426C113.204 140.642 112.922 140.826 112.57 140.977C112.217 141.129 111.787 141.205 111.28 141.205ZM111.484 140C112.015 140 112.462 139.896 112.825 139.688C113.193 139.479 113.469 139.21 113.655 138.881C113.844 138.551 113.939 138.205 113.939 137.841V136.614C113.882 136.682 113.757 136.744 113.564 136.801C113.375 136.854 113.155 136.902 112.905 136.943C112.659 136.981 112.418 137.015 112.183 137.045C111.952 137.072 111.765 137.095 111.621 137.114C111.272 137.159 110.946 137.233 110.643 137.335C110.344 137.434 110.102 137.583 109.916 137.784C109.734 137.981 109.643 138.25 109.643 138.591C109.643 139.057 109.816 139.409 110.161 139.648C110.509 139.883 110.95 140 111.484 140ZM121.25 144.455C120.602 144.455 120.045 144.371 119.58 144.205C119.114 144.042 118.725 143.826 118.415 143.557C118.108 143.292 117.864 143.008 117.682 142.705L118.75 141.955C118.871 142.114 119.025 142.295 119.21 142.5C119.396 142.708 119.65 142.888 119.972 143.04C120.297 143.195 120.723 143.273 121.25 143.273C121.955 143.273 122.536 143.102 122.994 142.761C123.453 142.42 123.682 141.886 123.682 141.159V139.386H123.568C123.47 139.545 123.33 139.742 123.148 139.977C122.97 140.208 122.712 140.415 122.375 140.597C122.042 140.775 121.591 140.864 121.023 140.864C120.318 140.864 119.686 140.697 119.125 140.364C118.568 140.03 118.127 139.545 117.801 138.909C117.479 138.273 117.318 137.5 117.318 136.591C117.318 135.697 117.475 134.919 117.79 134.256C118.104 133.589 118.542 133.074 119.102 132.71C119.663 132.343 120.311 132.159 121.045 132.159C121.614 132.159 122.064 132.254 122.398 132.443C122.735 132.629 122.992 132.841 123.17 133.08C123.352 133.314 123.492 133.508 123.591 133.659H123.727V132.273H125.023V141.25C125.023 142 124.852 142.61 124.511 143.08C124.174 143.553 123.72 143.9 123.148 144.119C122.58 144.343 121.947 144.455 121.25 144.455ZM121.205 139.659C121.742 139.659 122.197 139.536 122.568 139.29C122.939 139.044 123.222 138.689 123.415 138.227C123.608 137.765 123.705 137.212 123.705 136.568C123.705 135.939 123.61 135.384 123.42 134.903C123.231 134.422 122.951 134.045 122.58 133.773C122.208 133.5 121.75 133.364 121.205 133.364C120.636 133.364 120.163 133.508 119.784 133.795C119.409 134.083 119.127 134.47 118.938 134.955C118.752 135.439 118.659 135.977 118.659 136.568C118.659 137.174 118.754 137.71 118.943 138.176C119.136 138.638 119.42 139.002 119.795 139.267C120.174 139.528 120.644 139.659 121.205 139.659ZM131.136 141.182C130.295 141.182 129.57 140.996 128.96 140.625C128.354 140.25 127.886 139.727 127.557 139.057C127.231 138.383 127.068 137.598 127.068 136.705C127.068 135.811 127.231 135.023 127.557 134.341C127.886 133.655 128.345 133.121 128.932 132.739C129.523 132.352 130.212 132.159 131 132.159C131.455 132.159 131.903 132.235 132.347 132.386C132.79 132.538 133.193 132.784 133.557 133.125C133.92 133.462 134.21 133.909 134.426 134.466C134.642 135.023 134.75 135.708 134.75 136.523V137.091H128.023V135.932H133.386C133.386 135.439 133.288 135 133.091 134.614C132.898 134.227 132.621 133.922 132.261 133.699C131.905 133.475 131.485 133.364 131 133.364C130.466 133.364 130.004 133.496 129.614 133.761C129.227 134.023 128.93 134.364 128.722 134.784C128.513 135.205 128.409 135.655 128.409 136.136V136.909C128.409 137.568 128.523 138.127 128.75 138.585C128.981 139.04 129.301 139.386 129.71 139.625C130.119 139.86 130.595 139.977 131.136 139.977C131.489 139.977 131.807 139.928 132.091 139.83C132.379 139.727 132.627 139.576 132.835 139.375C133.044 139.17 133.205 138.917 133.318 138.614L134.614 138.977C134.477 139.417 134.248 139.803 133.926 140.136C133.604 140.466 133.206 140.723 132.733 140.909C132.259 141.091 131.727 141.182 131.136 141.182ZM143.267 141L140.608 132.273H142.017L143.903 138.955H143.994L145.858 132.273H147.29L149.131 138.932H149.222L151.108 132.273H152.517L149.858 141H148.54L146.631 134.295H146.494L144.585 141H143.267ZM154.29 141V132.273H155.631V141H154.29ZM154.972 130.818C154.71 130.818 154.485 130.729 154.295 130.551C154.11 130.373 154.017 130.159 154.017 129.909C154.017 129.659 154.11 129.445 154.295 129.267C154.485 129.089 154.71 129 154.972 129C155.233 129 155.456 129.089 155.642 129.267C155.831 129.445 155.926 129.659 155.926 129.909C155.926 130.159 155.831 130.373 155.642 130.551C155.456 130.729 155.233 130.818 154.972 130.818ZM161.882 132.273V133.409H157.359V132.273H161.882ZM158.678 130.182H160.018V138.5C160.018 138.879 160.073 139.163 160.183 139.352C160.297 139.538 160.441 139.663 160.615 139.727C160.793 139.788 160.981 139.818 161.178 139.818C161.325 139.818 161.446 139.811 161.541 139.795C161.636 139.777 161.712 139.761 161.768 139.75L162.041 140.955C161.95 140.989 161.823 141.023 161.661 141.057C161.498 141.095 161.291 141.114 161.041 141.114C160.662 141.114 160.291 141.032 159.928 140.869C159.568 140.706 159.268 140.458 159.03 140.125C158.795 139.792 158.678 139.371 158.678 138.864V130.182ZM165.428 135.75V141H164.087V129.364H165.428V133.636H165.541C165.746 133.186 166.053 132.828 166.462 132.562C166.875 132.294 167.424 132.159 168.109 132.159C168.704 132.159 169.225 132.278 169.672 132.517C170.119 132.752 170.465 133.114 170.712 133.602C170.962 134.087 171.087 134.705 171.087 135.455V141H169.746V135.545C169.746 134.852 169.566 134.316 169.206 133.938C168.85 133.555 168.356 133.364 167.723 133.364C167.284 133.364 166.89 133.456 166.541 133.642C166.196 133.828 165.924 134.098 165.723 134.455C165.526 134.811 165.428 135.242 165.428 135.75ZM178.04 141V132.273H179.335V133.591H179.426C179.585 133.159 179.873 132.809 180.29 132.54C180.706 132.271 181.176 132.136 181.699 132.136C181.797 132.136 181.92 132.138 182.068 132.142C182.216 132.146 182.328 132.152 182.403 132.159V133.523C182.358 133.511 182.254 133.494 182.091 133.472C181.932 133.445 181.763 133.432 181.585 133.432C181.161 133.432 180.782 133.521 180.449 133.699C180.119 133.873 179.858 134.116 179.665 134.426C179.475 134.733 179.381 135.083 179.381 135.477V141H178.04ZM187.386 141.182C186.545 141.182 185.82 140.996 185.21 140.625C184.604 140.25 184.136 139.727 183.807 139.057C183.481 138.383 183.318 137.598 183.318 136.705C183.318 135.811 183.481 135.023 183.807 134.341C184.136 133.655 184.595 133.121 185.182 132.739C185.773 132.352 186.462 132.159 187.25 132.159C187.705 132.159 188.153 132.235 188.597 132.386C189.04 132.538 189.443 132.784 189.807 133.125C190.17 133.462 190.46 133.909 190.676 134.466C190.892 135.023 191 135.708 191 136.523V137.091H184.273V135.932H189.636C189.636 135.439 189.538 135 189.341 134.614C189.148 134.227 188.871 133.922 188.511 133.699C188.155 133.475 187.735 133.364 187.25 133.364C186.716 133.364 186.254 133.496 185.864 133.761C185.477 134.023 185.18 134.364 184.972 134.784C184.763 135.205 184.659 135.655 184.659 136.136V136.909C184.659 137.568 184.773 138.127 185 138.585C185.231 139.04 185.551 139.386 185.96 139.625C186.369 139.86 186.845 139.977 187.386 139.977C187.739 139.977 188.057 139.928 188.341 139.83C188.629 139.727 188.877 139.576 189.085 139.375C189.294 139.17 189.455 138.917 189.568 138.614L190.864 138.977C190.727 139.417 190.498 139.803 190.176 140.136C189.854 140.466 189.456 140.723 188.983 140.909C188.509 141.091 187.977 141.182 187.386 141.182ZM196.585 141.182C195.767 141.182 195.063 140.989 194.472 140.602C193.881 140.216 193.426 139.684 193.108 139.006C192.79 138.328 192.631 137.553 192.631 136.682C192.631 135.795 192.794 135.013 193.119 134.335C193.449 133.653 193.907 133.121 194.494 132.739C195.085 132.352 195.775 132.159 196.562 132.159C197.176 132.159 197.729 132.273 198.222 132.5C198.714 132.727 199.117 133.045 199.432 133.455C199.746 133.864 199.941 134.341 200.017 134.886H198.676C198.574 134.489 198.347 134.136 197.994 133.83C197.646 133.519 197.176 133.364 196.585 133.364C196.063 133.364 195.604 133.5 195.21 133.773C194.82 134.042 194.515 134.422 194.295 134.915C194.08 135.403 193.972 135.977 193.972 136.636C193.972 137.311 194.078 137.898 194.29 138.398C194.506 138.898 194.809 139.286 195.199 139.562C195.593 139.839 196.055 139.977 196.585 139.977C196.934 139.977 197.25 139.917 197.534 139.795C197.818 139.674 198.059 139.5 198.256 139.273C198.453 139.045 198.593 138.773 198.676 138.455H200.017C199.941 138.97 199.754 139.434 199.455 139.847C199.159 140.256 198.767 140.581 198.278 140.824C197.794 141.062 197.229 141.182 196.585 141.182ZM201.977 141V132.273H203.318V141H201.977ZM202.659 130.818C202.398 130.818 202.172 130.729 201.983 130.551C201.797 130.373 201.705 130.159 201.705 129.909C201.705 129.659 201.797 129.445 201.983 129.267C202.172 129.089 202.398 129 202.659 129C202.92 129 203.144 129.089 203.33 129.267C203.519 129.445 203.614 129.659 203.614 129.909C203.614 130.159 203.519 130.373 203.33 130.551C203.144 130.729 202.92 130.818 202.659 130.818ZM205.774 144.273V132.273H207.07V133.659H207.229C207.327 133.508 207.464 133.314 207.638 133.08C207.816 132.841 208.07 132.629 208.399 132.443C208.732 132.254 209.183 132.159 209.751 132.159C210.486 132.159 211.134 132.343 211.695 132.71C212.255 133.078 212.693 133.598 213.007 134.273C213.321 134.947 213.479 135.742 213.479 136.659C213.479 137.583 213.321 138.384 213.007 139.062C212.693 139.737 212.257 140.259 211.7 140.631C211.143 140.998 210.501 141.182 209.774 141.182C209.214 141.182 208.765 141.089 208.428 140.903C208.09 140.714 207.831 140.5 207.649 140.261C207.467 140.019 207.327 139.818 207.229 139.659H207.115V144.273H205.774ZM207.092 136.636C207.092 137.295 207.189 137.877 207.382 138.381C207.575 138.881 207.857 139.273 208.229 139.557C208.6 139.837 209.054 139.977 209.592 139.977C210.153 139.977 210.621 139.83 210.996 139.534C211.375 139.235 211.659 138.833 211.848 138.33C212.041 137.822 212.138 137.258 212.138 136.636C212.138 136.023 212.043 135.47 211.854 134.977C211.668 134.481 211.386 134.089 211.007 133.801C210.632 133.509 210.161 133.364 209.592 133.364C209.047 133.364 208.589 133.502 208.217 133.778C207.846 134.051 207.566 134.434 207.376 134.926C207.187 135.415 207.092 135.985 207.092 136.636ZM219.183 141.182C218.342 141.182 217.617 140.996 217.007 140.625C216.401 140.25 215.933 139.727 215.604 139.057C215.278 138.383 215.115 137.598 215.115 136.705C215.115 135.811 215.278 135.023 215.604 134.341C215.933 133.655 216.392 133.121 216.979 132.739C217.57 132.352 218.259 132.159 219.047 132.159C219.501 132.159 219.95 132.235 220.393 132.386C220.837 132.538 221.24 132.784 221.604 133.125C221.967 133.462 222.257 133.909 222.473 134.466C222.689 135.023 222.797 135.708 222.797 136.523V137.091H216.07V135.932H221.433C221.433 135.439 221.335 135 221.138 134.614C220.945 134.227 220.668 133.922 220.308 133.699C219.952 133.475 219.532 133.364 219.047 133.364C218.513 133.364 218.051 133.496 217.661 133.761C217.274 134.023 216.977 134.364 216.768 134.784C216.56 135.205 216.456 135.655 216.456 136.136V136.909C216.456 137.568 216.57 138.127 216.797 138.585C217.028 139.04 217.348 139.386 217.757 139.625C218.166 139.86 218.642 139.977 219.183 139.977C219.536 139.977 219.854 139.928 220.138 139.83C220.426 139.727 220.674 139.576 220.882 139.375C221.09 139.17 221.251 138.917 221.365 138.614L222.661 138.977C222.524 139.417 222.295 139.803 221.973 140.136C221.651 140.466 221.253 140.723 220.78 140.909C220.306 141.091 219.774 141.182 219.183 141.182ZM17.2273 160V151.273H18.5227V152.591H18.6136C18.7727 152.159 19.0606 151.809 19.4773 151.54C19.8939 151.271 20.3636 151.136 20.8864 151.136C20.9848 151.136 21.108 151.138 21.2557 151.142C21.4034 151.146 21.5152 151.152 21.5909 151.159V152.523C21.5455 152.511 21.4413 152.494 21.2784 152.472C21.1193 152.445 20.9508 152.432 20.7727 152.432C20.3485 152.432 19.9697 152.521 19.6364 152.699C19.3068 152.873 19.0455 153.116 18.8523 153.426C18.6629 153.733 18.5682 154.083 18.5682 154.477V160H17.2273ZM26.5739 160.182C25.733 160.182 25.0076 159.996 24.3977 159.625C23.7917 159.25 23.3239 158.727 22.9943 158.057C22.6686 157.383 22.5057 156.598 22.5057 155.705C22.5057 154.811 22.6686 154.023 22.9943 153.341C23.3239 152.655 23.7822 152.121 24.3693 151.739C24.9602 151.352 25.6496 151.159 26.4375 151.159C26.892 151.159 27.3409 151.235 27.7841 151.386C28.2273 151.538 28.6307 151.784 28.9943 152.125C29.358 152.462 29.6477 152.909 29.8636 153.466C30.0795 154.023 30.1875 154.708 30.1875 155.523V156.091H23.4602V154.932H28.8239C28.8239 154.439 28.7254 154 28.5284 153.614C28.3352 153.227 28.0587 152.922 27.6989 152.699C27.3428 152.475 26.9223 152.364 26.4375 152.364C25.9034 152.364 25.4413 152.496 25.0511 152.761C24.6648 153.023 24.3674 153.364 24.1591 153.784C23.9508 154.205 23.8466 154.655 23.8466 155.136V155.909C23.8466 156.568 23.9602 157.127 24.1875 157.585C24.4186 158.04 24.7386 158.386 25.1477 158.625C25.5568 158.86 26.0322 158.977 26.5739 158.977C26.9261 158.977 27.2443 158.928 27.5284 158.83C27.8163 158.727 28.0644 158.576 28.2727 158.375C28.4811 158.17 28.642 157.917 28.7557 157.614L30.0511 157.977C29.9148 158.417 29.6856 158.803 29.3636 159.136C29.0417 159.466 28.6439 159.723 28.1705 159.909C27.697 160.091 27.1648 160.182 26.5739 160.182ZM35.7727 160.182C34.9545 160.182 34.25 159.989 33.6591 159.602C33.0682 159.216 32.6136 158.684 32.2955 158.006C31.9773 157.328 31.8182 156.553 31.8182 155.682C31.8182 154.795 31.9811 154.013 32.3068 153.335C32.6364 152.653 33.0947 152.121 33.6818 151.739C34.2727 151.352 34.9621 151.159 35.75 151.159C36.3636 151.159 36.9167 151.273 37.4091 151.5C37.9015 151.727 38.3049 152.045 38.6193 152.455C38.9337 152.864 39.1288 153.341 39.2045 153.886H37.8636C37.7614 153.489 37.5341 153.136 37.1818 152.83C36.8333 152.519 36.3636 152.364 35.7727 152.364C35.25 152.364 34.7917 152.5 34.3977 152.773C34.0076 153.042 33.7027 153.422 33.483 153.915C33.267 154.403 33.1591 154.977 33.1591 155.636C33.1591 156.311 33.2652 156.898 33.4773 157.398C33.6932 157.898 33.9962 158.286 34.3864 158.562C34.7803 158.839 35.2424 158.977 35.7727 158.977C36.1212 158.977 36.4375 158.917 36.7216 158.795C37.0057 158.674 37.2462 158.5 37.4432 158.273C37.6402 158.045 37.7803 157.773 37.8636 157.455H39.2045C39.1288 157.97 38.9413 158.434 38.642 158.847C38.3466 159.256 37.9545 159.581 37.4659 159.824C36.9811 160.062 36.4167 160.182 35.7727 160.182ZM44.7102 160.182C43.9223 160.182 43.2311 159.994 42.6364 159.619C42.0455 159.244 41.5833 158.72 41.25 158.045C40.9205 157.371 40.7557 156.583 40.7557 155.682C40.7557 154.773 40.9205 153.979 41.25 153.301C41.5833 152.623 42.0455 152.097 42.6364 151.722C43.2311 151.347 43.9223 151.159 44.7102 151.159C45.4981 151.159 46.1875 151.347 46.7784 151.722C47.3731 152.097 47.8352 152.623 48.1648 153.301C48.4981 153.979 48.6648 154.773 48.6648 155.682C48.6648 156.583 48.4981 157.371 48.1648 158.045C47.8352 158.72 47.3731 159.244 46.7784 159.619C46.1875 159.994 45.4981 160.182 44.7102 160.182ZM44.7102 158.977C45.3087 158.977 45.8011 158.824 46.1875 158.517C46.5739 158.21 46.8598 157.807 47.0455 157.307C47.2311 156.807 47.3239 156.265 47.3239 155.682C47.3239 155.098 47.2311 154.555 47.0455 154.051C46.8598 153.547 46.5739 153.14 46.1875 152.83C45.8011 152.519 45.3087 152.364 44.7102 152.364C44.1117 152.364 43.6193 152.519 43.233 152.83C42.8466 153.14 42.5606 153.547 42.375 154.051C42.1894 154.555 42.0966 155.098 42.0966 155.682C42.0966 156.265 42.1894 156.807 42.375 157.307C42.5606 157.807 42.8466 158.21 43.233 158.517C43.6193 158.824 44.1117 158.977 44.7102 158.977ZM50.7116 160V151.273H52.0071V152.636H52.1207C52.3026 152.17 52.5961 151.809 53.0014 151.551C53.4067 151.29 53.8935 151.159 54.4616 151.159C55.0374 151.159 55.5166 151.29 55.8991 151.551C56.2855 151.809 56.5866 152.17 56.8026 152.636H56.8935C57.117 152.186 57.4522 151.828 57.8991 151.562C58.3461 151.294 58.8821 151.159 59.5071 151.159C60.2874 151.159 60.9257 151.403 61.4219 151.892C61.9181 152.377 62.1662 153.133 62.1662 154.159V160H60.8253V154.159C60.8253 153.515 60.6491 153.055 60.2969 152.778C59.9446 152.502 59.5298 152.364 59.0526 152.364C58.4389 152.364 57.9635 152.549 57.6264 152.92C57.2893 153.288 57.1207 153.754 57.1207 154.318V160H55.7571V154.023C55.7571 153.527 55.5961 153.127 55.2741 152.824C54.9522 152.517 54.5374 152.364 54.0298 152.364C53.6813 152.364 53.3556 152.456 53.0526 152.642C52.7533 152.828 52.5109 153.085 52.3253 153.415C52.1435 153.741 52.0526 154.117 52.0526 154.545V160H50.7116ZM64.6179 160V151.273H65.9134V152.636H66.027C66.2088 152.17 66.5024 151.809 66.9077 151.551C67.313 151.29 67.7997 151.159 68.3679 151.159C68.9437 151.159 69.4228 151.29 69.8054 151.551C70.1918 151.809 70.4929 152.17 70.7088 152.636H70.7997C71.0232 152.186 71.3584 151.828 71.8054 151.562C72.2524 151.294 72.7884 151.159 73.4134 151.159C74.1937 151.159 74.8319 151.403 75.3281 151.892C75.8243 152.377 76.0724 153.133 76.0724 154.159V160H74.7315V154.159C74.7315 153.515 74.5554 153.055 74.2031 152.778C73.8509 152.502 73.4361 152.364 72.9588 152.364C72.3452 152.364 71.8698 152.549 71.5327 152.92C71.1955 153.288 71.027 153.754 71.027 154.318V160H69.6634V154.023C69.6634 153.527 69.5024 153.127 69.1804 152.824C68.8584 152.517 68.4437 152.364 67.9361 152.364C67.5876 152.364 67.2618 152.456 66.9588 152.642C66.6596 152.828 66.4171 153.085 66.2315 153.415C66.0497 153.741 65.9588 154.117 65.9588 154.545V160H64.6179ZM82.1832 160.182C81.3423 160.182 80.617 159.996 80.0071 159.625C79.401 159.25 78.9332 158.727 78.6037 158.057C78.2779 157.383 78.1151 156.598 78.1151 155.705C78.1151 154.811 78.2779 154.023 78.6037 153.341C78.9332 152.655 79.3916 152.121 79.9787 151.739C80.5696 151.352 81.259 151.159 82.0469 151.159C82.5014 151.159 82.9503 151.235 83.3935 151.386C83.8366 151.538 84.2401 151.784 84.6037 152.125C84.9673 152.462 85.2571 152.909 85.473 153.466C85.6889 154.023 85.7969 154.708 85.7969 155.523V156.091H79.0696V154.932H84.4332C84.4332 154.439 84.3348 154 84.1378 153.614C83.9446 153.227 83.6681 152.922 83.3082 152.699C82.9522 152.475 82.5317 152.364 82.0469 152.364C81.5128 152.364 81.0507 152.496 80.6605 152.761C80.2741 153.023 79.9768 153.364 79.7685 153.784C79.5601 154.205 79.456 154.655 79.456 155.136V155.909C79.456 156.568 79.5696 157.127 79.7969 157.585C80.0279 158.04 80.348 158.386 80.7571 158.625C81.1662 158.86 81.6416 158.977 82.1832 158.977C82.5355 158.977 82.8537 158.928 83.1378 158.83C83.4257 158.727 83.6738 158.576 83.8821 158.375C84.0904 158.17 84.2514 157.917 84.3651 157.614L85.6605 157.977C85.5241 158.417 85.295 158.803 84.973 159.136C84.651 159.466 84.2533 159.723 83.7798 159.909C83.3063 160.091 82.7741 160.182 82.1832 160.182ZM89.1776 154.75V160H87.8366V151.273H89.1321V152.636H89.2457C89.4503 152.193 89.7609 151.837 90.1776 151.568C90.5942 151.295 91.1321 151.159 91.7912 151.159C92.3821 151.159 92.8991 151.28 93.3423 151.523C93.7855 151.761 94.1302 152.125 94.3764 152.614C94.6226 153.098 94.7457 153.712 94.7457 154.455V160H93.4048V154.545C93.4048 153.86 93.2268 153.326 92.8707 152.943C92.5147 152.557 92.026 152.364 91.4048 152.364C90.9768 152.364 90.5942 152.456 90.2571 152.642C89.9238 152.828 89.6605 153.098 89.4673 153.455C89.2741 153.811 89.1776 154.242 89.1776 154.75ZM100.491 160.182C99.7642 160.182 99.1222 159.998 98.5653 159.631C98.0085 159.259 97.5729 158.737 97.2585 158.062C96.9441 157.384 96.7869 156.583 96.7869 155.659C96.7869 154.742 96.9441 153.947 97.2585 153.273C97.5729 152.598 98.0104 152.078 98.571 151.71C99.1316 151.343 99.7794 151.159 100.514 151.159C101.082 151.159 101.531 151.254 101.861 151.443C102.194 151.629 102.448 151.841 102.622 152.08C102.8 152.314 102.938 152.508 103.037 152.659H103.151V148.364H104.491V160H103.196V158.659H103.037C102.938 158.818 102.798 159.019 102.616 159.261C102.435 159.5 102.175 159.714 101.838 159.903C101.501 160.089 101.052 160.182 100.491 160.182ZM100.673 158.977C101.211 158.977 101.666 158.837 102.037 158.557C102.408 158.273 102.69 157.881 102.884 157.381C103.077 156.877 103.173 156.295 103.173 155.636C103.173 154.985 103.079 154.415 102.889 153.926C102.7 153.434 102.42 153.051 102.048 152.778C101.677 152.502 101.219 152.364 100.673 152.364C100.105 152.364 99.6316 152.509 99.2528 152.801C98.8778 153.089 98.5956 153.481 98.4062 153.977C98.2206 154.47 98.1278 155.023 98.1278 155.636C98.1278 156.258 98.2225 156.822 98.4119 157.33C98.6051 157.833 98.8892 158.235 99.2642 158.534C99.643 158.83 100.113 158.977 100.673 158.977ZM109.702 160.205C109.149 160.205 108.647 160.1 108.196 159.892C107.745 159.68 107.387 159.375 107.122 158.977C106.857 158.576 106.724 158.091 106.724 157.523C106.724 157.023 106.823 156.617 107.02 156.307C107.217 155.992 107.48 155.746 107.81 155.568C108.139 155.39 108.503 155.258 108.901 155.17C109.302 155.08 109.705 155.008 110.111 154.955C110.641 154.886 111.071 154.835 111.401 154.801C111.734 154.763 111.976 154.701 112.128 154.614C112.283 154.527 112.361 154.375 112.361 154.159V154.114C112.361 153.553 112.207 153.117 111.901 152.807C111.598 152.496 111.137 152.341 110.52 152.341C109.88 152.341 109.378 152.481 109.014 152.761C108.651 153.042 108.395 153.341 108.247 153.659L106.974 153.205C107.202 152.674 107.505 152.261 107.884 151.966C108.266 151.667 108.683 151.458 109.134 151.341C109.588 151.22 110.035 151.159 110.474 151.159C110.755 151.159 111.077 151.193 111.44 151.261C111.808 151.326 112.162 151.46 112.503 151.665C112.848 151.869 113.134 152.178 113.361 152.591C113.588 153.004 113.702 153.557 113.702 154.25V160H112.361V158.818H112.293C112.202 159.008 112.05 159.21 111.838 159.426C111.626 159.642 111.344 159.826 110.991 159.977C110.639 160.129 110.209 160.205 109.702 160.205ZM109.906 159C110.437 159 110.884 158.896 111.247 158.688C111.615 158.479 111.891 158.21 112.077 157.881C112.266 157.551 112.361 157.205 112.361 156.841V155.614C112.304 155.682 112.179 155.744 111.986 155.801C111.796 155.854 111.577 155.902 111.327 155.943C111.08 155.981 110.84 156.015 110.605 156.045C110.374 156.072 110.187 156.095 110.043 156.114C109.694 156.159 109.368 156.233 109.065 156.335C108.766 156.434 108.524 156.583 108.338 156.784C108.156 156.981 108.065 157.25 108.065 157.591C108.065 158.057 108.238 158.409 108.582 158.648C108.931 158.883 109.372 159 109.906 159ZM119.945 151.273V152.409H115.422V151.273H119.945ZM116.74 149.182H118.081V157.5C118.081 157.879 118.136 158.163 118.246 158.352C118.359 158.538 118.503 158.663 118.678 158.727C118.856 158.788 119.043 158.818 119.24 158.818C119.388 158.818 119.509 158.811 119.604 158.795C119.698 158.777 119.774 158.761 119.831 158.75L120.104 159.955C120.013 159.989 119.886 160.023 119.723 160.057C119.56 160.095 119.354 160.114 119.104 160.114C118.725 160.114 118.354 160.032 117.99 159.869C117.63 159.706 117.331 159.458 117.092 159.125C116.857 158.792 116.74 158.371 116.74 157.864V149.182ZM121.962 160V151.273H123.303V160H121.962ZM122.643 149.818C122.382 149.818 122.157 149.729 121.967 149.551C121.782 149.373 121.689 149.159 121.689 148.909C121.689 148.659 121.782 148.445 121.967 148.267C122.157 148.089 122.382 148 122.643 148C122.905 148 123.128 148.089 123.314 148.267C123.503 148.445 123.598 148.659 123.598 148.909C123.598 149.159 123.503 149.373 123.314 149.551C123.128 149.729 122.905 149.818 122.643 149.818ZM129.304 160.182C128.516 160.182 127.825 159.994 127.23 159.619C126.639 159.244 126.177 158.72 125.844 158.045C125.514 157.371 125.349 156.583 125.349 155.682C125.349 154.773 125.514 153.979 125.844 153.301C126.177 152.623 126.639 152.097 127.23 151.722C127.825 151.347 128.516 151.159 129.304 151.159C130.092 151.159 130.781 151.347 131.372 151.722C131.967 152.097 132.429 152.623 132.759 153.301C133.092 153.979 133.259 154.773 133.259 155.682C133.259 156.583 133.092 157.371 132.759 158.045C132.429 158.72 131.967 159.244 131.372 159.619C130.781 159.994 130.092 160.182 129.304 160.182ZM129.304 158.977C129.902 158.977 130.395 158.824 130.781 158.517C131.168 158.21 131.454 157.807 131.639 157.307C131.825 156.807 131.918 156.265 131.918 155.682C131.918 155.098 131.825 154.555 131.639 154.051C131.454 153.547 131.168 153.14 130.781 152.83C130.395 152.519 129.902 152.364 129.304 152.364C128.705 152.364 128.213 152.519 127.827 152.83C127.44 153.14 127.154 153.547 126.969 154.051C126.783 154.555 126.69 155.098 126.69 155.682C126.69 156.265 126.783 156.807 126.969 157.307C127.154 157.807 127.44 158.21 127.827 158.517C128.213 158.824 128.705 158.977 129.304 158.977ZM136.646 154.75V160H135.305V151.273H136.601V152.636H136.714C136.919 152.193 137.23 151.837 137.646 151.568C138.063 151.295 138.601 151.159 139.26 151.159C139.851 151.159 140.368 151.28 140.811 151.523C141.254 151.761 141.599 152.125 141.845 152.614C142.091 153.098 142.214 153.712 142.214 154.455V160H140.874V154.545C140.874 153.86 140.696 153.326 140.339 152.943C139.983 152.557 139.495 152.364 138.874 152.364C138.446 152.364 138.063 152.456 137.726 152.642C137.393 152.828 137.129 153.098 136.936 153.455C136.743 153.811 136.646 154.242 136.646 154.75ZM145.642 160.091C145.362 160.091 145.121 159.991 144.92 159.79C144.72 159.589 144.619 159.348 144.619 159.068C144.619 158.788 144.72 158.547 144.92 158.347C145.121 158.146 145.362 158.045 145.642 158.045C145.922 158.045 146.163 158.146 146.364 158.347C146.564 158.547 146.665 158.788 146.665 159.068C146.665 159.254 146.617 159.424 146.523 159.58C146.432 159.735 146.309 159.86 146.153 159.955C146.002 160.045 145.831 160.091 145.642 160.091ZM150.048 160.091C149.768 160.091 149.527 159.991 149.327 159.79C149.126 159.589 149.026 159.348 149.026 159.068C149.026 158.788 149.126 158.547 149.327 158.347C149.527 158.146 149.768 158.045 150.048 158.045C150.329 158.045 150.569 158.146 150.77 158.347C150.971 158.547 151.071 158.788 151.071 159.068C151.071 159.254 151.024 159.424 150.929 159.58C150.838 159.735 150.715 159.86 150.56 159.955C150.408 160.045 150.238 160.091 150.048 160.091ZM154.455 160.091C154.174 160.091 153.934 159.991 153.733 159.79C153.532 159.589 153.432 159.348 153.432 159.068C153.432 158.788 153.532 158.547 153.733 158.347C153.934 158.146 154.174 158.045 154.455 158.045C154.735 158.045 154.975 158.146 155.176 158.347C155.377 158.547 155.477 158.788 155.477 159.068C155.477 159.254 155.43 159.424 155.335 159.58C155.244 159.735 155.121 159.86 154.966 159.955C154.814 160.045 154.644 160.091 154.455 160.091Z" fill="#A8A8A8"/>
<rect x="16" y="192" width="128" height="8" rx="4" fill="#F4F4F4"/>
<rect x="16" y="192" width="64" height="8" rx="4" fill="#4589FF"/>
<path d="M158.972 190.273V199H157.915V191.381H157.864L155.733 192.795V191.722L157.915 190.273H158.972ZM164.584 189.864L161.771 200.312H160.851L163.663 189.864H164.584ZM165.759 199V198.233L168.64 195.08C168.978 194.71 169.256 194.389 169.475 194.116C169.694 193.841 169.855 193.582 169.961 193.341C170.069 193.097 170.123 192.841 170.123 192.574C170.123 192.267 170.049 192.001 169.901 191.777C169.756 191.553 169.557 191.379 169.304 191.257C169.051 191.135 168.767 191.074 168.452 191.074C168.117 191.074 167.824 191.143 167.574 191.283C167.327 191.419 167.135 191.611 166.999 191.858C166.865 192.105 166.799 192.395 166.799 192.727H165.793C165.793 192.216 165.911 191.767 166.147 191.381C166.382 190.994 166.703 190.693 167.11 190.477C167.519 190.261 167.978 190.153 168.486 190.153C168.998 190.153 169.451 190.261 169.846 190.477C170.24 190.693 170.55 190.984 170.775 191.351C170.999 191.717 171.111 192.125 171.111 192.574C171.111 192.895 171.053 193.209 170.936 193.516C170.823 193.82 170.624 194.159 170.34 194.534C170.059 194.906 169.668 195.361 169.168 195.898L167.208 197.994V198.062H171.265V199H165.759ZM181.326 192.455C181.275 192.023 181.067 191.688 180.703 191.449C180.34 191.21 179.894 191.091 179.365 191.091C178.979 191.091 178.641 191.153 178.351 191.278C178.064 191.403 177.84 191.575 177.678 191.794C177.519 192.013 177.439 192.261 177.439 192.54C177.439 192.773 177.495 192.973 177.605 193.141C177.719 193.305 177.864 193.443 178.04 193.554C178.216 193.662 178.401 193.751 178.594 193.822C178.787 193.891 178.965 193.946 179.127 193.989L180.013 194.227C180.24 194.287 180.493 194.369 180.772 194.474C181.053 194.58 181.321 194.723 181.577 194.905C181.836 195.084 182.049 195.314 182.216 195.595C182.384 195.876 182.468 196.222 182.468 196.631C182.468 197.102 182.344 197.528 182.097 197.909C181.853 198.29 181.495 198.592 181.023 198.817C180.554 199.041 179.985 199.153 179.314 199.153C178.689 199.153 178.148 199.053 177.691 198.851C177.236 198.649 176.878 198.368 176.617 198.007C176.358 197.646 176.212 197.227 176.178 196.75H177.269C177.297 197.08 177.408 197.352 177.601 197.568C177.797 197.781 178.044 197.94 178.343 198.045C178.644 198.148 178.968 198.199 179.314 198.199C179.718 198.199 180.08 198.134 180.401 198.003C180.722 197.869 180.976 197.685 181.164 197.449C181.351 197.21 181.445 196.932 181.445 196.614C181.445 196.324 181.364 196.088 181.202 195.906C181.04 195.724 180.827 195.577 180.563 195.463C180.299 195.349 180.013 195.25 179.706 195.165L178.632 194.858C177.951 194.662 177.411 194.382 177.013 194.018C176.615 193.655 176.417 193.179 176.417 192.591C176.417 192.102 176.549 191.676 176.813 191.312C177.08 190.946 177.438 190.662 177.887 190.46C178.338 190.256 178.843 190.153 179.4 190.153C179.962 190.153 180.462 190.254 180.9 190.456C181.337 190.655 181.684 190.928 181.939 191.274C182.198 191.621 182.334 192.014 182.348 192.455H181.326ZM188.194 196.324V192.455H189.2V199H188.194V197.892H188.126C187.972 198.224 187.734 198.507 187.41 198.74C187.086 198.97 186.677 199.085 186.183 199.085C185.773 199.085 185.41 198.996 185.092 198.817C184.773 198.635 184.523 198.362 184.342 197.999C184.16 197.632 184.069 197.17 184.069 196.614V192.455H185.075V196.545C185.075 197.023 185.208 197.403 185.475 197.688C185.745 197.972 186.089 198.114 186.506 198.114C186.756 198.114 187.011 198.05 187.269 197.922C187.531 197.794 187.749 197.598 187.925 197.334C188.104 197.07 188.194 196.733 188.194 196.324ZM191.178 199V190.273H192.184V193.494H192.269C192.343 193.381 192.445 193.236 192.576 193.06C192.709 192.881 192.9 192.722 193.147 192.582C193.397 192.44 193.735 192.369 194.161 192.369C194.712 192.369 195.198 192.507 195.618 192.783C196.039 193.058 196.367 193.449 196.603 193.955C196.838 194.46 196.956 195.057 196.956 195.744C196.956 196.438 196.838 197.038 196.603 197.547C196.367 198.053 196.04 198.445 195.623 198.723C195.205 198.999 194.723 199.136 194.178 199.136C193.757 199.136 193.421 199.067 193.168 198.928C192.915 198.786 192.721 198.625 192.584 198.446C192.448 198.264 192.343 198.114 192.269 197.994H192.15V199H191.178ZM192.167 195.727C192.167 196.222 192.239 196.658 192.384 197.036C192.529 197.411 192.74 197.705 193.019 197.918C193.297 198.128 193.638 198.233 194.042 198.233C194.462 198.233 194.813 198.122 195.094 197.901C195.378 197.676 195.591 197.375 195.733 196.997C195.878 196.616 195.951 196.193 195.951 195.727C195.951 195.267 195.88 194.852 195.738 194.483C195.598 194.111 195.387 193.817 195.103 193.601C194.821 193.382 194.468 193.273 194.042 193.273C193.632 193.273 193.289 193.376 193.01 193.584C192.732 193.788 192.522 194.075 192.38 194.445C192.238 194.811 192.167 195.239 192.167 195.727ZM201.341 192.455V193.307H197.949V192.455H201.341ZM198.938 190.886H199.944V197.125C199.944 197.409 199.985 197.622 200.067 197.764C200.152 197.903 200.26 197.997 200.391 198.045C200.525 198.091 200.665 198.114 200.813 198.114C200.924 198.114 201.015 198.108 201.086 198.097C201.157 198.082 201.213 198.071 201.256 198.062L201.461 198.966C201.392 198.991 201.297 199.017 201.175 199.043C201.053 199.071 200.898 199.085 200.711 199.085C200.426 199.085 200.148 199.024 199.875 198.902C199.605 198.78 199.381 198.594 199.202 198.344C199.026 198.094 198.938 197.778 198.938 197.398V190.886ZM204.78 199.153C204.365 199.153 203.989 199.075 203.651 198.919C203.313 198.76 203.044 198.531 202.846 198.233C202.647 197.932 202.547 197.568 202.547 197.142C202.547 196.767 202.621 196.463 202.769 196.23C202.917 195.994 203.114 195.81 203.361 195.676C203.608 195.543 203.881 195.443 204.179 195.378C204.48 195.31 204.783 195.256 205.087 195.216C205.485 195.165 205.807 195.126 206.054 195.101C206.304 195.072 206.486 195.026 206.6 194.96C206.716 194.895 206.775 194.781 206.775 194.619V194.585C206.775 194.165 206.659 193.838 206.429 193.605C206.202 193.372 205.857 193.256 205.394 193.256C204.914 193.256 204.537 193.361 204.265 193.571C203.992 193.781 203.8 194.006 203.689 194.244L202.735 193.903C202.905 193.506 203.132 193.196 203.417 192.974C203.703 192.75 204.016 192.594 204.354 192.506C204.695 192.415 205.03 192.369 205.36 192.369C205.57 192.369 205.811 192.395 206.084 192.446C206.36 192.494 206.625 192.595 206.881 192.749C207.14 192.902 207.354 193.134 207.525 193.443C207.695 193.753 207.78 194.168 207.78 194.688V199H206.775V198.114H206.723C206.655 198.256 206.542 198.408 206.382 198.57C206.223 198.732 206.012 198.869 205.748 198.983C205.483 199.097 205.161 199.153 204.78 199.153ZM204.934 198.25C205.331 198.25 205.667 198.172 205.939 198.016C206.215 197.859 206.422 197.658 206.561 197.411C206.703 197.163 206.775 196.903 206.775 196.631V195.71C206.732 195.761 206.638 195.808 206.493 195.851C206.351 195.891 206.186 195.926 205.999 195.957C205.814 195.986 205.634 196.011 205.458 196.034C205.284 196.054 205.144 196.071 205.036 196.085C204.775 196.119 204.53 196.175 204.303 196.251C204.078 196.325 203.897 196.437 203.757 196.588C203.621 196.736 203.553 196.937 203.553 197.193C203.553 197.543 203.682 197.807 203.941 197.986C204.202 198.162 204.533 198.25 204.934 198.25ZM214.252 193.92L213.349 194.176C213.292 194.026 213.208 193.879 213.097 193.737C212.989 193.592 212.842 193.473 212.654 193.379C212.467 193.286 212.227 193.239 211.934 193.239C211.533 193.239 211.2 193.331 210.933 193.516C210.668 193.697 210.536 193.929 210.536 194.21C210.536 194.46 210.627 194.658 210.809 194.803C210.991 194.947 211.275 195.068 211.661 195.165L212.633 195.403C213.218 195.545 213.654 195.763 213.941 196.055C214.228 196.345 214.371 196.719 214.371 197.176C214.371 197.551 214.263 197.886 214.048 198.182C213.835 198.477 213.536 198.71 213.153 198.881C212.769 199.051 212.323 199.136 211.815 199.136C211.147 199.136 210.594 198.991 210.157 198.702C209.719 198.412 209.442 197.989 209.326 197.432L210.281 197.193C210.371 197.545 210.543 197.81 210.796 197.986C211.052 198.162 211.386 198.25 211.798 198.25C212.266 198.25 212.638 198.151 212.914 197.952C213.192 197.75 213.332 197.509 213.332 197.227C213.332 197 213.252 196.81 213.093 196.656C212.934 196.5 212.69 196.384 212.36 196.307L211.269 196.051C210.67 195.909 210.229 195.689 209.948 195.391C209.67 195.089 209.531 194.713 209.531 194.261C209.531 193.892 209.634 193.565 209.842 193.281C210.052 192.997 210.337 192.774 210.698 192.612C211.062 192.45 211.474 192.369 211.934 192.369C212.582 192.369 213.09 192.511 213.46 192.795C213.832 193.08 214.096 193.455 214.252 193.92ZM216.823 196.614L216.806 195.369H217.01L219.874 192.455H221.118L218.067 195.54H217.982L216.823 196.614ZM215.885 199V190.273H216.891V199H215.885ZM220.044 199L217.488 195.761L218.203 195.062L221.323 199H220.044ZM227.049 193.92L226.146 194.176C226.089 194.026 226.005 193.879 225.894 193.737C225.786 193.592 225.638 193.473 225.451 193.379C225.263 193.286 225.023 193.239 224.731 193.239C224.33 193.239 223.996 193.331 223.729 193.516C223.465 193.697 223.333 193.929 223.333 194.21C223.333 194.46 223.424 194.658 223.606 194.803C223.788 194.947 224.072 195.068 224.458 195.165L225.43 195.403C226.015 195.545 226.451 195.763 226.738 196.055C227.025 196.345 227.168 196.719 227.168 197.176C227.168 197.551 227.06 197.886 226.844 198.182C226.631 198.477 226.333 198.71 225.95 198.881C225.566 199.051 225.12 199.136 224.612 199.136C223.944 199.136 223.391 198.991 222.954 198.702C222.516 198.412 222.239 197.989 222.123 197.432L223.077 197.193C223.168 197.545 223.34 197.81 223.593 197.986C223.849 198.162 224.183 198.25 224.594 198.25C225.063 198.25 225.435 198.151 225.711 197.952C225.989 197.75 226.129 197.509 226.129 197.227C226.129 197 226.049 196.81 225.89 196.656C225.731 196.5 225.487 196.384 225.157 196.307L224.066 196.051C223.467 195.909 223.026 195.689 222.745 195.391C222.467 195.089 222.327 194.713 222.327 194.261C222.327 193.892 222.431 193.565 222.638 193.281C222.849 192.997 223.134 192.774 223.495 192.612C223.859 192.45 224.271 192.369 224.731 192.369C225.379 192.369 225.887 192.511 226.256 192.795C226.629 193.08 226.893 193.455 227.049 193.92Z" fill="black"/>
<rect x="16" y="228" width="32" height="32" rx="16" fill="white"/>
<circle cx="32" cy="244" r="15.5" fill="#FF7A00" stroke="white"/>
<path d="M24.0219 248.19H22.9139L26.1185 239.463H27.2094L30.4139 248.19H29.306L26.698 240.844H26.6298L24.0219 248.19ZM24.431 244.781H28.8969V245.719H24.431V244.781ZM31.7733 239.463H33.0347L36.0006 246.707H36.1028L39.0687 239.463H40.3301V248.19H39.3415V241.56H39.2562L36.529 248.19H35.5744L32.8472 241.56H32.7619V248.19H31.7733V239.463Z" fill="white"/>
<rect x="40" y="228" width="32" height="32" rx="16" fill="white"/>
<circle cx="56" cy="244" r="15.5" fill="#1FD7C1" stroke="white"/>
<path d="M48.1327 248.19V239.463H53.3997V240.401H49.1895V243.35H53.127V244.287H49.1895V247.253H53.4679V248.19H48.1327ZM55.3045 239.463H56.5659L59.5318 246.707H59.6341L62.6 239.463H63.8614V248.19H62.8727V241.56H62.7875L60.0602 248.19H59.1057L56.3784 241.56H56.2932V248.19H55.3045V239.463Z" fill="white"/>
<rect x="64" y="228" width="32" height="32" rx="16" fill="white"/>
<circle cx="80" cy="244" r="15.5" fill="#462F8A" stroke="white"/>
<path d="M71.8163 239.463H73.0776L76.0435 246.707H76.1458L79.1117 239.463H80.3731V248.19H79.3844V241.56H79.2992L76.5719 248.19H75.6174L72.8901 241.56H72.8049V248.19H71.8163V239.463ZM82.492 248.19V239.463H85.5432C86.1511 239.463 86.6526 239.568 87.0474 239.778C87.4423 239.986 87.7364 240.266 87.9295 240.618C88.1227 240.967 88.2193 241.355 88.2193 241.781C88.2193 242.156 88.1526 242.466 88.019 242.71C87.8883 242.955 87.7151 243.148 87.4991 243.29C87.2861 243.432 87.0545 243.537 86.8045 243.605V243.69C87.0716 243.707 87.3401 243.801 87.6099 243.972C87.8798 244.142 88.1057 244.386 88.2875 244.705C88.4693 245.023 88.5602 245.412 88.5602 245.872C88.5602 246.31 88.4608 246.703 88.2619 247.053C88.0631 247.402 87.7491 247.679 87.3202 247.884C86.8912 248.088 86.3329 248.19 85.6454 248.19H82.492ZM83.5489 247.253H85.6454C86.3358 247.253 86.8258 247.119 87.1156 246.852C87.4082 246.582 87.5545 246.256 87.5545 245.872C87.5545 245.577 87.4793 245.304 87.3287 245.054C87.1781 244.801 86.9636 244.6 86.6852 244.449C86.4068 244.296 86.0773 244.219 85.6966 244.219H83.5489V247.253ZM83.5489 243.298H85.5091C85.8273 243.298 86.1142 243.236 86.3699 243.111C86.6284 242.986 86.8329 242.81 86.9835 242.582C87.1369 242.355 87.2136 242.088 87.2136 241.781C87.2136 241.398 87.0801 241.073 86.8131 240.805C86.546 240.536 86.1227 240.401 85.5432 240.401H83.5489V243.298Z" fill="white"/>
<g clip-path="url(#clip0_171427_3210)">
<path d="M227.568 247.167H212.432C212.184 247.167 211.948 247.068 211.773 246.892C211.598 246.716 211.5 246.477 211.5 246.228C211.5 245.979 211.598 245.741 211.773 245.565C211.948 245.389 212.184 245.29 212.432 245.29H227.568C227.816 245.29 228.052 245.389 228.227 245.565C228.402 245.741 228.5 245.979 228.5 246.228C228.5 246.477 228.402 246.716 228.227 246.892C228.052 247.068 227.816 247.167 227.568 247.167Z" fill="#FFA800"/>
<path d="M227.568 242.71H212.432C212.184 242.71 211.948 242.611 211.773 242.435C211.598 242.259 211.5 242.02 211.5 241.772C211.5 241.523 211.598 241.284 211.773 241.108C211.948 240.932 212.184 240.833 212.432 240.833H227.568C227.816 240.833 228.052 240.932 228.227 241.108C228.402 241.284 228.5 241.523 228.5 241.772C228.5 242.02 228.402 242.259 228.227 242.435C228.052 242.611 227.816 242.71 227.568 242.71Z" fill="#FFA800"/>
</g>
</g>
<defs>
<filter id="filter0_d_171427_3210" x="-13" y="0" width="278" height="289" filterUnits="userSpaceOnUse" color-interpolation-filters="sRGB">
<feFlood flood-opacity="0" result="BackgroundImageFix"/>
<feColorMatrix in="SourceAlpha" type="matrix" values="0 0 0 0 0 0 0 0 0 0 0 0 0 0 0 0 0 0 127 0" result="hardAlpha"/>
<feMorphology radius="3" operator="dilate" in="SourceAlpha" result="effect1_dropShadow_171427_3210"/>
<feOffset/>
<feGaussianBlur stdDeviation="5"/>
<feComposite in2="hardAlpha" operator="out"/>
<feColorMatrix type="matrix" values="0 0 0 0 0 0 0 0 0 0 0 0 0 0 0 0 0 0 0.08 0"/>
<feBlend mode="normal" in2="BackgroundImageFix" result="effect1_dropShadow_171427_3210"/>
<feBlend mode="normal" in="SourceGraphic" in2="effect1_dropShadow_171427_3210" result="shape"/>
</filter>
<clipPath id="clip0_171427_3210">
<rect width="17" height="6.33333" fill="white" transform="translate(211.5 240.833)"/>
</clipPath>
</defs>
</svg>
