<svg width="265" height="270" viewBox="0 0 265 270" fill="none" xmlns="http://www.w3.org/2000/svg">
<g filter="url(#filter0_d_171427_1485)">
<rect y="13" width="252" height="244" rx="24" fill="white" shape-rendering="crispEdges"/>
<rect x="16" y="29" width="113" height="27" rx="8" fill="#0038FF"/>
<path d="M41.0455 36.3636H42.4545V44.0682C42.4545 44.8636 42.267 45.5739 41.892 46.1989C41.5208 46.8201 40.9962 47.3106 40.3182 47.6705C39.6402 48.0265 38.8447 48.2045 37.9318 48.2045C37.0189 48.2045 36.2235 48.0265 35.5455 47.6705C34.8674 47.3106 34.3409 46.8201 33.9659 46.1989C33.5947 45.5739 33.4091 44.8636 33.4091 44.0682V36.3636H34.8182V43.9545C34.8182 44.5227 34.9432 45.0284 35.1932 45.4716C35.4432 45.911 35.7992 46.2576 36.2614 46.5114C36.7273 46.7614 37.2841 46.8864 37.9318 46.8864C38.5795 46.8864 39.1364 46.7614 39.6023 46.5114C40.0682 46.2576 40.4242 45.911 40.6705 45.4716C40.9205 45.0284 41.0455 44.5227 41.0455 43.9545V36.3636ZM51.2685 41.2273L50.0639 41.5682C49.9882 41.3674 49.8764 41.1723 49.7287 40.983C49.5848 40.7898 49.3878 40.6307 49.1378 40.5057C48.8878 40.3807 48.5677 40.3182 48.1776 40.3182C47.6435 40.3182 47.1984 40.4413 46.8423 40.6875C46.4901 40.9299 46.3139 41.2386 46.3139 41.6136C46.3139 41.947 46.4351 42.2102 46.6776 42.4034C46.92 42.5966 47.2988 42.7576 47.8139 42.8864L49.1094 43.2045C49.8897 43.3939 50.4711 43.6837 50.8537 44.0739C51.2363 44.4602 51.4276 44.9583 51.4276 45.5682C51.4276 46.0682 51.2836 46.5152 50.9957 46.9091C50.7116 47.303 50.3139 47.6136 49.8026 47.8409C49.2912 48.0682 48.6965 48.1818 48.0185 48.1818C47.1283 48.1818 46.3916 47.9886 45.8082 47.6023C45.2249 47.2159 44.8556 46.6515 44.7003 45.9091L45.973 45.5909C46.0942 46.0606 46.3234 46.4129 46.6605 46.6477C47.0014 46.8826 47.4465 47 47.9957 47C48.6207 47 49.117 46.8674 49.4844 46.6023C49.8556 46.3333 50.0412 46.0114 50.0412 45.6364C50.0412 45.3333 49.9351 45.0795 49.723 44.875C49.5109 44.6667 49.1851 44.5114 48.7457 44.4091L47.2912 44.0682C46.492 43.8788 45.9048 43.5852 45.5298 43.1875C45.1586 42.786 44.973 42.2841 44.973 41.6818C44.973 41.1894 45.1113 40.7538 45.3878 40.375C45.6681 39.9962 46.0488 39.6989 46.5298 39.483C47.0147 39.267 47.5639 39.1591 48.1776 39.1591C49.0412 39.1591 49.7192 39.3485 50.2116 39.7273C50.7079 40.1061 51.0601 40.6061 51.2685 41.2273ZM57.1051 48.1818C56.2642 48.1818 55.5388 47.9962 54.929 47.625C54.3229 47.25 53.8551 46.7273 53.5256 46.0568C53.1998 45.3826 53.0369 44.5985 53.0369 43.7045C53.0369 42.8106 53.1998 42.0227 53.5256 41.3409C53.8551 40.6553 54.3134 40.1212 54.9006 39.7386C55.4915 39.3523 56.1809 39.1591 56.9688 39.1591C57.4233 39.1591 57.8722 39.2348 58.3153 39.3864C58.7585 39.5379 59.1619 39.7841 59.5256 40.125C59.8892 40.4621 60.179 40.9091 60.3949 41.4659C60.6108 42.0227 60.7188 42.7083 60.7188 43.5227V44.0909L53.9915 44.0909V42.9318H59.3551C59.3551 42.4394 59.2566 42 59.0597 41.6136C58.8665 41.2273 58.59 40.9223 58.2301 40.6989C57.8741 40.4754 57.4536 40.3636 56.9688 40.3636C56.4347 40.3636 55.9725 40.4962 55.5824 40.7614C55.196 41.0227 54.8987 41.3636 54.6903 41.7841C54.482 42.2045 54.3778 42.6553 54.3778 43.1364V43.9091C54.3778 44.5682 54.4915 45.1269 54.7188 45.5852C54.9498 46.0398 55.2699 46.3864 55.679 46.625C56.0881 46.8598 56.5634 46.9773 57.1051 46.9773C57.4574 46.9773 57.7756 46.928 58.0597 46.8295C58.3475 46.7273 58.5956 46.5758 58.804 46.375C59.0123 46.1705 59.1733 45.9167 59.2869 45.6136L60.5824 45.9773C60.446 46.4167 60.2169 46.803 59.8949 47.1364C59.5729 47.4659 59.1752 47.7235 58.7017 47.9091C58.2282 48.0909 57.696 48.1818 57.1051 48.1818ZM62.7585 48V39.2727H64.054V40.5909H64.1449C64.304 40.1591 64.5919 39.8087 65.0085 39.5398C65.4252 39.2708 65.8949 39.1364 66.4176 39.1364C66.5161 39.1364 66.6392 39.1383 66.7869 39.142C66.9347 39.1458 67.0464 39.1515 67.1222 39.1591V40.5227C67.0767 40.5114 66.9725 40.4943 66.8097 40.4716C66.6506 40.4451 66.482 40.4318 66.304 40.4318C65.8797 40.4318 65.5009 40.5208 65.1676 40.6989C64.8381 40.8731 64.5767 41.1155 64.3835 41.4261C64.1941 41.733 64.0994 42.0833 64.0994 42.4773V48H62.7585ZM79.7571 39.2727C79.6889 38.697 79.4124 38.25 78.9276 37.9318C78.4427 37.6136 77.848 37.4545 77.1435 37.4545C76.6283 37.4545 76.1776 37.5379 75.7912 37.7045C75.4086 37.8712 75.1094 38.1004 74.8935 38.392C74.6813 38.6837 74.5753 39.0152 74.5753 39.3864C74.5753 39.697 74.6491 39.964 74.7969 40.1875C74.9484 40.4072 75.1416 40.5909 75.3764 40.7386C75.6113 40.8826 75.8575 41.0019 76.1151 41.0966C76.3726 41.1875 76.6094 41.2614 76.8253 41.3182L78.0071 41.6364C78.3101 41.7159 78.6473 41.8258 79.0185 41.9659C79.3935 42.1061 79.7514 42.2973 80.0923 42.5398C80.437 42.7784 80.7211 43.0852 80.9446 43.4602C81.1681 43.8352 81.2798 44.2955 81.2798 44.8409C81.2798 45.4697 81.1151 46.0379 80.7855 46.5455C80.4598 47.053 79.9825 47.4564 79.3537 47.7557C78.7287 48.0549 77.9692 48.2045 77.0753 48.2045C76.242 48.2045 75.5204 48.0701 74.9105 47.8011C74.3045 47.5322 73.8272 47.1572 73.4787 46.6761C73.134 46.1951 72.9389 45.6364 72.8935 45H74.348C74.3859 45.4394 74.5336 45.803 74.7912 46.0909C75.0526 46.375 75.3821 46.5871 75.7798 46.7273C76.1813 46.8636 76.6132 46.9318 77.0753 46.9318C77.6132 46.9318 78.0961 46.8447 78.5241 46.6705C78.9522 46.4924 79.2912 46.2462 79.5412 45.9318C79.7912 45.6136 79.9162 45.2424 79.9162 44.8182C79.9162 44.4318 79.8082 44.1174 79.5923 43.875C79.3764 43.6326 79.0923 43.4356 78.7401 43.2841C78.3878 43.1326 78.0071 43 77.598 42.8864L76.1662 42.4773C75.2571 42.2159 74.5374 41.8428 74.0071 41.358C73.4768 40.8731 73.2116 40.2386 73.2116 39.4545C73.2116 38.803 73.3878 38.2348 73.7401 37.75C74.0961 37.2614 74.5734 36.8826 75.1719 36.6136C75.7741 36.3409 76.4465 36.2045 77.1889 36.2045C77.9389 36.2045 78.6056 36.339 79.1889 36.608C79.7723 36.8731 80.2344 37.2367 80.5753 37.6989C80.92 38.161 81.1018 38.6856 81.1207 39.2727H79.7571ZM87.2102 39.2727V40.4091H82.6875V39.2727H87.2102ZM84.0057 37.1818H85.3466V45.5C85.3466 45.8788 85.4015 46.1629 85.5114 46.3523C85.625 46.5379 85.7689 46.6629 85.9432 46.7273C86.1212 46.7879 86.3087 46.8182 86.5057 46.8182C86.6534 46.8182 86.7746 46.8106 86.8693 46.7955C86.964 46.7765 87.0398 46.7614 87.0966 46.75L87.3693 47.9545C87.2784 47.9886 87.1515 48.0227 86.9886 48.0568C86.8258 48.0947 86.6193 48.1136 86.3693 48.1136C85.9905 48.1136 85.6193 48.0322 85.2557 47.8693C84.8958 47.7064 84.5966 47.4583 84.358 47.125C84.1231 46.7917 84.0057 46.3712 84.0057 45.8636V37.1818ZM92.679 48.1818C91.8911 48.1818 91.1998 47.9943 90.6051 47.6193C90.0142 47.2443 89.5521 46.7197 89.2188 46.0455C88.8892 45.3712 88.7244 44.5833 88.7244 43.6818C88.7244 42.7727 88.8892 41.9792 89.2188 41.3011C89.5521 40.6231 90.0142 40.0966 90.6051 39.7216C91.1998 39.3466 91.8911 39.1591 92.679 39.1591C93.4669 39.1591 94.1563 39.3466 94.7472 39.7216C95.3419 40.0966 95.804 40.6231 96.1335 41.3011C96.4669 41.9792 96.6335 42.7727 96.6335 43.6818C96.6335 44.5833 96.4669 45.3712 96.1335 46.0455C95.804 46.7197 95.3419 47.2443 94.7472 47.6193C94.1563 47.9943 93.4669 48.1818 92.679 48.1818ZM92.679 46.9773C93.2775 46.9773 93.7699 46.8239 94.1562 46.517C94.5426 46.2102 94.8286 45.8068 95.0142 45.3068C95.1998 44.8068 95.2926 44.2652 95.2926 43.6818C95.2926 43.0985 95.1998 42.5549 95.0142 42.0511C94.8286 41.5473 94.5426 41.1402 94.1562 40.8295C93.7699 40.5189 93.2775 40.3636 92.679 40.3636C92.0805 40.3636 91.5881 40.5189 91.2017 40.8295C90.8153 41.1402 90.5294 41.5473 90.3438 42.0511C90.1581 42.5549 90.0653 43.0985 90.0653 43.6818C90.0653 44.2652 90.1581 44.8068 90.3438 45.3068C90.5294 45.8068 90.8153 46.2102 91.2017 46.517C91.5881 46.8239 92.0805 46.9773 92.679 46.9773ZM98.6804 48V39.2727H99.9759V40.5909H100.067C100.226 40.1591 100.514 39.8087 100.93 39.5398C101.347 39.2708 101.817 39.1364 102.339 39.1364C102.438 39.1364 102.561 39.1383 102.709 39.142C102.857 39.1458 102.968 39.1515 103.044 39.1591V40.5227C102.999 40.5114 102.894 40.4943 102.732 40.4716C102.572 40.4451 102.404 40.4318 102.226 40.4318C101.802 40.4318 101.423 40.5208 101.089 40.6989C100.76 40.8731 100.499 41.1155 100.305 41.4261C100.116 41.733 100.021 42.0833 100.021 42.4773V48H98.6804ZM105.763 51.2727C105.536 51.2727 105.333 51.2538 105.155 51.2159C104.977 51.1818 104.854 51.1477 104.786 51.1136L105.126 49.9318C105.452 50.0152 105.74 50.0455 105.99 50.0227C106.24 50 106.462 49.8883 106.655 49.6875C106.852 49.4905 107.032 49.1705 107.195 48.7273L107.445 48.0455L104.217 39.2727H105.672L108.081 46.2273H108.172L110.581 39.2727H112.036L108.331 49.2727C108.164 49.7235 107.958 50.0966 107.712 50.392C107.465 50.6913 107.179 50.9129 106.854 51.0568C106.532 51.2008 106.168 51.2727 105.763 51.2727Z" fill="white"/>
<path d="M27.2784 87.4375H24.7898C24.7443 87.1155 24.6515 86.8295 24.5114 86.5795C24.3712 86.3258 24.1913 86.1098 23.9716 85.9318C23.7519 85.7538 23.4981 85.6174 23.2102 85.5227C22.9261 85.428 22.6174 85.3807 22.2841 85.3807C21.6818 85.3807 21.1572 85.5303 20.7102 85.8295C20.2633 86.125 19.9167 86.5568 19.6705 87.125C19.4242 87.6894 19.3011 88.375 19.3011 89.1818C19.3011 90.0114 19.4242 90.7083 19.6705 91.2727C19.9205 91.8371 20.2689 92.2633 20.7159 92.5511C21.1629 92.839 21.6799 92.983 22.267 92.983C22.5966 92.983 22.9015 92.9394 23.1818 92.8523C23.4659 92.7652 23.7178 92.6383 23.9375 92.4716C24.1572 92.3011 24.339 92.0947 24.483 91.8523C24.6307 91.6098 24.733 91.3333 24.7898 91.0227L27.2784 91.0341C27.214 91.5682 27.053 92.0833 26.7955 92.5795C26.5417 93.072 26.1989 93.5133 25.767 93.9034C25.339 94.2898 24.8277 94.5966 24.233 94.8239C23.642 95.0473 22.9735 95.1591 22.2273 95.1591C21.1894 95.1591 20.2614 94.9242 19.4432 94.4545C18.6288 93.9848 17.9848 93.3049 17.5114 92.4148C17.0417 91.5246 16.8068 90.447 16.8068 89.1818C16.8068 87.9129 17.0455 86.8333 17.5227 85.9432C18 85.053 18.6477 84.375 19.4659 83.9091C20.2841 83.4394 21.2045 83.2045 22.2273 83.2045C22.9015 83.2045 23.5265 83.2992 24.1023 83.4886C24.6818 83.678 25.1951 83.9545 25.642 84.3182C26.089 84.678 26.4527 85.1193 26.733 85.642C27.017 86.1648 27.1989 86.7633 27.2784 87.4375ZM32.9403 95.1705C32.0578 95.1705 31.2945 94.983 30.6506 94.608C30.0104 94.2292 29.5161 93.7027 29.1676 93.0284C28.8191 92.3504 28.6449 91.5644 28.6449 90.6705C28.6449 89.7689 28.8191 88.9811 29.1676 88.3068C29.5161 87.6288 30.0104 87.1023 30.6506 86.7273C31.2945 86.3485 32.0578 86.1591 32.9403 86.1591C33.8229 86.1591 34.5843 86.3485 35.2244 86.7273C35.8684 87.1023 36.3646 87.6288 36.7131 88.3068C37.0616 88.9811 37.2358 89.7689 37.2358 90.6705C37.2358 91.5644 37.0616 92.3504 36.7131 93.0284C36.3646 93.7027 35.8684 94.2292 35.2244 94.608C34.5843 94.983 33.8229 95.1705 32.9403 95.1705ZM32.9517 93.2955C33.3532 93.2955 33.6884 93.1818 33.9574 92.9545C34.2263 92.7235 34.429 92.4091 34.5653 92.0114C34.7055 91.6136 34.7756 91.161 34.7756 90.6534C34.7756 90.1458 34.7055 89.6932 34.5653 89.2955C34.429 88.8977 34.2263 88.5833 33.9574 88.3523C33.6884 88.1212 33.3532 88.0057 32.9517 88.0057C32.5464 88.0057 32.2055 88.1212 31.929 88.3523C31.6563 88.5833 31.4498 88.8977 31.3097 89.2955C31.1733 89.6932 31.1051 90.1458 31.1051 90.6534C31.1051 91.161 31.1733 91.6136 31.3097 92.0114C31.4498 92.4091 31.6563 92.7235 31.929 92.9545C32.2055 93.1818 32.5464 93.2955 32.9517 93.2955ZM41.2301 89.9545V95H38.8097V86.2727H41.1165V87.8125H41.2188C41.4119 87.3049 41.7358 86.9034 42.1903 86.608C42.6449 86.3087 43.196 86.1591 43.8438 86.1591C44.4498 86.1591 44.9782 86.2917 45.429 86.5568C45.8797 86.822 46.2301 87.2008 46.4801 87.6932C46.7301 88.1818 46.8551 88.7652 46.8551 89.4432V95H44.4347V89.875C44.4384 89.3409 44.3021 88.9242 44.0256 88.625C43.7491 88.322 43.3684 88.1705 42.8835 88.1705C42.5578 88.1705 42.2699 88.2405 42.0199 88.3807C41.7737 88.5208 41.5805 88.7254 41.4403 88.9943C41.304 89.2595 41.2339 89.5795 41.2301 89.9545ZM53.4048 86.2727V88.0909H48.1491V86.2727H53.4048ZM49.3423 84.1818H51.7628V92.3182C51.7628 92.5417 51.7969 92.7159 51.8651 92.8409C51.9332 92.9621 52.0279 93.0473 52.1491 93.0966C52.2741 93.1458 52.4181 93.1705 52.581 93.1705C52.6946 93.1705 52.8082 93.161 52.9219 93.142C53.0355 93.1193 53.1226 93.1023 53.1832 93.0909L53.5639 94.892C53.4427 94.9299 53.2723 94.9735 53.0526 95.0227C52.8329 95.0758 52.5658 95.108 52.2514 95.1193C51.6681 95.142 51.1567 95.0644 50.7173 94.8864C50.2817 94.7083 49.9427 94.4318 49.7003 94.0568C49.4579 93.6818 49.3385 93.2083 49.3423 92.6364V84.1818ZM57.4702 95.1648C56.9134 95.1648 56.4171 95.0682 55.9815 94.875C55.5459 94.678 55.2012 94.3883 54.9474 94.0057C54.6974 93.6193 54.5724 93.1383 54.5724 92.5625C54.5724 92.0777 54.6615 91.6705 54.8395 91.3409C55.0175 91.0114 55.2599 90.7462 55.5668 90.5455C55.8736 90.3447 56.2221 90.1932 56.6122 90.0909C57.0062 89.9886 57.419 89.9167 57.8509 89.875C58.3584 89.822 58.7675 89.7727 59.0781 89.7273C59.3887 89.678 59.6141 89.6061 59.7543 89.5114C59.8944 89.4167 59.9645 89.2765 59.9645 89.0909V89.0568C59.9645 88.697 59.8509 88.4186 59.6236 88.2216C59.4001 88.0246 59.0819 87.9261 58.669 87.9261C58.2334 87.9261 57.8868 88.0227 57.6293 88.2159C57.3717 88.4053 57.2012 88.6439 57.1179 88.9318L54.8793 88.75C54.9929 88.2197 55.2164 87.7614 55.5497 87.375C55.883 86.9848 56.313 86.6856 56.8395 86.4773C57.3698 86.2652 57.9834 86.1591 58.6804 86.1591C59.1652 86.1591 59.6293 86.2159 60.0724 86.3295C60.5194 86.4432 60.9152 86.6193 61.2599 86.858C61.6084 87.0966 61.883 87.4034 62.0838 87.7784C62.2846 88.1496 62.3849 88.5947 62.3849 89.1136V95H60.0895V93.7898H60.0213C59.8812 94.0625 59.6937 94.303 59.4588 94.5114C59.224 94.7159 58.9418 94.8769 58.6122 94.9943C58.2827 95.108 57.902 95.1648 57.4702 95.1648ZM58.1634 93.4943C58.5194 93.4943 58.8338 93.4242 59.1065 93.2841C59.3793 93.1402 59.5933 92.947 59.7486 92.7045C59.9039 92.4621 59.9815 92.1875 59.9815 91.8807V90.9545C59.9058 91.0038 59.8016 91.0492 59.669 91.0909C59.5402 91.1288 59.3944 91.1648 59.2315 91.1989C59.0687 91.2292 58.9058 91.2576 58.7429 91.2841C58.58 91.3068 58.4323 91.3277 58.2997 91.3466C58.0156 91.3883 57.7675 91.4545 57.5554 91.5455C57.3433 91.6364 57.1785 91.7595 57.0611 91.9148C56.9437 92.0663 56.8849 92.2557 56.8849 92.483C56.8849 92.8125 57.0043 93.0644 57.2429 93.2386C57.4853 93.4091 57.7921 93.4943 58.1634 93.4943ZM68.206 95.1705C67.312 95.1705 66.5431 94.9811 65.8991 94.6023C65.259 94.2197 64.7666 93.6894 64.4219 93.0114C64.081 92.3333 63.9105 91.553 63.9105 90.6705C63.9105 89.7765 64.0829 88.9924 64.4276 88.3182C64.776 87.6402 65.2704 87.1117 65.9105 86.733C66.5507 86.3504 67.312 86.1591 68.1946 86.1591C68.956 86.1591 69.6226 86.2973 70.1946 86.5739C70.7666 86.8504 71.2192 87.2386 71.5526 87.7386C71.8859 88.2386 72.0696 88.8258 72.1037 89.5H69.8196C69.7552 89.0644 69.5848 88.714 69.3082 88.4489C69.0355 88.1799 68.6776 88.0455 68.2344 88.0455C67.8594 88.0455 67.5317 88.1477 67.2514 88.3523C66.9749 88.553 66.759 88.8466 66.6037 89.233C66.4484 89.6193 66.3707 90.0871 66.3707 90.6364C66.3707 91.1932 66.4465 91.6667 66.598 92.0568C66.7533 92.447 66.9711 92.7443 67.2514 92.9489C67.5317 93.1534 67.8594 93.2557 68.2344 93.2557C68.5109 93.2557 68.759 93.1989 68.9787 93.0852C69.2022 92.9716 69.3859 92.8068 69.5298 92.5909C69.6776 92.3712 69.7741 92.108 69.8196 91.8011H72.1037C72.0658 92.4678 71.884 93.0549 71.5582 93.5625C71.2363 94.0663 70.7912 94.4602 70.223 94.7443C69.6548 95.0284 68.9825 95.1705 68.206 95.1705ZM78.2955 86.2727V88.0909H73.0398V86.2727H78.2955ZM74.233 84.1818H76.6534V92.3182C76.6534 92.5417 76.6875 92.7159 76.7557 92.8409C76.8239 92.9621 76.9186 93.0473 77.0398 93.0966C77.1648 93.1458 77.3087 93.1705 77.4716 93.1705C77.5852 93.1705 77.6989 93.161 77.8125 93.142C77.9261 93.1193 78.0133 93.1023 78.0739 93.0909L78.4545 94.892C78.3333 94.9299 78.1629 94.9735 77.9432 95.0227C77.7235 95.0758 77.4564 95.108 77.142 95.1193C76.5587 95.142 76.0473 95.0644 75.608 94.8864C75.1723 94.7083 74.8333 94.4318 74.5909 94.0568C74.3485 93.6818 74.2292 93.2083 74.233 92.6364V84.1818ZM83.6207 95V83.3636H91.3253V85.392H86.081V88.1648H90.8139V90.1932H86.081V95H83.6207ZM96.2372 95.1705C95.3546 95.1705 94.5914 94.983 93.9474 94.608C93.3073 94.2292 92.813 93.7027 92.4645 93.0284C92.116 92.3504 91.9418 91.5644 91.9418 90.6705C91.9418 89.7689 92.116 88.9811 92.4645 88.3068C92.813 87.6288 93.3073 87.1023 93.9474 86.7273C94.5914 86.3485 95.3546 86.1591 96.2372 86.1591C97.1198 86.1591 97.8812 86.3485 98.5213 86.7273C99.1652 87.1023 99.6615 87.6288 100.01 88.3068C100.358 88.9811 100.533 89.7689 100.533 90.6705C100.533 91.5644 100.358 92.3504 100.01 93.0284C99.6615 93.7027 99.1652 94.2292 98.5213 94.608C97.8812 94.983 97.1198 95.1705 96.2372 95.1705ZM96.2486 93.2955C96.6501 93.2955 96.9853 93.1818 97.2543 92.9545C97.5232 92.7235 97.7259 92.4091 97.8622 92.0114C98.0024 91.6136 98.0724 91.161 98.0724 90.6534C98.0724 90.1458 98.0024 89.6932 97.8622 89.2955C97.7259 88.8977 97.5232 88.5833 97.2543 88.3523C96.9853 88.1212 96.6501 88.0057 96.2486 88.0057C95.8433 88.0057 95.5024 88.1212 95.2259 88.3523C94.9531 88.5833 94.7467 88.8977 94.6065 89.2955C94.4702 89.6932 94.402 90.1458 94.402 90.6534C94.402 91.161 94.4702 91.6136 94.6065 92.0114C94.7467 92.4091 94.9531 92.7235 95.2259 92.9545C95.5024 93.1818 95.8433 93.2955 96.2486 93.2955ZM102.107 95V86.2727H104.453V87.7955H104.544C104.703 87.2538 104.97 86.8447 105.345 86.5682C105.72 86.2879 106.152 86.1477 106.641 86.1477C106.762 86.1477 106.893 86.1553 107.033 86.1705C107.173 86.1856 107.296 86.2064 107.402 86.233V88.3807C107.288 88.3466 107.131 88.3163 106.93 88.2898C106.73 88.2633 106.546 88.25 106.379 88.25C106.023 88.25 105.705 88.3277 105.425 88.483C105.148 88.6345 104.929 88.8466 104.766 89.1193C104.607 89.392 104.527 89.7064 104.527 90.0625V95H102.107ZM108.653 95V86.2727H110.96V87.8125H111.062C111.244 87.3011 111.547 86.8977 111.972 86.6023C112.396 86.3068 112.903 86.1591 113.494 86.1591C114.093 86.1591 114.602 86.3087 115.023 86.608C115.443 86.9034 115.723 87.3049 115.864 87.8125H115.955C116.133 87.3125 116.455 86.9129 116.92 86.6136C117.39 86.3106 117.945 86.1591 118.585 86.1591C119.4 86.1591 120.061 86.4186 120.568 86.9375C121.08 87.4527 121.335 88.1837 121.335 89.1307V95H118.92V89.608C118.92 89.1231 118.792 88.7595 118.534 88.517C118.277 88.2746 117.955 88.1534 117.568 88.1534C117.129 88.1534 116.786 88.2936 116.54 88.5739C116.294 88.8504 116.17 89.2159 116.17 89.6705V95H113.824V89.5568C113.824 89.1288 113.701 88.7879 113.455 88.5341C113.212 88.2803 112.892 88.1534 112.494 88.1534C112.225 88.1534 111.983 88.2216 111.767 88.358C111.555 88.4905 111.386 88.678 111.261 88.9205C111.136 89.1591 111.074 89.4394 111.074 89.7614V95H108.653ZM130.518 95.1705C129.715 95.1705 129.022 95.0265 128.439 94.7386C127.856 94.4508 127.407 94.0606 127.092 93.5682C126.782 93.072 126.626 92.5189 126.626 91.9091C126.626 91.4545 126.717 91.0511 126.899 90.6989C127.081 90.3466 127.335 90.0227 127.661 89.7273C127.986 89.428 128.365 89.1307 128.797 88.8352L131.053 87.3523C131.344 87.1667 131.558 86.9716 131.695 86.767C131.831 86.5587 131.899 86.3333 131.899 86.0909C131.899 85.8598 131.806 85.6458 131.621 85.4489C131.435 85.2519 131.172 85.1553 130.831 85.1591C130.604 85.1591 130.407 85.2102 130.24 85.3125C130.073 85.411 129.943 85.5417 129.848 85.7045C129.757 85.8636 129.712 86.0417 129.712 86.2386C129.712 86.4811 129.78 86.7273 129.916 86.9773C130.053 87.2273 130.234 87.4924 130.462 87.7727C130.689 88.0492 130.937 88.3485 131.206 88.6705L136.723 95H134.2L129.598 89.875C129.295 89.5303 128.992 89.1705 128.689 88.7955C128.39 88.4167 128.14 88.0152 127.939 87.5909C127.738 87.1629 127.638 86.6989 127.638 86.1989C127.638 85.6345 127.768 85.1269 128.03 84.6761C128.295 84.2254 128.666 83.8693 129.143 83.608C129.621 83.3428 130.178 83.2102 130.814 83.2102C131.435 83.2102 131.971 83.3371 132.422 83.5909C132.876 83.8409 133.225 84.1742 133.467 84.5909C133.714 85.0038 133.837 85.4583 133.837 85.9545C133.837 86.5038 133.7 87.0019 133.428 87.4489C133.159 87.892 132.78 88.2898 132.291 88.642L129.916 90.3523C129.594 90.5871 129.356 90.8277 129.2 91.0739C129.049 91.3163 128.973 91.5492 128.973 91.7727C128.973 92.0492 129.041 92.2973 129.178 92.517C129.314 92.7367 129.507 92.911 129.757 93.0398C130.007 93.1648 130.301 93.2273 130.638 93.2273C131.047 93.2273 131.45 93.1345 131.848 92.9489C132.25 92.7595 132.613 92.4924 132.939 92.1477C133.268 91.7992 133.532 91.3864 133.729 90.9091C133.926 90.4318 134.024 89.9034 134.024 89.3239H136.03C136.03 90.036 135.952 90.678 135.797 91.25C135.642 91.8182 135.426 92.3144 135.149 92.7386C134.873 93.1591 134.556 93.5038 134.2 93.7727C134.087 93.8447 133.977 93.9129 133.871 93.9773C133.765 94.0417 133.655 94.1098 133.541 94.1818C133.109 94.5303 132.626 94.7822 132.092 94.9375C131.562 95.0928 131.037 95.1705 130.518 95.1705ZM143.94 83.3636V95H141.48V83.3636H143.94ZM145.919 95V86.2727H148.226V87.8125H148.328C148.51 87.3011 148.813 86.8977 149.237 86.6023C149.661 86.3068 150.169 86.1591 150.76 86.1591C151.358 86.1591 151.868 86.3087 152.288 86.608C152.709 86.9034 152.989 87.3049 153.129 87.8125H153.22C153.398 87.3125 153.72 86.9129 154.186 86.6136C154.656 86.3106 155.211 86.1591 155.851 86.1591C156.665 86.1591 157.326 86.4186 157.834 86.9375C158.345 87.4527 158.601 88.1837 158.601 89.1307V95H156.186V89.608C156.186 89.1231 156.057 88.7595 155.8 88.517C155.542 88.2746 155.22 88.1534 154.834 88.1534C154.394 88.1534 154.052 88.2936 153.805 88.5739C153.559 88.8504 153.436 89.2159 153.436 89.6705V95H151.089V89.5568C151.089 89.1288 150.966 88.7879 150.72 88.5341C150.478 88.2803 150.158 88.1534 149.76 88.1534C149.491 88.1534 149.249 88.2216 149.033 88.358C148.821 88.4905 148.652 88.678 148.527 88.9205C148.402 89.1591 148.339 89.4394 148.339 89.7614V95H145.919ZM160.513 98.2727V86.2727H162.899V87.7386H163.007C163.113 87.5038 163.267 87.2652 163.467 87.0227C163.672 86.7765 163.937 86.572 164.263 86.4091C164.592 86.2424 165.001 86.1591 165.49 86.1591C166.126 86.1591 166.714 86.3258 167.251 86.6591C167.789 86.9886 168.219 87.4867 168.541 88.1534C168.863 88.8163 169.024 89.6477 169.024 90.6477C169.024 91.6212 168.867 92.4432 168.553 93.1136C168.242 93.7803 167.818 94.286 167.28 94.6307C166.746 94.9716 166.147 95.142 165.484 95.142C165.015 95.142 164.615 95.0644 164.286 94.9091C163.96 94.7538 163.693 94.5587 163.484 94.3239C163.276 94.0852 163.117 93.8447 163.007 93.6023H162.933V98.2727H160.513ZM162.882 90.6364C162.882 91.1553 162.954 91.608 163.098 91.9943C163.242 92.3807 163.45 92.6818 163.723 92.8977C163.996 93.1098 164.327 93.2159 164.717 93.2159C165.111 93.2159 165.445 93.108 165.717 92.892C165.99 92.6723 166.196 92.3693 166.337 91.983C166.481 91.5928 166.553 91.1439 166.553 90.6364C166.553 90.1326 166.482 89.6894 166.342 89.3068C166.202 88.9242 165.996 88.625 165.723 88.4091C165.45 88.1932 165.115 88.0852 164.717 88.0852C164.323 88.0852 163.99 88.1894 163.717 88.3977C163.448 88.6061 163.242 88.9015 163.098 89.2841C162.954 89.6667 162.882 90.1174 162.882 90.6364ZM170.638 95V86.2727H172.984V87.7955H173.075C173.234 87.2538 173.501 86.8447 173.876 86.5682C174.251 86.2879 174.683 86.1477 175.172 86.1477C175.293 86.1477 175.424 86.1553 175.564 86.1705C175.704 86.1856 175.827 86.2064 175.933 86.233V88.3807C175.82 88.3466 175.662 88.3163 175.462 88.2898C175.261 88.2633 175.077 88.25 174.911 88.25C174.554 88.25 174.236 88.3277 173.956 88.483C173.679 88.6345 173.46 88.8466 173.297 89.1193C173.138 89.392 173.058 89.7064 173.058 90.0625V95H170.638ZM177.185 95V86.2727H179.605V95H177.185ZM178.401 85.1477C178.041 85.1477 177.732 85.0284 177.474 84.7898C177.221 84.5473 177.094 84.2576 177.094 83.9205C177.094 83.5871 177.221 83.3011 177.474 83.0625C177.732 82.8201 178.041 82.6989 178.401 82.6989C178.76 82.6989 179.067 82.8201 179.321 83.0625C179.579 83.3011 179.707 83.5871 179.707 83.9205C179.707 84.2576 179.579 84.5473 179.321 84.7898C179.067 85.0284 178.76 85.1477 178.401 85.1477ZM183.964 89.9545V95H181.544V86.2727H183.851V87.8125H183.953C184.146 87.3049 184.47 86.9034 184.925 86.608C185.379 86.3087 185.93 86.1591 186.578 86.1591C187.184 86.1591 187.713 86.2917 188.163 86.5568C188.614 86.822 188.964 87.2008 189.214 87.6932C189.464 88.1818 189.589 88.7652 189.589 89.4432V95H187.169V89.875C187.173 89.3409 187.036 88.9242 186.76 88.625C186.483 88.322 186.103 88.1705 185.618 88.1705C185.292 88.1705 185.004 88.2405 184.754 88.3807C184.508 88.5208 184.315 88.7254 184.175 88.9943C184.038 89.2595 183.968 89.5795 183.964 89.9545ZM196.139 86.2727V88.0909H190.884V86.2727H196.139ZM192.077 84.1818H194.497V92.3182C194.497 92.5417 194.531 92.7159 194.599 92.8409C194.668 92.9621 194.762 93.0473 194.884 93.0966C195.009 93.1458 195.152 93.1705 195.315 93.1705C195.429 93.1705 195.543 93.161 195.656 93.142C195.77 93.1193 195.857 93.1023 195.918 93.0909L196.298 94.892C196.177 94.9299 196.007 94.9735 195.787 95.0227C195.567 95.0758 195.3 95.108 194.986 95.1193C194.402 95.142 193.891 95.0644 193.452 94.8864C193.016 94.7083 192.677 94.4318 192.435 94.0568C192.192 93.6818 192.073 93.2083 192.077 92.6364V84.1818Z" fill="#2A3647"/>
<path d="M26.7727 114H25.3636C25.2803 113.595 25.1345 113.239 24.9261 112.932C24.7216 112.625 24.4716 112.367 24.1761 112.159C23.8845 111.947 23.5606 111.788 23.2045 111.682C22.8485 111.576 22.4773 111.523 22.0909 111.523C21.3864 111.523 20.7481 111.701 20.1761 112.057C19.608 112.413 19.1553 112.938 18.8182 113.631C18.4848 114.324 18.3182 115.174 18.3182 116.182C18.3182 117.189 18.4848 118.04 18.8182 118.733C19.1553 119.426 19.608 119.951 20.1761 120.307C20.7481 120.663 21.3864 120.841 22.0909 120.841C22.4773 120.841 22.8485 120.788 23.2045 120.682C23.5606 120.576 23.8845 120.419 24.1761 120.21C24.4716 119.998 24.7216 119.739 24.9261 119.432C25.1345 119.121 25.2803 118.765 25.3636 118.364H26.7727C26.6667 118.958 26.4735 119.491 26.1932 119.96C25.9129 120.43 25.5644 120.83 25.1477 121.159C24.7311 121.485 24.2633 121.733 23.7443 121.903C23.2292 122.074 22.678 122.159 22.0909 122.159C21.0985 122.159 20.2159 121.917 19.4432 121.432C18.6705 120.947 18.0625 120.258 17.6193 119.364C17.1761 118.47 16.9545 117.409 16.9545 116.182C16.9545 114.955 17.1761 113.894 17.6193 113C18.0625 112.106 18.6705 111.417 19.4432 110.932C20.2159 110.447 21.0985 110.205 22.0909 110.205C22.678 110.205 23.2292 110.29 23.7443 110.46C24.2633 110.631 24.7311 110.881 25.1477 111.21C25.5644 111.536 25.9129 111.934 26.1932 112.403C26.4735 112.869 26.6667 113.402 26.7727 114ZM28.8679 122V113.273H30.1634V114.591H30.2543C30.4134 114.159 30.7012 113.809 31.1179 113.54C31.5346 113.271 32.0043 113.136 32.527 113.136C32.6255 113.136 32.7486 113.138 32.8963 113.142C33.044 113.146 33.1558 113.152 33.2315 113.159V114.523C33.1861 114.511 33.0819 114.494 32.919 114.472C32.7599 114.445 32.5914 114.432 32.4134 114.432C31.9891 114.432 31.6103 114.521 31.277 114.699C30.9474 114.873 30.6861 115.116 30.4929 115.426C30.3035 115.733 30.2088 116.083 30.2088 116.477V122H28.8679ZM38.2145 122.182C37.3736 122.182 36.6482 121.996 36.0384 121.625C35.4323 121.25 34.9645 120.727 34.6349 120.057C34.3092 119.383 34.1463 118.598 34.1463 117.705C34.1463 116.811 34.3092 116.023 34.6349 115.341C34.9645 114.655 35.4228 114.121 36.0099 113.739C36.6009 113.352 37.2902 113.159 38.0781 113.159C38.5327 113.159 38.9815 113.235 39.4247 113.386C39.8679 113.538 40.2713 113.784 40.6349 114.125C40.9986 114.462 41.2884 114.909 41.5043 115.466C41.7202 116.023 41.8281 116.708 41.8281 117.523V118.091H35.1009V116.932H40.4645C40.4645 116.439 40.366 116 40.169 115.614C39.9759 115.227 39.6993 114.922 39.3395 114.699C38.9834 114.475 38.563 114.364 38.0781 114.364C37.544 114.364 37.0819 114.496 36.6918 114.761C36.3054 115.023 36.008 115.364 35.7997 115.784C35.5914 116.205 35.4872 116.655 35.4872 117.136V117.909C35.4872 118.568 35.6009 119.127 35.8281 119.585C36.0592 120.04 36.3793 120.386 36.7884 120.625C37.1974 120.86 37.6728 120.977 38.2145 120.977C38.5668 120.977 38.8849 120.928 39.169 120.83C39.4569 120.727 39.705 120.576 39.9134 120.375C40.1217 120.17 40.2827 119.917 40.3963 119.614L41.6918 119.977C41.5554 120.417 41.3262 120.803 41.0043 121.136C40.6823 121.466 40.2846 121.723 39.8111 121.909C39.3376 122.091 38.8054 122.182 38.2145 122.182ZM46.4361 122.205C45.883 122.205 45.3812 122.1 44.9304 121.892C44.4796 121.68 44.1217 121.375 43.8565 120.977C43.5914 120.576 43.4588 120.091 43.4588 119.523C43.4588 119.023 43.5573 118.617 43.7543 118.307C43.9512 117.992 44.2145 117.746 44.544 117.568C44.8736 117.39 45.2372 117.258 45.6349 117.17C46.0365 117.08 46.4399 117.008 46.8452 116.955C47.3755 116.886 47.8054 116.835 48.1349 116.801C48.4683 116.763 48.7107 116.701 48.8622 116.614C49.0175 116.527 49.0952 116.375 49.0952 116.159V116.114C49.0952 115.553 48.9418 115.117 48.6349 114.807C48.3319 114.496 47.8717 114.341 47.2543 114.341C46.6141 114.341 46.1122 114.481 45.7486 114.761C45.3849 115.042 45.1293 115.341 44.9815 115.659L43.7088 115.205C43.9361 114.674 44.2391 114.261 44.6179 113.966C45.0005 113.667 45.4171 113.458 45.8679 113.341C46.3224 113.22 46.7694 113.159 47.2088 113.159C47.4891 113.159 47.8111 113.193 48.1747 113.261C48.5421 113.326 48.8963 113.46 49.2372 113.665C49.5819 113.869 49.8679 114.178 50.0952 114.591C50.3224 115.004 50.4361 115.557 50.4361 116.25V122H49.0952V120.818H49.027C48.9361 121.008 48.7846 121.21 48.5724 121.426C48.3603 121.642 48.0781 121.826 47.7259 121.977C47.3736 122.129 46.9437 122.205 46.4361 122.205ZM46.6406 121C47.1709 121 47.6179 120.896 47.9815 120.688C48.349 120.479 48.6255 120.21 48.8111 119.881C49.0005 119.551 49.0952 119.205 49.0952 118.841V117.614C49.0384 117.682 48.9134 117.744 48.7202 117.801C48.5308 117.854 48.3111 117.902 48.0611 117.943C47.8149 117.981 47.5743 118.015 47.3395 118.045C47.1084 118.072 46.9209 118.095 46.777 118.114C46.4285 118.159 46.1027 118.233 45.7997 118.335C45.5005 118.434 45.258 118.583 45.0724 118.784C44.8906 118.981 44.7997 119.25 44.7997 119.591C44.7997 120.057 44.9721 120.409 45.3168 120.648C45.6652 120.883 46.1065 121 46.6406 121ZM56.679 113.273V114.409H52.1562V113.273H56.679ZM53.4744 111.182H54.8153V119.5C54.8153 119.879 54.8703 120.163 54.9801 120.352C55.0938 120.538 55.2377 120.663 55.4119 120.727C55.59 120.788 55.7775 120.818 55.9744 120.818C56.1222 120.818 56.2434 120.811 56.3381 120.795C56.4328 120.777 56.5085 120.761 56.5653 120.75L56.8381 121.955C56.7472 121.989 56.6203 122.023 56.4574 122.057C56.2945 122.095 56.0881 122.114 55.8381 122.114C55.4593 122.114 55.0881 122.032 54.7244 121.869C54.3646 121.706 54.0653 121.458 53.8267 121.125C53.5919 120.792 53.4744 120.371 53.4744 119.864V111.182ZM62.2614 122.182C61.4205 122.182 60.6951 121.996 60.0852 121.625C59.4792 121.25 59.0114 120.727 58.6818 120.057C58.3561 119.383 58.1932 118.598 58.1932 117.705C58.1932 116.811 58.3561 116.023 58.6818 115.341C59.0114 114.655 59.4697 114.121 60.0568 113.739C60.6477 113.352 61.3371 113.159 62.125 113.159C62.5795 113.159 63.0284 113.235 63.4716 113.386C63.9148 113.538 64.3182 113.784 64.6818 114.125C65.0455 114.462 65.3352 114.909 65.5511 115.466C65.767 116.023 65.875 116.708 65.875 117.523V118.091H59.1477V116.932H64.5114C64.5114 116.439 64.4129 116 64.2159 115.614C64.0227 115.227 63.7462 114.922 63.3864 114.699C63.0303 114.475 62.6098 114.364 62.125 114.364C61.5909 114.364 61.1288 114.496 60.7386 114.761C60.3523 115.023 60.0549 115.364 59.8466 115.784C59.6383 116.205 59.5341 116.655 59.5341 117.136V117.909C59.5341 118.568 59.6477 119.127 59.875 119.585C60.1061 120.04 60.4261 120.386 60.8352 120.625C61.2443 120.86 61.7197 120.977 62.2614 120.977C62.6136 120.977 62.9318 120.928 63.2159 120.83C63.5038 120.727 63.7519 120.576 63.9602 120.375C64.1686 120.17 64.3295 119.917 64.4432 119.614L65.7386 119.977C65.6023 120.417 65.3731 120.803 65.0511 121.136C64.7292 121.466 64.3314 121.723 63.858 121.909C63.3845 122.091 62.8523 122.182 62.2614 122.182ZM74.983 122.205C74.4299 122.205 73.928 122.1 73.4773 121.892C73.0265 121.68 72.6686 121.375 72.4034 120.977C72.1383 120.576 72.0057 120.091 72.0057 119.523C72.0057 119.023 72.1042 118.617 72.3011 118.307C72.4981 117.992 72.7614 117.746 73.0909 117.568C73.4205 117.39 73.7841 117.258 74.1818 117.17C74.5833 117.08 74.9867 117.008 75.392 116.955C75.9223 116.886 76.3523 116.835 76.6818 116.801C77.0152 116.763 77.2576 116.701 77.4091 116.614C77.5644 116.527 77.642 116.375 77.642 116.159V116.114C77.642 115.553 77.4886 115.117 77.1818 114.807C76.8788 114.496 76.4186 114.341 75.8011 114.341C75.161 114.341 74.6591 114.481 74.2955 114.761C73.9318 115.042 73.6761 115.341 73.5284 115.659L72.2557 115.205C72.483 114.674 72.786 114.261 73.1648 113.966C73.5473 113.667 73.964 113.458 74.4148 113.341C74.8693 113.22 75.3163 113.159 75.7557 113.159C76.036 113.159 76.358 113.193 76.7216 113.261C77.089 113.326 77.4432 113.46 77.7841 113.665C78.1288 113.869 78.4148 114.178 78.642 114.591C78.8693 115.004 78.983 115.557 78.983 116.25V122H77.642V120.818H77.5739C77.483 121.008 77.3314 121.21 77.1193 121.426C76.9072 121.642 76.625 121.826 76.2727 121.977C75.9205 122.129 75.4905 122.205 74.983 122.205ZM75.1875 121C75.7178 121 76.1648 120.896 76.5284 120.688C76.8958 120.479 77.1723 120.21 77.358 119.881C77.5473 119.551 77.642 119.205 77.642 118.841V117.614C77.5852 117.682 77.4602 117.744 77.267 117.801C77.0777 117.854 76.858 117.902 76.608 117.943C76.3617 117.981 76.1212 118.015 75.8864 118.045C75.6553 118.072 75.4678 118.095 75.3239 118.114C74.9754 118.159 74.6496 118.233 74.3466 118.335C74.0473 118.434 73.8049 118.583 73.6193 118.784C73.4375 118.981 73.3466 119.25 73.3466 119.591C73.3466 120.057 73.5189 120.409 73.8636 120.648C74.2121 120.883 74.6534 121 75.1875 121ZM89.4759 122.182C88.6577 122.182 87.9531 121.989 87.3622 121.602C86.7713 121.216 86.3168 120.684 85.9986 120.006C85.6804 119.328 85.5213 118.553 85.5213 117.682C85.5213 116.795 85.6842 116.013 86.0099 115.335C86.3395 114.653 86.7978 114.121 87.3849 113.739C87.9759 113.352 88.6652 113.159 89.4531 113.159C90.0668 113.159 90.6198 113.273 91.1122 113.5C91.6046 113.727 92.008 114.045 92.3224 114.455C92.6368 114.864 92.8319 115.341 92.9077 115.886H91.5668C91.4645 115.489 91.2372 115.136 90.8849 114.83C90.5365 114.519 90.0668 114.364 89.4759 114.364C88.9531 114.364 88.4948 114.5 88.1009 114.773C87.7107 115.042 87.4058 115.422 87.1861 115.915C86.9702 116.403 86.8622 116.977 86.8622 117.636C86.8622 118.311 86.9683 118.898 87.1804 119.398C87.3963 119.898 87.6993 120.286 88.0895 120.562C88.4834 120.839 88.9455 120.977 89.4759 120.977C89.8243 120.977 90.1406 120.917 90.4247 120.795C90.7088 120.674 90.9493 120.5 91.1463 120.273C91.3433 120.045 91.4834 119.773 91.5668 119.455H92.9077C92.8319 119.97 92.6444 120.434 92.3452 120.847C92.0497 121.256 91.6577 121.581 91.169 121.824C90.6842 122.062 90.1198 122.182 89.4759 122.182ZM98.4134 122.182C97.6255 122.182 96.9342 121.994 96.3395 121.619C95.7486 121.244 95.2865 120.72 94.9531 120.045C94.6236 119.371 94.4588 118.583 94.4588 117.682C94.4588 116.773 94.6236 115.979 94.9531 115.301C95.2865 114.623 95.7486 114.097 96.3395 113.722C96.9342 113.347 97.6255 113.159 98.4134 113.159C99.2012 113.159 99.8906 113.347 100.482 113.722C101.076 114.097 101.538 114.623 101.868 115.301C102.201 115.979 102.368 116.773 102.368 117.682C102.368 118.583 102.201 119.371 101.868 120.045C101.538 120.72 101.076 121.244 100.482 121.619C99.8906 121.994 99.2012 122.182 98.4134 122.182ZM98.4134 120.977C99.0118 120.977 99.5043 120.824 99.8906 120.517C100.277 120.21 100.563 119.807 100.749 119.307C100.934 118.807 101.027 118.265 101.027 117.682C101.027 117.098 100.934 116.555 100.749 116.051C100.563 115.547 100.277 115.14 99.8906 114.83C99.5043 114.519 99.0118 114.364 98.4134 114.364C97.8149 114.364 97.3224 114.519 96.9361 114.83C96.5497 115.14 96.2637 115.547 96.0781 116.051C95.8925 116.555 95.7997 117.098 95.7997 117.682C95.7997 118.265 95.8925 118.807 96.0781 119.307C96.2637 119.807 96.5497 120.21 96.9361 120.517C97.3224 120.824 97.8149 120.977 98.4134 120.977ZM105.756 116.75V122H104.415V113.273H105.71V114.636H105.824C106.028 114.193 106.339 113.837 106.756 113.568C107.172 113.295 107.71 113.159 108.369 113.159C108.96 113.159 109.477 113.28 109.92 113.523C110.364 113.761 110.708 114.125 110.955 114.614C111.201 115.098 111.324 115.712 111.324 116.455V122H109.983V116.545C109.983 115.86 109.805 115.326 109.449 114.943C109.093 114.557 108.604 114.364 107.983 114.364C107.555 114.364 107.172 114.456 106.835 114.642C106.502 114.828 106.239 115.098 106.045 115.455C105.852 115.811 105.756 116.242 105.756 116.75ZM117.57 113.273V114.409H113.047V113.273H117.57ZM114.365 111.182H115.706V119.5C115.706 119.879 115.761 120.163 115.871 120.352C115.984 120.538 116.128 120.663 116.303 120.727C116.481 120.788 116.668 120.818 116.865 120.818C117.013 120.818 117.134 120.811 117.229 120.795C117.323 120.777 117.399 120.761 117.456 120.75L117.729 121.955C117.638 121.989 117.511 122.023 117.348 122.057C117.185 122.095 116.979 122.114 116.729 122.114C116.35 122.114 115.979 122.032 115.615 121.869C115.255 121.706 114.956 121.458 114.717 121.125C114.482 120.792 114.365 120.371 114.365 119.864V111.182ZM122.155 122.205C121.602 122.205 121.1 122.1 120.649 121.892C120.198 121.68 119.84 121.375 119.575 120.977C119.31 120.576 119.178 120.091 119.178 119.523C119.178 119.023 119.276 118.617 119.473 118.307C119.67 117.992 119.933 117.746 120.263 117.568C120.592 117.39 120.956 117.258 121.354 117.17C121.755 117.08 122.159 117.008 122.564 116.955C123.094 116.886 123.524 116.835 123.854 116.801C124.187 116.763 124.429 116.701 124.581 116.614C124.736 116.527 124.814 116.375 124.814 116.159V116.114C124.814 115.553 124.661 115.117 124.354 114.807C124.051 114.496 123.59 114.341 122.973 114.341C122.333 114.341 121.831 114.481 121.467 114.761C121.104 115.042 120.848 115.341 120.7 115.659L119.428 115.205C119.655 114.674 119.958 114.261 120.337 113.966C120.719 113.667 121.136 113.458 121.587 113.341C122.041 113.22 122.488 113.159 122.928 113.159C123.208 113.159 123.53 113.193 123.893 113.261C124.261 113.326 124.615 113.46 124.956 113.665C125.301 113.869 125.587 114.178 125.814 114.591C126.041 115.004 126.155 115.557 126.155 116.25V122H124.814V120.818H124.746C124.655 121.008 124.503 121.21 124.291 121.426C124.079 121.642 123.797 121.826 123.445 121.977C123.092 122.129 122.662 122.205 122.155 122.205ZM122.359 121C122.89 121 123.337 120.896 123.7 120.688C124.068 120.479 124.344 120.21 124.53 119.881C124.719 119.551 124.814 119.205 124.814 118.841V117.614C124.757 117.682 124.632 117.744 124.439 117.801C124.25 117.854 124.03 117.902 123.78 117.943C123.534 117.981 123.293 118.015 123.058 118.045C122.827 118.072 122.64 118.095 122.496 118.114C122.147 118.159 121.821 118.233 121.518 118.335C121.219 118.434 120.977 118.583 120.791 118.784C120.609 118.981 120.518 119.25 120.518 119.591C120.518 120.057 120.691 120.409 121.036 120.648C121.384 120.883 121.825 121 122.359 121ZM132.148 122.182C131.33 122.182 130.625 121.989 130.034 121.602C129.443 121.216 128.989 120.684 128.67 120.006C128.352 119.328 128.193 118.553 128.193 117.682C128.193 116.795 128.356 116.013 128.682 115.335C129.011 114.653 129.47 114.121 130.057 113.739C130.648 113.352 131.337 113.159 132.125 113.159C132.739 113.159 133.292 113.273 133.784 113.5C134.277 113.727 134.68 114.045 134.994 114.455C135.309 114.864 135.504 115.341 135.58 115.886H134.239C134.136 115.489 133.909 115.136 133.557 114.83C133.208 114.519 132.739 114.364 132.148 114.364C131.625 114.364 131.167 114.5 130.773 114.773C130.383 115.042 130.078 115.422 129.858 115.915C129.642 116.403 129.534 116.977 129.534 117.636C129.534 118.311 129.64 118.898 129.852 119.398C130.068 119.898 130.371 120.286 130.761 120.562C131.155 120.839 131.617 120.977 132.148 120.977C132.496 120.977 132.812 120.917 133.097 120.795C133.381 120.674 133.621 120.5 133.818 120.273C134.015 120.045 134.155 119.773 134.239 119.455H135.58C135.504 119.97 135.316 120.434 135.017 120.847C134.722 121.256 134.33 121.581 133.841 121.824C133.356 122.062 132.792 122.182 132.148 122.182ZM141.335 113.273V114.409H136.812V113.273H141.335ZM138.131 111.182H139.472V119.5C139.472 119.879 139.527 120.163 139.636 120.352C139.75 120.538 139.894 120.663 140.068 120.727C140.246 120.788 140.434 120.818 140.631 120.818C140.778 120.818 140.9 120.811 140.994 120.795C141.089 120.777 141.165 120.761 141.222 120.75L141.494 121.955C141.403 121.989 141.277 122.023 141.114 122.057C140.951 122.095 140.744 122.114 140.494 122.114C140.116 122.114 139.744 122.032 139.381 121.869C139.021 121.706 138.722 121.458 138.483 121.125C138.248 120.792 138.131 120.371 138.131 119.864V111.182ZM151.739 113.273V114.409H147.034V113.273H151.739ZM148.443 122V112.068C148.443 111.568 148.561 111.152 148.795 110.818C149.03 110.485 149.335 110.235 149.71 110.068C150.085 109.902 150.481 109.818 150.898 109.818C151.227 109.818 151.496 109.845 151.705 109.898C151.913 109.951 152.068 110 152.17 110.045L151.784 111.205C151.716 111.182 151.621 111.153 151.5 111.119C151.383 111.085 151.227 111.068 151.034 111.068C150.591 111.068 150.271 111.18 150.074 111.403C149.881 111.627 149.784 111.955 149.784 112.386V122H148.443ZM156.804 122.182C156.016 122.182 155.325 121.994 154.73 121.619C154.139 121.244 153.677 120.72 153.344 120.045C153.014 119.371 152.849 118.583 152.849 117.682C152.849 116.773 153.014 115.979 153.344 115.301C153.677 114.623 154.139 114.097 154.73 113.722C155.325 113.347 156.016 113.159 156.804 113.159C157.592 113.159 158.281 113.347 158.872 113.722C159.467 114.097 159.929 114.623 160.259 115.301C160.592 115.979 160.759 116.773 160.759 117.682C160.759 118.583 160.592 119.371 160.259 120.045C159.929 120.72 159.467 121.244 158.872 121.619C158.281 121.994 157.592 122.182 156.804 122.182ZM156.804 120.977C157.402 120.977 157.895 120.824 158.281 120.517C158.668 120.21 158.954 119.807 159.139 119.307C159.325 118.807 159.418 118.265 159.418 117.682C159.418 117.098 159.325 116.555 159.139 116.051C158.954 115.547 158.668 115.14 158.281 114.83C157.895 114.519 157.402 114.364 156.804 114.364C156.205 114.364 155.713 114.519 155.327 114.83C154.94 115.14 154.654 115.547 154.469 116.051C154.283 116.555 154.19 117.098 154.19 117.682C154.19 118.265 154.283 118.807 154.469 119.307C154.654 119.807 154.94 120.21 155.327 120.517C155.713 120.824 156.205 120.977 156.804 120.977ZM162.805 122V113.273H164.101V114.591H164.192C164.351 114.159 164.639 113.809 165.055 113.54C165.472 113.271 165.942 113.136 166.464 113.136C166.563 113.136 166.686 113.138 166.834 113.142C166.982 113.146 167.093 113.152 167.169 113.159V114.523C167.124 114.511 167.019 114.494 166.857 114.472C166.697 114.445 166.529 114.432 166.351 114.432C165.927 114.432 165.548 114.521 165.214 114.699C164.885 114.873 164.624 115.116 164.43 115.426C164.241 115.733 164.146 116.083 164.146 116.477V122H162.805ZM168.759 122V113.273H170.054V114.636H170.168C170.349 114.17 170.643 113.809 171.048 113.551C171.454 113.29 171.94 113.159 172.509 113.159C173.084 113.159 173.563 113.29 173.946 113.551C174.332 113.809 174.634 114.17 174.849 114.636H174.94C175.164 114.186 175.499 113.828 175.946 113.562C176.393 113.294 176.929 113.159 177.554 113.159C178.334 113.159 178.973 113.403 179.469 113.892C179.965 114.377 180.213 115.133 180.213 116.159V122H178.872V116.159C178.872 115.515 178.696 115.055 178.344 114.778C177.991 114.502 177.577 114.364 177.099 114.364C176.486 114.364 176.01 114.549 175.673 114.92C175.336 115.288 175.168 115.754 175.168 116.318V122H173.804V116.023C173.804 115.527 173.643 115.127 173.321 114.824C172.999 114.517 172.584 114.364 172.077 114.364C171.728 114.364 171.402 114.456 171.099 114.642C170.8 114.828 170.558 115.085 170.372 115.415C170.19 115.741 170.099 116.117 170.099 116.545V122H168.759ZM189.733 122.205C189.18 122.205 188.678 122.1 188.227 121.892C187.777 121.68 187.419 121.375 187.153 120.977C186.888 120.576 186.756 120.091 186.756 119.523C186.756 119.023 186.854 118.617 187.051 118.307C187.248 117.992 187.511 117.746 187.841 117.568C188.17 117.39 188.534 117.258 188.932 117.17C189.333 117.08 189.737 117.008 190.142 116.955C190.672 116.886 191.102 116.835 191.432 116.801C191.765 116.763 192.008 116.701 192.159 116.614C192.314 116.527 192.392 116.375 192.392 116.159V116.114C192.392 115.553 192.239 115.117 191.932 114.807C191.629 114.496 191.169 114.341 190.551 114.341C189.911 114.341 189.409 114.481 189.045 114.761C188.682 115.042 188.426 115.341 188.278 115.659L187.006 115.205C187.233 114.674 187.536 114.261 187.915 113.966C188.297 113.667 188.714 113.458 189.165 113.341C189.619 113.22 190.066 113.159 190.506 113.159C190.786 113.159 191.108 113.193 191.472 113.261C191.839 113.326 192.193 113.46 192.534 113.665C192.879 113.869 193.165 114.178 193.392 114.591C193.619 115.004 193.733 115.557 193.733 116.25V122H192.392V120.818H192.324C192.233 121.008 192.081 121.21 191.869 121.426C191.657 121.642 191.375 121.826 191.023 121.977C190.67 122.129 190.241 122.205 189.733 122.205ZM189.938 121C190.468 121 190.915 120.896 191.278 120.688C191.646 120.479 191.922 120.21 192.108 119.881C192.297 119.551 192.392 119.205 192.392 118.841V117.614C192.335 117.682 192.21 117.744 192.017 117.801C191.828 117.854 191.608 117.902 191.358 117.943C191.112 117.981 190.871 118.015 190.636 118.045C190.405 118.072 190.218 118.095 190.074 118.114C189.725 118.159 189.4 118.233 189.097 118.335C188.797 118.434 188.555 118.583 188.369 118.784C188.188 118.981 188.097 119.25 188.097 119.591C188.097 120.057 188.269 120.409 188.614 120.648C188.962 120.883 189.403 121 189.938 121ZM197.521 116.75V122H196.18V113.273H197.476V114.636H197.589C197.794 114.193 198.105 113.837 198.521 113.568C198.938 113.295 199.476 113.159 200.135 113.159C200.726 113.159 201.243 113.28 201.686 113.523C202.129 113.761 202.474 114.125 202.72 114.614C202.966 115.098 203.089 115.712 203.089 116.455V122H201.749V116.545C201.749 115.86 201.571 115.326 201.214 114.943C200.858 114.557 200.37 114.364 199.749 114.364C199.321 114.364 198.938 114.456 198.601 114.642C198.268 114.828 198.004 115.098 197.811 115.455C197.618 115.811 197.521 116.242 197.521 116.75ZM208.835 122.182C208.108 122.182 207.466 121.998 206.909 121.631C206.352 121.259 205.917 120.737 205.602 120.062C205.288 119.384 205.131 118.583 205.131 117.659C205.131 116.742 205.288 115.947 205.602 115.273C205.917 114.598 206.354 114.078 206.915 113.71C207.475 113.343 208.123 113.159 208.858 113.159C209.426 113.159 209.875 113.254 210.205 113.443C210.538 113.629 210.792 113.841 210.966 114.08C211.144 114.314 211.282 114.508 211.381 114.659H211.494V110.364H212.835V122H211.54V120.659H211.381C211.282 120.818 211.142 121.019 210.96 121.261C210.778 121.5 210.519 121.714 210.182 121.903C209.845 122.089 209.396 122.182 208.835 122.182ZM209.017 120.977C209.555 120.977 210.009 120.837 210.381 120.557C210.752 120.273 211.034 119.881 211.227 119.381C211.42 118.877 211.517 118.295 211.517 117.636C211.517 116.985 211.422 116.415 211.233 115.926C211.044 115.434 210.763 115.051 210.392 114.778C210.021 114.502 209.563 114.364 209.017 114.364C208.449 114.364 207.975 114.509 207.597 114.801C207.222 115.089 206.939 115.481 206.75 115.977C206.564 116.47 206.472 117.023 206.472 117.636C206.472 118.258 206.566 118.822 206.756 119.33C206.949 119.833 207.233 120.235 207.608 120.534C207.987 120.83 208.456 120.977 209.017 120.977ZM17.2273 141V132.273H18.5682V141H17.2273ZM17.9091 130.818C17.6477 130.818 17.4223 130.729 17.233 130.551C17.0473 130.373 16.9545 130.159 16.9545 129.909C16.9545 129.659 17.0473 129.445 17.233 129.267C17.4223 129.089 17.6477 129 17.9091 129C18.1705 129 18.3939 129.089 18.5795 129.267C18.7689 129.445 18.8636 129.659 18.8636 129.909C18.8636 130.159 18.7689 130.373 18.5795 130.551C18.3939 130.729 18.1705 130.818 17.9091 130.818ZM21.0241 141V132.273H22.3196V133.636H22.4332C22.6151 133.17 22.9086 132.809 23.3139 132.551C23.7192 132.29 24.206 132.159 24.7741 132.159C25.3499 132.159 25.8291 132.29 26.2116 132.551C26.598 132.809 26.8991 133.17 27.1151 133.636H27.206C27.4295 133.186 27.7647 132.828 28.2116 132.562C28.6586 132.294 29.1946 132.159 29.8196 132.159C30.5999 132.159 31.2382 132.403 31.7344 132.892C32.2306 133.377 32.4787 134.133 32.4787 135.159V141H31.1378V135.159C31.1378 134.515 30.9616 134.055 30.6094 133.778C30.2571 133.502 29.8423 133.364 29.3651 133.364C28.7514 133.364 28.276 133.549 27.9389 133.92C27.6018 134.288 27.4332 134.754 27.4332 135.318V141H26.0696V135.023C26.0696 134.527 25.9086 134.127 25.5866 133.824C25.2647 133.517 24.8499 133.364 24.3423 133.364C23.9938 133.364 23.6681 133.456 23.3651 133.642C23.0658 133.828 22.8234 134.085 22.6378 134.415C22.456 134.741 22.3651 135.117 22.3651 135.545V141H21.0241ZM34.9304 144.273V132.273H36.2259V133.659H36.3849C36.4834 133.508 36.6198 133.314 36.794 133.08C36.9721 132.841 37.2259 132.629 37.5554 132.443C37.8887 132.254 38.3395 132.159 38.9077 132.159C39.6425 132.159 40.2902 132.343 40.8509 132.71C41.4115 133.078 41.849 133.598 42.1634 134.273C42.4777 134.947 42.6349 135.742 42.6349 136.659C42.6349 137.583 42.4777 138.384 42.1634 139.062C41.849 139.737 41.4134 140.259 40.8565 140.631C40.2997 140.998 39.6577 141.182 38.9304 141.182C38.3698 141.182 37.9209 141.089 37.5838 140.903C37.2467 140.714 36.9872 140.5 36.8054 140.261C36.6236 140.019 36.4834 139.818 36.3849 139.659H36.2713V144.273H34.9304ZM36.2486 136.636C36.2486 137.295 36.3452 137.877 36.5384 138.381C36.7315 138.881 37.0137 139.273 37.3849 139.557C37.7562 139.837 38.2107 139.977 38.7486 139.977C39.3092 139.977 39.777 139.83 40.152 139.534C40.5308 139.235 40.8149 138.833 41.0043 138.33C41.1974 137.822 41.294 137.258 41.294 136.636C41.294 136.023 41.1993 135.47 41.0099 134.977C40.8243 134.481 40.5421 134.089 40.1634 133.801C39.7884 133.509 39.3168 133.364 38.7486 133.364C38.2031 133.364 37.7448 133.502 37.3736 133.778C37.0024 134.051 36.7221 134.434 36.5327 134.926C36.3433 135.415 36.2486 135.985 36.2486 136.636ZM44.6804 141V132.273H45.9759V133.591H46.0668C46.2259 133.159 46.5137 132.809 46.9304 132.54C47.3471 132.271 47.8168 132.136 48.3395 132.136C48.438 132.136 48.5611 132.138 48.7088 132.142C48.8565 132.146 48.9683 132.152 49.044 132.159V133.523C48.9986 133.511 48.8944 133.494 48.7315 133.472C48.5724 133.445 48.4039 133.432 48.2259 133.432C47.8016 133.432 47.4228 133.521 47.0895 133.699C46.7599 133.873 46.4986 134.116 46.3054 134.426C46.116 134.733 46.0213 135.083 46.0213 135.477V141H44.6804ZM50.6335 141V132.273H51.9744V141H50.6335ZM51.3153 130.818C51.054 130.818 50.8286 130.729 50.6392 130.551C50.4536 130.373 50.3608 130.159 50.3608 129.909C50.3608 129.659 50.4536 129.445 50.6392 129.267C50.8286 129.089 51.054 129 51.3153 129C51.5767 129 51.8002 129.089 51.9858 129.267C52.1752 129.445 52.2699 129.659 52.2699 129.909C52.2699 130.159 52.1752 130.373 51.9858 130.551C51.8002 130.729 51.5767 130.818 51.3153 130.818ZM55.7713 135.75V141H54.4304V132.273H55.7259V133.636H55.8395C56.044 133.193 56.3546 132.837 56.7713 132.568C57.188 132.295 57.7259 132.159 58.3849 132.159C58.9759 132.159 59.4929 132.28 59.9361 132.523C60.3793 132.761 60.724 133.125 60.9702 133.614C61.2164 134.098 61.3395 134.712 61.3395 135.455V141H59.9986V135.545C59.9986 134.86 59.8205 134.326 59.4645 133.943C59.1084 133.557 58.6198 133.364 57.9986 133.364C57.5705 133.364 57.188 133.456 56.8509 133.642C56.5175 133.828 56.2543 134.098 56.0611 134.455C55.8679 134.811 55.7713 135.242 55.7713 135.75ZM67.5852 132.273V133.409H63.0625V132.273H67.5852ZM64.3807 130.182H65.7216V138.5C65.7216 138.879 65.7765 139.163 65.8864 139.352C66 139.538 66.1439 139.663 66.3182 139.727C66.4962 139.788 66.6837 139.818 66.8807 139.818C67.0284 139.818 67.1496 139.811 67.2443 139.795C67.339 139.777 67.4148 139.761 67.4716 139.75L67.7443 140.955C67.6534 140.989 67.5265 141.023 67.3636 141.057C67.2008 141.095 66.9943 141.114 66.7443 141.114C66.3655 141.114 65.9943 141.032 65.6307 140.869C65.2708 140.706 64.9716 140.458 64.733 140.125C64.4981 139.792 64.3807 139.371 64.3807 138.864V130.182ZM74.1023 144.273V132.273H75.3977V133.659H75.5568C75.6553 133.508 75.7917 133.314 75.9659 133.08C76.1439 132.841 76.3977 132.629 76.7273 132.443C77.0606 132.254 77.5114 132.159 78.0795 132.159C78.8144 132.159 79.4621 132.343 80.0227 132.71C80.5833 133.078 81.0208 133.598 81.3352 134.273C81.6496 134.947 81.8068 135.742 81.8068 136.659C81.8068 137.583 81.6496 138.384 81.3352 139.062C81.0208 139.737 80.5852 140.259 80.0284 140.631C79.4716 140.998 78.8295 141.182 78.1023 141.182C77.5417 141.182 77.0928 141.089 76.7557 140.903C76.4186 140.714 76.1591 140.5 75.9773 140.261C75.7955 140.019 75.6553 139.818 75.5568 139.659H75.4432V144.273H74.1023ZM75.4205 136.636C75.4205 137.295 75.517 137.877 75.7102 138.381C75.9034 138.881 76.1856 139.273 76.5568 139.557C76.928 139.837 77.3826 139.977 77.9205 139.977C78.4811 139.977 78.9489 139.83 79.3239 139.534C79.7027 139.235 79.9867 138.833 80.1761 138.33C80.3693 137.822 80.4659 137.258 80.4659 136.636C80.4659 136.023 80.3712 135.47 80.1818 134.977C79.9962 134.481 79.714 134.089 79.3352 133.801C78.9602 133.509 78.4886 133.364 77.9205 133.364C77.375 133.364 76.9167 133.502 76.5455 133.778C76.1742 134.051 75.8939 134.434 75.7045 134.926C75.5152 135.415 75.4205 135.985 75.4205 136.636ZM86.4205 141.205C85.8674 141.205 85.3655 141.1 84.9148 140.892C84.464 140.68 84.1061 140.375 83.8409 139.977C83.5758 139.576 83.4432 139.091 83.4432 138.523C83.4432 138.023 83.5417 137.617 83.7386 137.307C83.9356 136.992 84.1989 136.746 84.5284 136.568C84.858 136.39 85.2216 136.258 85.6193 136.17C86.0208 136.08 86.4242 136.008 86.8295 135.955C87.3598 135.886 87.7898 135.835 88.1193 135.801C88.4527 135.763 88.6951 135.701 88.8466 135.614C89.0019 135.527 89.0795 135.375 89.0795 135.159V135.114C89.0795 134.553 88.9261 134.117 88.6193 133.807C88.3163 133.496 87.8561 133.341 87.2386 133.341C86.5985 133.341 86.0966 133.481 85.733 133.761C85.3693 134.042 85.1136 134.341 84.9659 134.659L83.6932 134.205C83.9205 133.674 84.2235 133.261 84.6023 132.966C84.9848 132.667 85.4015 132.458 85.8523 132.341C86.3068 132.22 86.7538 132.159 87.1932 132.159C87.4735 132.159 87.7955 132.193 88.1591 132.261C88.5265 132.326 88.8807 132.46 89.2216 132.665C89.5663 132.869 89.8523 133.178 90.0795 133.591C90.3068 134.004 90.4205 134.557 90.4205 135.25V141H89.0795V139.818H89.0114C88.9205 140.008 88.7689 140.21 88.5568 140.426C88.3447 140.642 88.0625 140.826 87.7102 140.977C87.358 141.129 86.928 141.205 86.4205 141.205ZM86.625 140C87.1553 140 87.6023 139.896 87.9659 139.688C88.3333 139.479 88.6098 139.21 88.7955 138.881C88.9848 138.551 89.0795 138.205 89.0795 137.841V136.614C89.0227 136.682 88.8977 136.744 88.7045 136.801C88.5152 136.854 88.2955 136.902 88.0455 136.943C87.7992 136.981 87.5587 137.015 87.3239 137.045C87.0928 137.072 86.9053 137.095 86.7614 137.114C86.4129 137.159 86.0871 137.233 85.7841 137.335C85.4848 137.434 85.2424 137.583 85.0568 137.784C84.875 137.981 84.7841 138.25 84.7841 138.591C84.7841 139.057 84.9564 139.409 85.3011 139.648C85.6496 139.883 86.0909 140 86.625 140ZM96.3906 144.455C95.7429 144.455 95.1861 144.371 94.7202 144.205C94.2543 144.042 93.866 143.826 93.5554 143.557C93.2486 143.292 93.0043 143.008 92.8224 142.705L93.8906 141.955C94.0118 142.114 94.1652 142.295 94.3509 142.5C94.5365 142.708 94.7902 142.888 95.1122 143.04C95.438 143.195 95.8641 143.273 96.3906 143.273C97.0952 143.273 97.6766 143.102 98.1349 142.761C98.5933 142.42 98.8224 141.886 98.8224 141.159V139.386H98.7088C98.6103 139.545 98.4702 139.742 98.2884 139.977C98.1103 140.208 97.8527 140.415 97.5156 140.597C97.1823 140.775 96.7315 140.864 96.1634 140.864C95.4588 140.864 94.8262 140.697 94.2656 140.364C93.7088 140.03 93.2675 139.545 92.9418 138.909C92.6198 138.273 92.4588 137.5 92.4588 136.591C92.4588 135.697 92.616 134.919 92.9304 134.256C93.2448 133.589 93.6823 133.074 94.2429 132.71C94.8035 132.343 95.4512 132.159 96.1861 132.159C96.7543 132.159 97.205 132.254 97.5384 132.443C97.8755 132.629 98.133 132.841 98.3111 133.08C98.4929 133.314 98.633 133.508 98.7315 133.659H98.8679V132.273H100.163V141.25C100.163 142 99.9929 142.61 99.652 143.08C99.3149 143.553 98.8603 143.9 98.2884 144.119C97.7202 144.343 97.0876 144.455 96.3906 144.455ZM96.3452 139.659C96.883 139.659 97.3376 139.536 97.7088 139.29C98.08 139.044 98.3622 138.689 98.5554 138.227C98.7486 137.765 98.8452 137.212 98.8452 136.568C98.8452 135.939 98.7505 135.384 98.5611 134.903C98.3717 134.422 98.0914 134.045 97.7202 133.773C97.349 133.5 96.8906 133.364 96.3452 133.364C95.777 133.364 95.3035 133.508 94.9247 133.795C94.5497 134.083 94.2675 134.47 94.0781 134.955C93.8925 135.439 93.7997 135.977 93.7997 136.568C93.7997 137.174 93.8944 137.71 94.0838 138.176C94.277 138.638 94.5611 139.002 94.9361 139.267C95.3149 139.528 95.7846 139.659 96.3452 139.659ZM106.277 141.182C105.436 141.182 104.711 140.996 104.101 140.625C103.495 140.25 103.027 139.727 102.697 139.057C102.372 138.383 102.209 137.598 102.209 136.705C102.209 135.811 102.372 135.023 102.697 134.341C103.027 133.655 103.485 133.121 104.072 132.739C104.663 132.352 105.353 132.159 106.141 132.159C106.595 132.159 107.044 132.235 107.487 132.386C107.93 132.538 108.334 132.784 108.697 133.125C109.061 133.462 109.351 133.909 109.567 134.466C109.783 135.023 109.891 135.708 109.891 136.523V137.091H103.163V135.932H108.527C108.527 135.439 108.429 135 108.232 134.614C108.038 134.227 107.762 133.922 107.402 133.699C107.046 133.475 106.625 133.364 106.141 133.364C105.607 133.364 105.144 133.496 104.754 133.761C104.368 134.023 104.071 134.364 103.862 134.784C103.654 135.205 103.55 135.655 103.55 136.136V136.909C103.55 137.568 103.663 138.127 103.891 138.585C104.122 139.04 104.442 139.386 104.851 139.625C105.26 139.86 105.735 139.977 106.277 139.977C106.629 139.977 106.947 139.928 107.232 139.83C107.519 139.727 107.768 139.576 107.976 139.375C108.184 139.17 108.345 138.917 108.459 138.614L109.754 138.977C109.618 139.417 109.389 139.803 109.067 140.136C108.745 140.466 108.347 140.723 107.874 140.909C107.4 141.091 106.868 141.182 106.277 141.182ZM112.908 141.091C112.627 141.091 112.387 140.991 112.186 140.79C111.985 140.589 111.885 140.348 111.885 140.068C111.885 139.788 111.985 139.547 112.186 139.347C112.387 139.146 112.627 139.045 112.908 139.045C113.188 139.045 113.429 139.146 113.629 139.347C113.83 139.547 113.93 139.788 113.93 140.068C113.93 140.254 113.883 140.424 113.788 140.58C113.697 140.735 113.574 140.86 113.419 140.955C113.268 141.045 113.097 141.091 112.908 141.091ZM117.314 141.091C117.034 141.091 116.793 140.991 116.592 140.79C116.392 140.589 116.291 140.348 116.291 140.068C116.291 139.788 116.392 139.547 116.592 139.347C116.793 139.146 117.034 139.045 117.314 139.045C117.594 139.045 117.835 139.146 118.036 139.347C118.236 139.547 118.337 139.788 118.337 140.068C118.337 140.254 118.289 140.424 118.195 140.58C118.104 140.735 117.981 140.86 117.825 140.955C117.674 141.045 117.503 141.091 117.314 141.091ZM121.72 141.091C121.44 141.091 121.199 140.991 120.999 140.79C120.798 140.589 120.697 140.348 120.697 140.068C120.697 139.788 120.798 139.547 120.999 139.347C121.199 139.146 121.44 139.045 121.72 139.045C122 139.045 122.241 139.146 122.442 139.347C122.643 139.547 122.743 139.788 122.743 140.068C122.743 140.254 122.696 140.424 122.601 140.58C122.51 140.735 122.387 140.86 122.232 140.955C122.08 141.045 121.91 141.091 121.72 141.091Z" fill="#A8A8A8"/>
<rect x="16" y="173" width="128" height="8" rx="4" fill="#F4F4F4"/>
<path d="M158.75 180.119C158.108 180.119 157.561 179.945 157.109 179.595C156.658 179.243 156.313 178.733 156.074 178.065C155.835 177.395 155.716 176.585 155.716 175.636C155.716 174.693 155.835 173.888 156.074 173.22C156.315 172.55 156.662 172.038 157.114 171.686C157.568 171.331 158.114 171.153 158.75 171.153C159.386 171.153 159.93 171.331 160.382 171.686C160.837 172.038 161.183 172.55 161.422 173.22C161.663 173.888 161.784 174.693 161.784 175.636C161.784 176.585 161.665 177.395 161.426 178.065C161.188 178.733 160.842 179.243 160.391 179.595C159.939 179.945 159.392 180.119 158.75 180.119ZM158.75 179.182C159.386 179.182 159.881 178.875 160.233 178.261C160.585 177.648 160.761 176.773 160.761 175.636C160.761 174.881 160.68 174.237 160.518 173.706C160.359 173.175 160.129 172.77 159.828 172.491C159.53 172.213 159.17 172.074 158.75 172.074C158.119 172.074 157.626 172.385 157.271 173.007C156.916 173.626 156.739 174.503 156.739 175.636C156.739 176.392 156.818 177.034 156.977 177.562C157.136 178.091 157.365 178.493 157.663 178.768C157.964 179.044 158.327 179.182 158.75 179.182ZM166.506 170.864L163.693 181.312H162.773L165.585 170.864H166.506ZM167.681 180V179.233L170.561 176.08C170.9 175.71 171.178 175.389 171.397 175.116C171.615 174.841 171.777 174.582 171.882 174.341C171.99 174.097 172.044 173.841 172.044 173.574C172.044 173.267 171.971 173.001 171.823 172.777C171.678 172.553 171.479 172.379 171.226 172.257C170.973 172.135 170.689 172.074 170.374 172.074C170.039 172.074 169.746 172.143 169.496 172.283C169.249 172.419 169.057 172.611 168.921 172.858C168.787 173.105 168.721 173.395 168.721 173.727H167.715C167.715 173.216 167.833 172.767 168.069 172.381C168.304 171.994 168.625 171.693 169.032 171.477C169.441 171.261 169.9 171.153 170.408 171.153C170.919 171.153 171.373 171.261 171.767 171.477C172.162 171.693 172.472 171.984 172.696 172.351C172.921 172.717 173.033 173.125 173.033 173.574C173.033 173.895 172.975 174.209 172.858 174.516C172.745 174.82 172.546 175.159 172.262 175.534C171.98 175.906 171.59 176.361 171.09 176.898L169.13 178.994V179.062H173.186V180H167.681ZM183.248 173.455C183.196 173.023 182.989 172.688 182.625 172.449C182.262 172.21 181.816 172.091 181.287 172.091C180.901 172.091 180.563 172.153 180.273 172.278C179.986 172.403 179.762 172.575 179.6 172.794C179.441 173.013 179.361 173.261 179.361 173.54C179.361 173.773 179.417 173.973 179.527 174.141C179.641 174.305 179.786 174.443 179.962 174.554C180.138 174.662 180.323 174.751 180.516 174.822C180.709 174.891 180.887 174.946 181.049 174.989L181.935 175.227C182.162 175.287 182.415 175.369 182.694 175.474C182.975 175.58 183.243 175.723 183.499 175.905C183.757 176.084 183.971 176.314 184.138 176.595C184.306 176.876 184.39 177.222 184.39 177.631C184.39 178.102 184.266 178.528 184.019 178.909C183.775 179.29 183.417 179.592 182.945 179.817C182.476 180.041 181.907 180.153 181.236 180.153C180.611 180.153 180.07 180.053 179.613 179.851C179.158 179.649 178.8 179.368 178.539 179.007C178.28 178.646 178.134 178.227 178.1 177.75H179.191C179.219 178.08 179.33 178.352 179.523 178.568C179.719 178.781 179.966 178.94 180.265 179.045C180.566 179.148 180.89 179.199 181.236 179.199C181.64 179.199 182.002 179.134 182.323 179.003C182.644 178.869 182.898 178.685 183.086 178.449C183.273 178.21 183.367 177.932 183.367 177.614C183.367 177.324 183.286 177.088 183.124 176.906C182.962 176.724 182.749 176.577 182.485 176.463C182.221 176.349 181.935 176.25 181.628 176.165L180.554 175.858C179.873 175.662 179.333 175.382 178.935 175.018C178.537 174.655 178.338 174.179 178.338 173.591C178.338 173.102 178.471 172.676 178.735 172.312C179.002 171.946 179.36 171.662 179.809 171.46C180.26 171.256 180.765 171.153 181.321 171.153C181.884 171.153 182.384 171.254 182.821 171.456C183.259 171.655 183.605 171.928 183.861 172.274C184.12 172.621 184.256 173.014 184.27 173.455H183.248ZM190.116 177.324V173.455H191.121V180H190.116V178.892H190.048C189.894 179.224 189.656 179.507 189.332 179.74C189.008 179.97 188.599 180.085 188.104 180.085C187.695 180.085 187.332 179.996 187.013 179.817C186.695 179.635 186.445 179.362 186.263 178.999C186.082 178.632 185.991 178.17 185.991 177.614V173.455H186.996V177.545C186.996 178.023 187.13 178.403 187.397 178.688C187.667 178.972 188.011 179.114 188.428 179.114C188.678 179.114 188.933 179.05 189.191 178.922C189.452 178.794 189.671 178.598 189.847 178.334C190.026 178.07 190.116 177.733 190.116 177.324ZM193.1 180V171.273H194.105V174.494H194.191C194.265 174.381 194.367 174.236 194.498 174.06C194.631 173.881 194.821 173.722 195.069 173.582C195.319 173.44 195.657 173.369 196.083 173.369C196.634 173.369 197.12 173.507 197.54 173.783C197.961 174.058 198.289 174.449 198.525 174.955C198.76 175.46 198.878 176.057 198.878 176.744C198.878 177.438 198.76 178.038 198.525 178.547C198.289 179.053 197.962 179.445 197.544 179.723C197.127 179.999 196.645 180.136 196.1 180.136C195.679 180.136 195.343 180.067 195.09 179.928C194.837 179.786 194.642 179.625 194.506 179.446C194.37 179.264 194.265 179.114 194.191 178.994H194.071V180H193.1ZM194.088 176.727C194.088 177.222 194.161 177.658 194.306 178.036C194.451 178.411 194.662 178.705 194.941 178.918C195.219 179.128 195.56 179.233 195.963 179.233C196.384 179.233 196.735 179.122 197.016 178.901C197.3 178.676 197.513 178.375 197.655 177.997C197.8 177.616 197.873 177.193 197.873 176.727C197.873 176.267 197.801 175.852 197.659 175.483C197.52 175.111 197.309 174.817 197.025 174.601C196.743 174.382 196.39 174.273 195.963 174.273C195.554 174.273 195.211 174.376 194.932 174.584C194.654 174.788 194.444 175.075 194.301 175.445C194.159 175.811 194.088 176.239 194.088 176.727ZM203.263 173.455V174.307H199.871V173.455H203.263ZM200.86 171.886H201.865V178.125C201.865 178.409 201.907 178.622 201.989 178.764C202.074 178.903 202.182 178.997 202.313 179.045C202.446 179.091 202.587 179.114 202.735 179.114C202.846 179.114 202.936 179.108 203.007 179.097C203.078 179.082 203.135 179.071 203.178 179.062L203.382 179.966C203.314 179.991 203.219 180.017 203.097 180.043C202.975 180.071 202.82 180.085 202.632 180.085C202.348 180.085 202.07 180.024 201.797 179.902C201.527 179.78 201.303 179.594 201.124 179.344C200.948 179.094 200.86 178.778 200.86 178.398V171.886ZM206.702 180.153C206.287 180.153 205.911 180.075 205.573 179.919C205.235 179.76 204.966 179.531 204.767 179.233C204.569 178.932 204.469 178.568 204.469 178.142C204.469 177.767 204.543 177.463 204.691 177.23C204.838 176.994 205.036 176.81 205.283 176.676C205.53 176.543 205.803 176.443 206.101 176.378C206.402 176.31 206.705 176.256 207.009 176.216C207.407 176.165 207.729 176.126 207.976 176.101C208.226 176.072 208.408 176.026 208.522 175.96C208.638 175.895 208.696 175.781 208.696 175.619V175.585C208.696 175.165 208.581 174.838 208.351 174.605C208.124 174.372 207.779 174.256 207.316 174.256C206.836 174.256 206.459 174.361 206.186 174.571C205.914 174.781 205.722 175.006 205.611 175.244L204.657 174.903C204.827 174.506 205.054 174.196 205.338 173.974C205.625 173.75 205.938 173.594 206.276 173.506C206.617 173.415 206.952 173.369 207.282 173.369C207.492 173.369 207.733 173.395 208.006 173.446C208.282 173.494 208.547 173.595 208.803 173.749C209.061 173.902 209.276 174.134 209.446 174.443C209.617 174.753 209.702 175.168 209.702 175.688V180H208.696V179.114H208.645C208.577 179.256 208.463 179.408 208.304 179.57C208.145 179.732 207.934 179.869 207.669 179.983C207.405 180.097 207.083 180.153 206.702 180.153ZM206.855 179.25C207.253 179.25 207.588 179.172 207.861 179.016C208.137 178.859 208.344 178.658 208.483 178.411C208.625 178.163 208.696 177.903 208.696 177.631V176.71C208.654 176.761 208.56 176.808 208.415 176.851C208.273 176.891 208.108 176.926 207.921 176.957C207.736 176.986 207.556 177.011 207.38 177.034C207.206 177.054 207.066 177.071 206.958 177.085C206.696 177.119 206.452 177.175 206.225 177.251C206 177.325 205.819 177.437 205.679 177.588C205.543 177.736 205.475 177.937 205.475 178.193C205.475 178.543 205.604 178.807 205.863 178.986C206.124 179.162 206.455 179.25 206.855 179.25ZM216.174 174.92L215.271 175.176C215.214 175.026 215.13 174.879 215.019 174.737C214.911 174.592 214.763 174.473 214.576 174.379C214.388 174.286 214.148 174.239 213.856 174.239C213.455 174.239 213.121 174.331 212.854 174.516C212.59 174.697 212.458 174.929 212.458 175.21C212.458 175.46 212.549 175.658 212.731 175.803C212.913 175.947 213.197 176.068 213.583 176.165L214.555 176.403C215.14 176.545 215.576 176.763 215.863 177.055C216.15 177.345 216.293 177.719 216.293 178.176C216.293 178.551 216.185 178.886 215.969 179.182C215.756 179.477 215.458 179.71 215.075 179.881C214.691 180.051 214.245 180.136 213.737 180.136C213.069 180.136 212.516 179.991 212.079 179.702C211.641 179.412 211.364 178.989 211.248 178.432L212.202 178.193C212.293 178.545 212.465 178.81 212.718 178.986C212.974 179.162 213.308 179.25 213.719 179.25C214.188 179.25 214.56 179.151 214.836 178.952C215.114 178.75 215.254 178.509 215.254 178.227C215.254 178 215.174 177.81 215.015 177.656C214.856 177.5 214.612 177.384 214.282 177.307L213.191 177.051C212.592 176.909 212.151 176.689 211.87 176.391C211.592 176.089 211.452 175.713 211.452 175.261C211.452 174.892 211.556 174.565 211.763 174.281C211.974 173.997 212.259 173.774 212.62 173.612C212.984 173.45 213.396 173.369 213.856 173.369C214.504 173.369 215.012 173.511 215.381 173.795C215.754 174.08 216.018 174.455 216.174 174.92ZM218.745 177.614L218.728 176.369H218.932L221.796 173.455H223.04L219.989 176.54H219.904L218.745 177.614ZM217.807 180V171.273H218.813V180H217.807ZM221.966 180L219.409 176.761L220.125 176.062L223.245 180H221.966ZM228.971 174.92L228.067 175.176C228.011 175.026 227.927 174.879 227.816 174.737C227.708 174.592 227.56 174.473 227.373 174.379C227.185 174.286 226.945 174.239 226.653 174.239C226.252 174.239 225.918 174.331 225.651 174.516C225.387 174.697 225.255 174.929 225.255 175.21C225.255 175.46 225.346 175.658 225.528 175.803C225.71 175.947 225.994 176.068 226.38 176.165L227.352 176.403C227.937 176.545 228.373 176.763 228.66 177.055C228.947 177.345 229.09 177.719 229.09 178.176C229.09 178.551 228.982 178.886 228.766 179.182C228.553 179.477 228.255 179.71 227.871 179.881C227.488 180.051 227.042 180.136 226.533 180.136C225.866 180.136 225.313 179.991 224.876 179.702C224.438 179.412 224.161 178.989 224.045 178.432L224.999 178.193C225.09 178.545 225.262 178.81 225.515 178.986C225.771 179.162 226.104 179.25 226.516 179.25C226.985 179.25 227.357 179.151 227.633 178.952C227.911 178.75 228.05 178.509 228.05 178.227C228.05 178 227.971 177.81 227.812 177.656C227.653 177.5 227.408 177.384 227.079 177.307L225.988 177.051C225.388 176.909 224.948 176.689 224.667 176.391C224.388 176.089 224.249 175.713 224.249 175.261C224.249 174.892 224.353 174.565 224.56 174.281C224.771 173.997 225.056 173.774 225.417 173.612C225.781 173.45 226.192 173.369 226.653 173.369C227.3 173.369 227.809 173.511 228.178 173.795C228.55 174.08 228.815 174.455 228.971 174.92Z" fill="black"/>
<rect x="16" y="209" width="32" height="32" rx="16" fill="white"/>
<circle cx="32" cy="225" r="15.5" fill="#9327FF" stroke="white"/>
<path d="M25.5336 229.19H24.4256L27.6302 220.463H28.7211L31.9256 229.19H30.8177L28.2097 221.844H28.1415L25.5336 229.19ZM25.9427 225.781H30.4086V226.719H25.9427V225.781ZM38.0577 222.645C38.0066 222.213 37.7992 221.878 37.4356 221.639C37.0719 221.401 36.6259 221.281 36.0975 221.281C35.7111 221.281 35.3731 221.344 35.0833 221.469C34.7964 221.594 34.5719 221.766 34.41 221.984C34.2509 222.203 34.1714 222.452 34.1714 222.73C34.1714 222.963 34.2268 223.163 34.3376 223.331C34.4512 223.496 34.5961 223.634 34.7722 223.744C34.9484 223.852 35.133 223.942 35.3262 224.013C35.5194 224.081 35.6969 224.136 35.8589 224.179L36.7452 224.418C36.9725 224.477 37.2253 224.56 37.5038 224.665C37.785 224.77 38.0535 224.913 38.3092 225.095C38.5677 225.274 38.7807 225.504 38.9484 225.786C39.116 226.067 39.1998 226.412 39.1998 226.821C39.1998 227.293 39.0762 227.719 38.829 228.1C38.5847 228.48 38.2268 228.783 37.7552 229.007C37.2864 229.232 36.7168 229.344 36.0464 229.344C35.4214 229.344 34.8802 229.243 34.4228 229.041C33.9682 228.84 33.6103 228.558 33.3489 228.198C33.0904 227.837 32.9441 227.418 32.91 226.94H34.0009C34.0293 227.27 34.1401 227.543 34.3333 227.759C34.5293 227.972 34.7765 228.131 35.0748 228.236C35.3759 228.338 35.6998 228.389 36.0464 228.389C36.4498 228.389 36.812 228.324 37.133 228.193C37.454 228.06 37.7083 227.875 37.8958 227.639C38.0833 227.401 38.1771 227.122 38.1771 226.804C38.1771 226.514 38.0961 226.278 37.9342 226.097C37.7722 225.915 37.5592 225.767 37.295 225.653C37.0307 225.54 36.7452 225.44 36.4384 225.355L35.3646 225.048C34.6827 224.852 34.143 224.573 33.7452 224.209C33.3475 223.845 33.1486 223.369 33.1486 222.781C33.1486 222.293 33.2807 221.867 33.545 221.503C33.812 221.136 34.17 220.852 34.6188 220.651C35.0705 220.446 35.5748 220.344 36.1316 220.344C36.6941 220.344 37.1941 220.445 37.6316 220.646C38.0691 220.845 38.4157 221.118 38.6714 221.465C38.9299 221.811 39.0663 222.205 39.0805 222.645H38.0577Z" fill="white"/>
<rect x="40" y="209" width="32" height="32" rx="16" fill="white"/>
<circle cx="56" cy="225" r="15.5" fill="#FC71FF" stroke="white"/>
<path d="M51.8512 229.19H49.1581V220.463H51.9706C52.8171 220.463 53.5416 220.638 54.1439 220.987C54.7461 221.334 55.2078 221.832 55.5288 222.483C55.8498 223.131 56.0103 223.906 56.0103 224.81C56.0103 225.719 55.8484 226.502 55.5245 227.158C55.2007 227.811 54.7291 228.314 54.1098 228.666C53.4904 229.016 52.7376 229.19 51.8512 229.19ZM50.2149 228.253H51.7831C52.5046 228.253 53.1027 228.114 53.5771 227.835C54.0515 227.557 54.4052 227.161 54.6382 226.646C54.8711 226.132 54.9876 225.52 54.9876 224.81C54.9876 224.105 54.8725 223.499 54.6424 222.99C54.4123 222.479 54.0686 222.087 53.6112 221.814C53.1538 221.538 52.5842 221.401 51.9024 221.401H50.2149V228.253ZM57.7831 229.19V220.463H63.0501V221.401H58.8399V224.35H62.7774V225.287H58.8399V228.253H63.1183V229.19H57.7831Z" fill="white"/>
<rect x="64" y="209" width="32" height="32" rx="16" fill="white"/>
<circle cx="80" cy="225" r="15.5" fill="#FFBB2B" stroke="white"/>
<path d="M73.9491 229.19V220.463H79.2161V221.401H75.0059V224.35H78.9434V225.287H75.0059V228.253H79.2843V229.19H73.9491ZM81.1209 229.19V220.463H86.3539V221.401H82.1778V224.35H85.9619V225.287H82.1778V229.19H81.1209Z" fill="white"/>
<g clip-path="url(#clip0_171427_1485)">
<path d="M220 223.755C220.199 223.754 220.394 223.816 220.554 223.931L228.123 229.365C228.221 229.436 228.304 229.525 228.368 229.627C228.431 229.729 228.472 229.842 228.491 229.96C228.527 230.198 228.465 230.44 228.318 230.633C228.171 230.827 227.951 230.955 227.707 230.991C227.462 231.027 227.213 230.966 227.014 230.823L220 225.792L212.986 230.823C212.887 230.894 212.775 230.945 212.657 230.974C212.538 231.003 212.414 231.009 212.293 230.991C212.172 230.973 212.056 230.933 211.951 230.871C211.846 230.81 211.754 230.729 211.682 230.633C211.609 230.538 211.556 230.429 211.527 230.313C211.497 230.198 211.491 230.078 211.509 229.96C211.528 229.842 211.569 229.729 211.633 229.627C211.696 229.525 211.779 229.436 211.877 229.365L219.446 223.931C219.606 223.816 219.801 223.754 220 223.755Z" fill="#FF3D00"/>
<path d="M220 219C220.199 219 220.394 219.061 220.554 219.176L228.123 224.61C228.322 224.753 228.454 224.967 228.491 225.205C228.527 225.443 228.465 225.685 228.318 225.878C228.171 226.072 227.951 226.2 227.707 226.236C227.462 226.272 227.213 226.211 227.014 226.069L220 221.038L212.986 226.069C212.787 226.211 212.538 226.272 212.293 226.236C212.049 226.2 211.829 226.072 211.682 225.878C211.535 225.685 211.473 225.443 211.509 225.205C211.546 224.967 211.678 224.753 211.877 224.61L219.446 219.176C219.606 219.061 219.801 219 220 219Z" fill="#FF3D00"/>
</g>
</g>
<defs>
<filter id="filter0_d_171427_1485" x="-13" y="0" width="278" height="270" filterUnits="userSpaceOnUse" color-interpolation-filters="sRGB">
<feFlood flood-opacity="0" result="BackgroundImageFix"/>
<feColorMatrix in="SourceAlpha" type="matrix" values="0 0 0 0 0 0 0 0 0 0 0 0 0 0 0 0 0 0 127 0" result="hardAlpha"/>
<feMorphology radius="3" operator="dilate" in="SourceAlpha" result="effect1_dropShadow_171427_1485"/>
<feOffset/>
<feGaussianBlur stdDeviation="5"/>
<feComposite in2="hardAlpha" operator="out"/>
<feColorMatrix type="matrix" values="0 0 0 0 0 0 0 0 0 0 0 0 0 0 0 0 0 0 0.08 0"/>
<feBlend mode="normal" in2="BackgroundImageFix" result="effect1_dropShadow_171427_1485"/>
<feBlend mode="normal" in="SourceGraphic" in2="effect1_dropShadow_171427_1485" result="shape"/>
</filter>
<clipPath id="clip0_171427_1485">
<rect width="17" height="12" fill="white" transform="translate(228.5 231) rotate(-180)"/>
</clipPath>
</defs>
</svg>
