<svg width="134" height="134" viewBox="0 0 134 134" fill="none" xmlns="http://www.w3.org/2000/svg">
<g filter="url(#filter0_d_597_4094)">
<rect x="7" y="7" width="120" height="120" rx="60" fill="white"/>
<rect x="5.5" y="5.5" width="123" height="123" rx="61.5" stroke="white" stroke-width="3"/>
<circle cx="67" cy="67" r="60" fill="#FF7A00"/>
<path d="M36.0988 83.7144H30.6244L42.9252 49.5325H48.8836L61.1844 83.7144H55.71L46.0463 55.7413H45.7792L36.0988 83.7144ZM37.0168 70.3287H54.7753V74.6682H37.0168V70.3287ZM66.1206 49.5325H72.3794L83.2615 76.1036H83.6621L94.5442 49.5325H100.803V83.7144H95.8961V58.9793H95.579L85.498 83.6643H81.4256L71.3446 58.9626H71.0275V83.7144H66.1206V49.5325Z" fill="white"/>
</g>
<defs>
<filter id="filter0_d_597_4094" x="0" y="0" width="134" height="134" filterUnits="userSpaceOnUse" color-interpolation-filters="sRGB">
<feFlood flood-opacity="0" result="BackgroundImageFix"/>
<feColorMatrix in="SourceAlpha" type="matrix" values="0 0 0 0 0 0 0 0 0 0 0 0 0 0 0 0 0 0 127 0" result="hardAlpha"/>
<feOffset/>
<feGaussianBlur stdDeviation="2"/>
<feColorMatrix type="matrix" values="0 0 0 0 0 0 0 0 0 0 0 0 0 0 0 0 0 0 0.1 0"/>
<feBlend mode="normal" in2="BackgroundImageFix" result="effect1_dropShadow_597_4094"/>
<feBlend mode="normal" in="SourceGraphic" in2="effect1_dropShadow_597_4094" result="shape"/>
</filter>
</defs>
</svg>
