<svg width="113" height="28" viewBox="0 0 113 28" fill="none" xmlns="http://www.w3.org/2000/svg">
<rect y="0.5" width="113" height="27" rx="8" fill="#0038FF"/>
<path d="M25.0455 7.86364H26.4545V15.5682C26.4545 16.3636 26.267 17.0739 25.892 17.6989C25.5208 18.3201 24.9962 18.8106 24.3182 19.1705C23.6402 19.5265 22.8447 19.7045 21.9318 19.7045C21.0189 19.7045 20.2235 19.5265 19.5455 19.1705C18.8674 18.8106 18.3409 18.3201 17.9659 17.6989C17.5947 17.0739 17.4091 16.3636 17.4091 15.5682V7.86364H18.8182V15.4545C18.8182 16.0227 18.9432 16.5284 19.1932 16.9716C19.4432 17.411 19.7992 17.7576 20.2614 18.0114C20.7273 18.2614 21.2841 18.3864 21.9318 18.3864C22.5795 18.3864 23.1364 18.2614 23.6023 18.0114C24.0682 17.7576 24.4242 17.411 24.6705 16.9716C24.9205 16.5284 25.0455 16.0227 25.0455 15.4545V7.86364ZM35.2685 12.7273L34.0639 13.0682C33.9882 12.8674 33.8764 12.6723 33.7287 12.483C33.5848 12.2898 33.3878 12.1307 33.1378 12.0057C32.8878 11.8807 32.5677 11.8182 32.1776 11.8182C31.6435 11.8182 31.1984 11.9413 30.8423 12.1875C30.4901 12.4299 30.3139 12.7386 30.3139 13.1136C30.3139 13.447 30.4351 13.7102 30.6776 13.9034C30.92 14.0966 31.2988 14.2576 31.8139 14.3864L33.1094 14.7045C33.8897 14.8939 34.4711 15.1837 34.8537 15.5739C35.2363 15.9602 35.4276 16.4583 35.4276 17.0682C35.4276 17.5682 35.2836 18.0152 34.9957 18.4091C34.7116 18.803 34.3139 19.1136 33.8026 19.3409C33.2912 19.5682 32.6965 19.6818 32.0185 19.6818C31.1283 19.6818 30.3916 19.4886 29.8082 19.1023C29.2249 18.7159 28.8556 18.1515 28.7003 17.4091L29.973 17.0909C30.0942 17.5606 30.3234 17.9129 30.6605 18.1477C31.0014 18.3826 31.4465 18.5 31.9957 18.5C32.6207 18.5 33.117 18.3674 33.4844 18.1023C33.8556 17.8333 34.0412 17.5114 34.0412 17.1364C34.0412 16.8333 33.9351 16.5795 33.723 16.375C33.5109 16.1667 33.1851 16.0114 32.7457 15.9091L31.2912 15.5682C30.492 15.3788 29.9048 15.0852 29.5298 14.6875C29.1586 14.286 28.973 13.7841 28.973 13.1818C28.973 12.6894 29.1113 12.2538 29.3878 11.875C29.6681 11.4962 30.0488 11.1989 30.5298 10.983C31.0147 10.767 31.5639 10.6591 32.1776 10.6591C33.0412 10.6591 33.7192 10.8485 34.2116 11.2273C34.7079 11.6061 35.0601 12.1061 35.2685 12.7273ZM41.1051 19.6818C40.2642 19.6818 39.5388 19.4962 38.929 19.125C38.3229 18.75 37.8551 18.2273 37.5256 17.5568C37.1998 16.8826 37.0369 16.0985 37.0369 15.2045C37.0369 14.3106 37.1998 13.5227 37.5256 12.8409C37.8551 12.1553 38.3134 11.6212 38.9006 11.2386C39.4915 10.8523 40.1809 10.6591 40.9688 10.6591C41.4233 10.6591 41.8722 10.7348 42.3153 10.8864C42.7585 11.0379 43.1619 11.2841 43.5256 11.625C43.8892 11.9621 44.179 12.4091 44.3949 12.9659C44.6108 13.5227 44.7188 14.2083 44.7188 15.0227V15.5909L37.9915 15.5909V14.4318H43.3551C43.3551 13.9394 43.2566 13.5 43.0597 13.1136C42.8665 12.7273 42.59 12.4223 42.2301 12.1989C41.8741 11.9754 41.4536 11.8636 40.9688 11.8636C40.4347 11.8636 39.9725 11.9962 39.5824 12.2614C39.196 12.5227 38.8987 12.8636 38.6903 13.2841C38.482 13.7045 38.3778 14.1553 38.3778 14.6364V15.4091C38.3778 16.0682 38.4915 16.6269 38.7188 17.0852C38.9498 17.5398 39.2699 17.8864 39.679 18.125C40.0881 18.3598 40.5634 18.4773 41.1051 18.4773C41.4574 18.4773 41.7756 18.428 42.0597 18.3295C42.3475 18.2273 42.5956 18.0758 42.804 17.875C43.0123 17.6705 43.1733 17.4167 43.2869 17.1136L44.5824 17.4773C44.446 17.9167 44.2169 18.303 43.8949 18.6364C43.5729 18.9659 43.1752 19.2235 42.7017 19.4091C42.2282 19.5909 41.696 19.6818 41.1051 19.6818ZM46.7585 19.5V10.7727H48.054V12.0909H48.1449C48.304 11.6591 48.5919 11.3087 49.0085 11.0398C49.4252 10.7708 49.8949 10.6364 50.4176 10.6364C50.5161 10.6364 50.6392 10.6383 50.7869 10.642C50.9347 10.6458 51.0464 10.6515 51.1222 10.6591V12.0227C51.0767 12.0114 50.9725 11.9943 50.8097 11.9716C50.6506 11.9451 50.482 11.9318 50.304 11.9318C49.8797 11.9318 49.5009 12.0208 49.1676 12.1989C48.8381 12.3731 48.5767 12.6155 48.3835 12.9261C48.1941 13.233 48.0994 13.5833 48.0994 13.9773V19.5H46.7585ZM63.7571 10.7727C63.6889 10.197 63.4124 9.75 62.9276 9.43182C62.4427 9.11364 61.848 8.95455 61.1435 8.95455C60.6283 8.95455 60.1776 9.03788 59.7912 9.20455C59.4086 9.37121 59.1094 9.60038 58.8935 9.89205C58.6813 10.1837 58.5753 10.5152 58.5753 10.8864C58.5753 11.197 58.6491 11.464 58.7969 11.6875C58.9484 11.9072 59.1416 12.0909 59.3764 12.2386C59.6113 12.3826 59.8575 12.5019 60.1151 12.5966C60.3726 12.6875 60.6094 12.7614 60.8253 12.8182L62.0071 13.1364C62.3101 13.2159 62.6473 13.3258 63.0185 13.4659C63.3935 13.6061 63.7514 13.7973 64.0923 14.0398C64.437 14.2784 64.7211 14.5852 64.9446 14.9602C65.1681 15.3352 65.2798 15.7955 65.2798 16.3409C65.2798 16.9697 65.1151 17.5379 64.7855 18.0455C64.4598 18.553 63.9825 18.9564 63.3537 19.2557C62.7287 19.5549 61.9692 19.7045 61.0753 19.7045C60.242 19.7045 59.5204 19.5701 58.9105 19.3011C58.3045 19.0322 57.8272 18.6572 57.4787 18.1761C57.134 17.6951 56.9389 17.1364 56.8935 16.5H58.348C58.3859 16.9394 58.5336 17.303 58.7912 17.5909C59.0526 17.875 59.3821 18.0871 59.7798 18.2273C60.1813 18.3636 60.6132 18.4318 61.0753 18.4318C61.6132 18.4318 62.0961 18.3447 62.5241 18.1705C62.9522 17.9924 63.2912 17.7462 63.5412 17.4318C63.7912 17.1136 63.9162 16.7424 63.9162 16.3182C63.9162 15.9318 63.8082 15.6174 63.5923 15.375C63.3764 15.1326 63.0923 14.9356 62.7401 14.7841C62.3878 14.6326 62.0071 14.5 61.598 14.3864L60.1662 13.9773C59.2571 13.7159 58.5374 13.3428 58.0071 12.858C57.4768 12.3731 57.2116 11.7386 57.2116 10.9545C57.2116 10.303 57.3878 9.73485 57.7401 9.25C58.0961 8.76136 58.5734 8.38258 59.1719 8.11364C59.7741 7.84091 60.4465 7.70455 61.1889 7.70455C61.9389 7.70455 62.6056 7.83901 63.1889 8.10795C63.7723 8.37311 64.2344 8.73674 64.5753 9.19886C64.92 9.66098 65.1018 10.1856 65.1207 10.7727H63.7571ZM71.2102 10.7727V11.9091L66.6875 11.9091V10.7727L71.2102 10.7727ZM68.0057 8.68182L69.3466 8.68182V17C69.3466 17.3788 69.4015 17.6629 69.5114 17.8523C69.625 18.0379 69.7689 18.1629 69.9432 18.2273C70.1212 18.2879 70.3087 18.3182 70.5057 18.3182C70.6534 18.3182 70.7746 18.3106 70.8693 18.2955C70.964 18.2765 71.0398 18.2614 71.0966 18.25L71.3693 19.4545C71.2784 19.4886 71.1515 19.5227 70.9886 19.5568C70.8258 19.5947 70.6193 19.6136 70.3693 19.6136C69.9905 19.6136 69.6193 19.5322 69.2557 19.3693C68.8958 19.2064 68.5966 18.9583 68.358 18.625C68.1231 18.2917 68.0057 17.8712 68.0057 17.3636V8.68182ZM76.679 19.6818C75.8911 19.6818 75.1998 19.4943 74.6051 19.1193C74.0142 18.7443 73.5521 18.2197 73.2188 17.5455C72.8892 16.8712 72.7244 16.0833 72.7244 15.1818C72.7244 14.2727 72.8892 13.4792 73.2188 12.8011C73.5521 12.1231 74.0142 11.5966 74.6051 11.2216C75.1998 10.8466 75.8911 10.6591 76.679 10.6591C77.4669 10.6591 78.1563 10.8466 78.7472 11.2216C79.3419 11.5966 79.804 12.1231 80.1335 12.8011C80.4669 13.4792 80.6335 14.2727 80.6335 15.1818C80.6335 16.0833 80.4669 16.8712 80.1335 17.5455C79.804 18.2197 79.3419 18.7443 78.7472 19.1193C78.1563 19.4943 77.4669 19.6818 76.679 19.6818ZM76.679 18.4773C77.2775 18.4773 77.7699 18.3239 78.1562 18.017C78.5426 17.7102 78.8286 17.3068 79.0142 16.8068C79.1998 16.3068 79.2926 15.7652 79.2926 15.1818C79.2926 14.5985 79.1998 14.0549 79.0142 13.5511C78.8286 13.0473 78.5426 12.6402 78.1562 12.3295C77.7699 12.0189 77.2775 11.8636 76.679 11.8636C76.0805 11.8636 75.5881 12.0189 75.2017 12.3295C74.8153 12.6402 74.5294 13.0473 74.3438 13.5511C74.1581 14.0549 74.0653 14.5985 74.0653 15.1818C74.0653 15.7652 74.1581 16.3068 74.3438 16.8068C74.5294 17.3068 74.8153 17.7102 75.2017 18.017C75.5881 18.3239 76.0805 18.4773 76.679 18.4773ZM82.6804 19.5V10.7727H83.9759V12.0909H84.0668C84.2259 11.6591 84.5137 11.3087 84.9304 11.0398C85.3471 10.7708 85.8168 10.6364 86.3395 10.6364C86.438 10.6364 86.5611 10.6383 86.7088 10.642C86.8565 10.6458 86.9683 10.6515 87.044 10.6591V12.0227C86.9986 12.0114 86.8944 11.9943 86.7315 11.9716C86.5724 11.9451 86.4039 11.9318 86.2259 11.9318C85.8016 11.9318 85.4228 12.0208 85.0895 12.1989C84.7599 12.3731 84.4986 12.6155 84.3054 12.9261C84.116 13.233 84.0213 13.5833 84.0213 13.9773V19.5H82.6804ZM89.7628 22.7727C89.5355 22.7727 89.3329 22.7538 89.1548 22.7159C88.9768 22.6818 88.8537 22.6477 88.7855 22.6136L89.1264 21.4318C89.4522 21.5152 89.7401 21.5455 89.9901 21.5227C90.2401 21.5 90.4616 21.3883 90.6548 21.1875C90.8518 20.9905 91.0317 20.6705 91.1946 20.2273L91.4446 19.5455L88.2173 10.7727H89.6719L92.081 17.7273H92.1719L94.581 10.7727H96.0355L92.331 20.7727C92.1643 21.2235 91.9579 21.5966 91.7116 21.892C91.4654 22.1913 91.1795 22.4129 90.8537 22.5568C90.5317 22.7008 90.1681 22.7727 89.7628 22.7727Z" fill="white"/>
</svg>
