<svg width="144" height="28" viewBox="0 0 144 28" fill="none" xmlns="http://www.w3.org/2000/svg">
<rect y="0.5" width="144" height="27" rx="8" fill="#1FD7C1"/>
<path d="M16.7727 9.11364V7.86364L25.5 7.86364V9.11364L21.8409 9.11364L21.8409 19.5H20.4318L20.4318 9.11364H16.7727ZM29.8864 19.6818C29.0455 19.6818 28.3201 19.4962 27.7102 19.125C27.1042 18.75 26.6364 18.2273 26.3068 17.5568C25.9811 16.8826 25.8182 16.0985 25.8182 15.2045C25.8182 14.3106 25.9811 13.5227 26.3068 12.8409C26.6364 12.1553 27.0947 11.6212 27.6818 11.2386C28.2727 10.8523 28.9621 10.6591 29.75 10.6591C30.2045 10.6591 30.6534 10.7348 31.0966 10.8864C31.5398 11.0379 31.9432 11.2841 32.3068 11.625C32.6705 11.9621 32.9602 12.4091 33.1761 12.9659C33.392 13.5227 33.5 14.2083 33.5 15.0227V15.5909L26.7727 15.5909V14.4318H32.1364C32.1364 13.9394 32.0379 13.5 31.8409 13.1136C31.6477 12.7273 31.3712 12.4223 31.0114 12.1989C30.6553 11.9754 30.2348 11.8636 29.75 11.8636C29.2159 11.8636 28.7538 11.9962 28.3636 12.2614C27.9773 12.5227 27.6799 12.8636 27.4716 13.2841C27.2633 13.7045 27.1591 14.1553 27.1591 14.6364V15.4091C27.1591 16.0682 27.2727 16.6269 27.5 17.0852C27.7311 17.5398 28.0511 17.8864 28.4602 18.125C28.8693 18.3598 29.3447 18.4773 29.8864 18.4773C30.2386 18.4773 30.5568 18.428 30.8409 18.3295C31.1288 18.2273 31.3769 18.0758 31.5852 17.875C31.7936 17.6705 31.9545 17.4167 32.0682 17.1136L33.3636 17.4773C33.2273 17.9167 32.9981 18.303 32.6761 18.6364C32.3542 18.9659 31.9564 19.2235 31.483 19.4091C31.0095 19.5909 30.4773 19.6818 29.8864 19.6818ZM39.0852 19.6818C38.267 19.6818 37.5625 19.4886 36.9716 19.1023C36.3807 18.7159 35.9261 18.1837 35.608 17.5057C35.2898 16.8277 35.1307 16.053 35.1307 15.1818C35.1307 14.2955 35.2936 13.5133 35.6193 12.8352C35.9489 12.1534 36.4072 11.6212 36.9943 11.2386C37.5852 10.8523 38.2746 10.6591 39.0625 10.6591C39.6761 10.6591 40.2292 10.7727 40.7216 11C41.214 11.2273 41.6174 11.5455 41.9318 11.9545C42.2462 12.3636 42.4413 12.8409 42.517 13.3864H41.1761C41.0739 12.9886 40.8466 12.6364 40.4943 12.3295C40.1458 12.0189 39.6761 11.8636 39.0852 11.8636C38.5625 11.8636 38.1042 12 37.7102 12.2727C37.3201 12.5417 37.0152 12.9223 36.7955 13.4148C36.5795 13.9034 36.4716 14.4773 36.4716 15.1364C36.4716 15.8106 36.5777 16.3977 36.7898 16.8977C37.0057 17.3977 37.3087 17.786 37.6989 18.0625C38.0928 18.339 38.5549 18.4773 39.0852 18.4773C39.4337 18.4773 39.75 18.4167 40.0341 18.2955C40.3182 18.1742 40.5587 18 40.7557 17.7727C40.9527 17.5455 41.0928 17.2727 41.1761 16.9545H42.517C42.4413 17.4697 42.2538 17.9337 41.9545 18.3466C41.6591 18.7557 41.267 19.0814 40.7784 19.3239C40.2936 19.5625 39.7292 19.6818 39.0852 19.6818ZM45.8182 14.25V19.5H44.4773V7.86364L45.8182 7.86364V12.1364H45.9318C46.1364 11.6856 46.4432 11.3277 46.8523 11.0625C47.2652 10.7936 47.8144 10.6591 48.5 10.6591C49.0947 10.6591 49.6155 10.7784 50.0625 11.017C50.5095 11.2519 50.8561 11.6136 51.1023 12.1023C51.3523 12.5871 51.4773 13.2045 51.4773 13.9545V19.5H50.1364V14.0455C50.1364 13.3523 49.9564 12.8163 49.5966 12.4375C49.2405 12.0549 48.7462 11.8636 48.1136 11.8636C47.6742 11.8636 47.2803 11.9564 46.9318 12.142C46.5871 12.3277 46.3144 12.5985 46.1136 12.9545C45.9167 13.3106 45.8182 13.7424 45.8182 14.25ZM55.2713 14.25V19.5H53.9304V10.7727H55.2259V12.1364H55.3395C55.544 11.6932 55.8546 11.3371 56.2713 11.0682C56.688 10.7955 57.2259 10.6591 57.8849 10.6591C58.4759 10.6591 58.9929 10.7803 59.4361 11.0227C59.8793 11.2614 60.224 11.625 60.4702 12.1136C60.7164 12.5985 60.8395 13.2121 60.8395 13.9545V19.5H59.4986V14.0455C59.4986 13.3598 59.3205 12.8258 58.9645 12.4432C58.6084 12.0568 58.1198 11.8636 57.4986 11.8636C57.0705 11.8636 56.688 11.9564 56.3509 12.142C56.0175 12.3277 55.7543 12.5985 55.5611 12.9545C55.3679 13.3106 55.2713 13.7424 55.2713 14.25ZM63.2898 19.5V10.7727H64.6307V19.5H63.2898ZM63.9716 9.31818C63.7102 9.31818 63.4848 9.22917 63.2955 9.05114C63.1098 8.87311 63.017 8.65909 63.017 8.40909C63.017 8.15909 63.1098 7.94508 63.2955 7.76705C63.4848 7.58902 63.7102 7.5 63.9716 7.5C64.233 7.5 64.4564 7.58902 64.642 7.76705C64.8314 7.94508 64.9261 8.15909 64.9261 8.40909C64.9261 8.65909 64.8314 8.87311 64.642 9.05114C64.4564 9.22917 64.233 9.31818 63.9716 9.31818ZM70.6321 19.6818C69.8139 19.6818 69.1094 19.4886 68.5185 19.1023C67.9276 18.7159 67.473 18.1837 67.1548 17.5057C66.8366 16.8277 66.6776 16.053 66.6776 15.1818C66.6776 14.2955 66.8404 13.5133 67.1662 12.8352C67.4957 12.1534 67.9541 11.6212 68.5412 11.2386C69.1321 10.8523 69.8215 10.6591 70.6094 10.6591C71.223 10.6591 71.776 10.7727 72.2685 11C72.7609 11.2273 73.1643 11.5455 73.4787 11.9545C73.7931 12.3636 73.9882 12.8409 74.0639 13.3864H72.723C72.6207 12.9886 72.3935 12.6364 72.0412 12.3295C71.6927 12.0189 71.223 11.8636 70.6321 11.8636C70.1094 11.8636 69.651 12 69.2571 12.2727C68.867 12.5417 68.562 12.9223 68.3423 13.4148C68.1264 13.9034 68.0185 14.4773 68.0185 15.1364C68.0185 15.8106 68.1245 16.3977 68.3366 16.8977C68.5526 17.3977 68.8556 17.786 69.2457 18.0625C69.6397 18.339 70.1018 18.4773 70.6321 18.4773C70.9806 18.4773 71.2969 18.4167 71.581 18.2955C71.8651 18.1742 72.1056 18 72.3026 17.7727C72.4995 17.5455 72.6397 17.2727 72.723 16.9545H74.0639C73.9882 17.4697 73.8007 17.9337 73.5014 18.3466C73.206 18.7557 72.8139 19.0814 72.3253 19.3239C71.8404 19.5625 71.276 19.6818 70.6321 19.6818ZM78.5923 19.7045C78.0393 19.7045 77.5374 19.6004 77.0866 19.392C76.6359 19.1799 76.2779 18.875 76.0128 18.4773C75.7476 18.0758 75.6151 17.5909 75.6151 17.0227C75.6151 16.5227 75.7135 16.1174 75.9105 15.8068C76.1075 15.4924 76.3707 15.2462 76.7003 15.0682C77.0298 14.8902 77.3935 14.7576 77.7912 14.6705C78.1927 14.5795 78.5961 14.5076 79.0014 14.4545C79.5317 14.3864 79.9616 14.3352 80.2912 14.3011C80.6245 14.2633 80.867 14.2008 81.0185 14.1136C81.1738 14.0265 81.2514 13.875 81.2514 13.6591V13.6136C81.2514 13.053 81.098 12.6174 80.7912 12.3068C80.4882 11.9962 80.0279 11.8409 79.4105 11.8409C78.7704 11.8409 78.2685 11.9811 77.9048 12.2614C77.5412 12.5417 77.2855 12.8409 77.1378 13.1591L75.8651 12.7045C76.0923 12.1742 76.3954 11.7614 76.7741 11.4659C77.1567 11.1667 77.5734 10.9583 78.0241 10.8409C78.4787 10.7197 78.9257 10.6591 79.3651 10.6591C79.6454 10.6591 79.9673 10.6932 80.331 10.7614C80.6984 10.8258 81.0526 10.9602 81.3935 11.1648C81.7382 11.3693 82.0241 11.678 82.2514 12.0909C82.4787 12.5038 82.5923 13.0568 82.5923 13.75V19.5H81.2514V18.3182H81.1832C81.0923 18.5076 80.9408 18.7102 80.7287 18.9261C80.5166 19.142 80.2344 19.3258 79.8821 19.4773C79.5298 19.6288 79.0999 19.7045 78.5923 19.7045ZM78.7969 18.5C79.3272 18.5 79.7741 18.3958 80.1378 18.1875C80.5052 17.9792 80.7817 17.7102 80.9673 17.3807C81.1567 17.0511 81.2514 16.7045 81.2514 16.3409V15.1136C81.1946 15.1818 81.0696 15.2443 80.8764 15.3011C80.687 15.3542 80.4673 15.4015 80.2173 15.4432C79.9711 15.4811 79.7306 15.5152 79.4957 15.5455C79.2647 15.572 79.0772 15.5947 78.9332 15.6136C78.5848 15.6591 78.259 15.733 77.956 15.8352C77.6567 15.9337 77.4143 16.0833 77.2287 16.2841C77.0469 16.4811 76.956 16.75 76.956 17.0909C76.956 17.5568 77.1283 17.9091 77.473 18.1477C77.8215 18.3826 78.2628 18.5 78.7969 18.5ZM86.3807 7.86364V19.5H85.0398V7.86364H86.3807ZM92.8821 9.11364V7.86364L101.609 7.86364V9.11364H97.9503V19.5H96.5412V9.11364L92.8821 9.11364ZM104.983 19.7045C104.43 19.7045 103.928 19.6004 103.477 19.392C103.027 19.1799 102.669 18.875 102.403 18.4773C102.138 18.0758 102.006 17.5909 102.006 17.0227C102.006 16.5227 102.104 16.1174 102.301 15.8068C102.498 15.4924 102.761 15.2462 103.091 15.0682C103.42 14.8902 103.784 14.7576 104.182 14.6705C104.583 14.5795 104.987 14.5076 105.392 14.4545C105.922 14.3864 106.352 14.3352 106.682 14.3011C107.015 14.2633 107.258 14.2008 107.409 14.1136C107.564 14.0265 107.642 13.875 107.642 13.6591V13.6136C107.642 13.053 107.489 12.6174 107.182 12.3068C106.879 11.9962 106.419 11.8409 105.801 11.8409C105.161 11.8409 104.659 11.9811 104.295 12.2614C103.932 12.5417 103.676 12.8409 103.528 13.1591L102.256 12.7045C102.483 12.1742 102.786 11.7614 103.165 11.4659C103.547 11.1667 103.964 10.9583 104.415 10.8409C104.869 10.7197 105.316 10.6591 105.756 10.6591C106.036 10.6591 106.358 10.6932 106.722 10.7614C107.089 10.8258 107.443 10.9602 107.784 11.1648C108.129 11.3693 108.415 11.678 108.642 12.0909C108.869 12.5038 108.983 13.0568 108.983 13.75V19.5H107.642V18.3182H107.574C107.483 18.5076 107.331 18.7102 107.119 18.9261C106.907 19.142 106.625 19.3258 106.273 19.4773C105.92 19.6288 105.491 19.7045 104.983 19.7045ZM105.188 18.5C105.718 18.5 106.165 18.3958 106.528 18.1875C106.896 17.9792 107.172 17.7102 107.358 17.3807C107.547 17.0511 107.642 16.7045 107.642 16.3409V15.1136C107.585 15.1818 107.46 15.2443 107.267 15.3011C107.078 15.3542 106.858 15.4015 106.608 15.4432C106.362 15.4811 106.121 15.5152 105.886 15.5455C105.655 15.572 105.468 15.5947 105.324 15.6136C104.975 15.6591 104.65 15.733 104.347 15.8352C104.047 15.9337 103.805 16.0833 103.619 16.2841C103.438 16.4811 103.347 16.75 103.347 17.0909C103.347 17.5568 103.519 17.9091 103.864 18.1477C104.212 18.3826 104.653 18.5 105.188 18.5ZM117.612 12.7273L116.408 13.0682C116.332 12.8674 116.22 12.6723 116.072 12.483C115.929 12.2898 115.732 12.1307 115.482 12.0057C115.232 11.8807 114.911 11.8182 114.521 11.8182C113.987 11.8182 113.542 11.9413 113.186 12.1875C112.834 12.4299 112.658 12.7386 112.658 13.1136C112.658 13.447 112.779 13.7102 113.021 13.9034C113.264 14.0966 113.643 14.2576 114.158 14.3864L115.453 14.7045C116.233 14.8939 116.815 15.1837 117.197 15.5739C117.58 15.9602 117.771 16.4583 117.771 17.0682C117.771 17.5682 117.627 18.0152 117.339 18.4091C117.055 18.803 116.658 19.1136 116.146 19.3409C115.635 19.5682 115.04 19.6818 114.362 19.6818C113.472 19.6818 112.735 19.4886 112.152 19.1023C111.569 18.7159 111.199 18.1515 111.044 17.4091L112.317 17.0909C112.438 17.5606 112.667 17.9129 113.004 18.1477C113.345 18.3826 113.79 18.5 114.339 18.5C114.964 18.5 115.461 18.3674 115.828 18.1023C116.199 17.8333 116.385 17.5114 116.385 17.1364C116.385 16.8333 116.279 16.5795 116.067 16.375C115.855 16.1667 115.529 16.0114 115.089 15.9091L113.635 15.5682C112.836 15.3788 112.249 15.0852 111.874 14.6875C111.502 14.286 111.317 13.7841 111.317 13.1818C111.317 12.6894 111.455 12.2538 111.732 11.875C112.012 11.4962 112.393 11.1989 112.874 10.983C113.358 10.767 113.908 10.6591 114.521 10.6591C115.385 10.6591 116.063 10.8485 116.555 11.2273C117.052 11.6061 117.404 12.1061 117.612 12.7273ZM121.04 16.3182L121.017 14.6591H121.29L125.108 10.7727H126.767L122.699 14.8864H122.585L121.04 16.3182ZM119.79 19.5V7.86364H121.131V19.5L119.79 19.5ZM125.335 19.5L121.926 15.1818L122.881 14.25L127.04 19.5H125.335Z" fill="white"/>
</svg>
