<svg width="262" height="58" viewBox="0 0 262 58" fill="none" xmlns="http://www.w3.org/2000/svg">
<g filter="url(#filter0_d_195316_5460)">
<rect x="5" y="5" width="252" height="48" rx="10" fill="#E7E7E7"/>
<rect x="5" y="5" width="252" height="48" rx="10" stroke="#A8A8A8" stroke-dasharray="2 4"/>
<path d="M86.9922 35.5H85.4609L79.2344 25.9062H79.1719C79.1875 26.1615 79.2057 26.4531 79.2266 26.7812C79.2474 27.1042 79.263 27.4505 79.2734 27.8203C79.2891 28.1849 79.2969 28.5573 79.2969 28.9375V35.5H78.0625V24.0781H79.5859L85.7891 33.6406H85.8438C85.8333 33.4583 85.8203 33.2005 85.8047 32.8672C85.7891 32.5286 85.7734 32.1667 85.7578 31.7812C85.7474 31.3906 85.7422 31.0286 85.7422 30.6953V24.0781H86.9922V35.5ZM97.2969 31.2031C97.2969 31.9062 97.2057 32.5339 97.0234 33.0859C96.8411 33.638 96.5781 34.1042 96.2344 34.4844C95.8906 34.8646 95.474 35.1562 94.9844 35.3594C94.5 35.5573 93.9505 35.6562 93.3359 35.6562C92.763 35.6562 92.237 35.5573 91.7578 35.3594C91.2839 35.1562 90.8724 34.8646 90.5234 34.4844C90.1797 34.1042 89.9115 33.638 89.7188 33.0859C89.5312 32.5339 89.4375 31.9062 89.4375 31.2031C89.4375 30.2656 89.5964 29.4688 89.9141 28.8125C90.2318 28.151 90.6849 27.6484 91.2734 27.3047C91.8672 26.9557 92.5729 26.7812 93.3906 26.7812C94.1719 26.7812 94.8542 26.9557 95.4375 27.3047C96.026 27.6536 96.4818 28.1589 96.8047 28.8203C97.1328 29.4766 97.2969 30.2708 97.2969 31.2031ZM90.7812 31.2031C90.7812 31.8906 90.8724 32.487 91.0547 32.9922C91.237 33.4974 91.5182 33.888 91.8984 34.1641C92.2786 34.4401 92.7682 34.5781 93.3672 34.5781C93.9609 34.5781 94.4479 34.4401 94.8281 34.1641C95.2135 33.888 95.4974 33.4974 95.6797 32.9922C95.862 32.487 95.9531 31.8906 95.9531 31.2031C95.9531 30.5208 95.862 29.9323 95.6797 29.4375C95.4974 28.9375 95.2161 28.5521 94.8359 28.2812C94.4557 28.0104 93.9635 27.875 93.3594 27.875C92.4688 27.875 91.8151 28.1693 91.3984 28.7578C90.987 29.3464 90.7812 30.1615 90.7812 31.2031ZM106.461 34.5938C106.674 34.5938 106.893 34.5755 107.117 34.5391C107.341 34.5026 107.523 34.4583 107.664 34.4062V35.4141C107.513 35.4818 107.302 35.5391 107.031 35.5859C106.766 35.6328 106.505 35.6562 106.25 35.6562C105.797 35.6562 105.385 35.5781 105.016 35.4219C104.646 35.2604 104.349 34.9896 104.125 34.6094C103.906 34.2292 103.797 33.7031 103.797 33.0312V27.9531H102.578V27.3203L103.805 26.8125L104.32 24.9531H105.102V26.9375H107.609V27.9531H105.102V32.9922C105.102 33.5286 105.224 33.9297 105.469 34.1953C105.719 34.4609 106.049 34.5938 106.461 34.5938ZM112.602 26.7969C113.622 26.7969 114.38 27.026 114.875 27.4844C115.37 27.9427 115.617 28.6745 115.617 29.6797V35.5H114.672L114.422 34.2344H114.359C114.12 34.5469 113.87 34.8099 113.609 35.0234C113.349 35.2318 113.047 35.3906 112.703 35.5C112.365 35.6042 111.948 35.6562 111.453 35.6562C110.932 35.6562 110.469 35.5651 110.062 35.3828C109.661 35.2005 109.344 34.9245 109.109 34.5547C108.88 34.1849 108.766 33.7161 108.766 33.1484C108.766 32.2943 109.104 31.638 109.781 31.1797C110.458 30.7214 111.49 30.4714 112.875 30.4297L114.352 30.3672V29.8438C114.352 29.1042 114.193 28.5859 113.875 28.2891C113.557 27.9922 113.109 27.8438 112.531 27.8438C112.083 27.8438 111.656 27.9089 111.25 28.0391C110.844 28.1693 110.458 28.3229 110.094 28.5L109.695 27.5156C110.081 27.3177 110.523 27.1484 111.023 27.0078C111.523 26.8672 112.049 26.7969 112.602 26.7969ZM114.336 31.2812L113.031 31.3359C111.964 31.3776 111.211 31.5521 110.773 31.8594C110.336 32.1667 110.117 32.6016 110.117 33.1641C110.117 33.6536 110.266 34.0156 110.562 34.25C110.859 34.4844 111.253 34.6016 111.742 34.6016C112.503 34.6016 113.125 34.3906 113.609 33.9688C114.094 33.5469 114.336 32.9141 114.336 32.0703V31.2812ZM123.828 33.1562C123.828 33.7031 123.69 34.1641 123.414 34.5391C123.143 34.9089 122.753 35.1875 122.242 35.375C121.737 35.5625 121.133 35.6562 120.43 35.6562C119.831 35.6562 119.312 35.6094 118.875 35.5156C118.438 35.4219 118.055 35.2891 117.727 35.1172V33.9219C118.076 34.0938 118.492 34.25 118.977 34.3906C119.461 34.5312 119.956 34.6016 120.461 34.6016C121.201 34.6016 121.737 34.4818 122.07 34.2422C122.404 34.0026 122.57 33.6771 122.57 33.2656C122.57 33.0312 122.503 32.8255 122.367 32.6484C122.237 32.4661 122.016 32.2917 121.703 32.125C121.391 31.9531 120.958 31.7656 120.406 31.5625C119.859 31.3542 119.385 31.1484 118.984 30.9453C118.589 30.737 118.281 30.4844 118.062 30.1875C117.849 29.8906 117.742 29.5052 117.742 29.0312C117.742 28.3073 118.034 27.7526 118.617 27.3672C119.206 26.9766 119.977 26.7812 120.93 26.7812C121.445 26.7812 121.927 26.8333 122.375 26.9375C122.828 27.0365 123.25 27.1719 123.641 27.3438L123.203 28.3828C122.849 28.2318 122.471 28.1042 122.07 28C121.669 27.8958 121.26 27.8438 120.844 27.8438C120.245 27.8438 119.784 27.9427 119.461 28.1406C119.143 28.3385 118.984 28.6094 118.984 28.9531C118.984 29.2188 119.057 29.4375 119.203 29.6094C119.354 29.7812 119.594 29.9427 119.922 30.0938C120.25 30.2448 120.682 30.4219 121.219 30.625C121.755 30.8229 122.219 31.0286 122.609 31.2422C123 31.4505 123.299 31.7057 123.508 32.0078C123.721 32.3047 123.828 32.6875 123.828 33.1562ZM127.203 23.3438V29.6562C127.203 29.8646 127.195 30.1198 127.18 30.4219C127.164 30.7188 127.151 30.9818 127.141 31.2109H127.195C127.305 31.0755 127.464 30.875 127.672 30.6094C127.885 30.3438 128.065 30.1302 128.211 29.9688L131.055 26.9375H132.578L129.133 30.5938L132.828 35.5H131.266L128.242 31.4453L127.203 32.3984V35.5H125.914V23.3438H127.203ZM139.859 33.1562C139.859 33.7031 139.721 34.1641 139.445 34.5391C139.174 34.9089 138.784 35.1875 138.273 35.375C137.768 35.5625 137.164 35.6562 136.461 35.6562C135.862 35.6562 135.344 35.6094 134.906 35.5156C134.469 35.4219 134.086 35.2891 133.758 35.1172V33.9219C134.107 34.0938 134.523 34.25 135.008 34.3906C135.492 34.5312 135.987 34.6016 136.492 34.6016C137.232 34.6016 137.768 34.4818 138.102 34.2422C138.435 34.0026 138.602 33.6771 138.602 33.2656C138.602 33.0312 138.534 32.8255 138.398 32.6484C138.268 32.4661 138.047 32.2917 137.734 32.125C137.422 31.9531 136.99 31.7656 136.438 31.5625C135.891 31.3542 135.417 31.1484 135.016 30.9453C134.62 30.737 134.312 30.4844 134.094 30.1875C133.88 29.8906 133.773 29.5052 133.773 29.0312C133.773 28.3073 134.065 27.7526 134.648 27.3672C135.237 26.9766 136.008 26.7812 136.961 26.7812C137.477 26.7812 137.958 26.8333 138.406 26.9375C138.859 27.0365 139.281 27.1719 139.672 27.3438L139.234 28.3828C138.88 28.2318 138.503 28.1042 138.102 28C137.701 27.8958 137.292 27.8438 136.875 27.8438C136.276 27.8438 135.815 27.9427 135.492 28.1406C135.174 28.3385 135.016 28.6094 135.016 28.9531C135.016 29.2188 135.089 29.4375 135.234 29.6094C135.385 29.7812 135.625 29.9427 135.953 30.0938C136.281 30.2448 136.714 30.4219 137.25 30.625C137.786 30.8229 138.25 31.0286 138.641 31.2422C139.031 31.4505 139.331 31.7057 139.539 32.0078C139.753 32.3047 139.859 32.6875 139.859 33.1562ZM155.367 29.6797C155.367 30.9661 155.133 32.0417 154.664 32.9062C154.195 33.7656 153.516 34.4141 152.625 34.8516C151.74 35.2839 150.664 35.5 149.398 35.5H146.297V24.0781H149.742C150.904 24.0781 151.904 24.2917 152.742 24.7188C153.581 25.1406 154.227 25.7682 154.68 26.6016C155.138 27.4297 155.367 28.4557 155.367 29.6797ZM153.969 29.7266C153.969 28.7005 153.797 27.8542 153.453 27.1875C153.115 26.5208 152.615 26.026 151.953 25.7031C151.297 25.375 150.492 25.2109 149.539 25.2109H147.625V34.3594H149.242C150.815 34.3594 151.995 33.9714 152.781 33.1953C153.573 32.4193 153.969 31.263 153.969 29.7266ZM165.094 31.2031C165.094 31.9062 165.003 32.5339 164.82 33.0859C164.638 33.638 164.375 34.1042 164.031 34.4844C163.688 34.8646 163.271 35.1562 162.781 35.3594C162.297 35.5573 161.747 35.6562 161.133 35.6562C160.56 35.6562 160.034 35.5573 159.555 35.3594C159.081 35.1562 158.669 34.8646 158.32 34.4844C157.977 34.1042 157.708 33.638 157.516 33.0859C157.328 32.5339 157.234 31.9062 157.234 31.2031C157.234 30.2656 157.393 29.4688 157.711 28.8125C158.029 28.151 158.482 27.6484 159.07 27.3047C159.664 26.9557 160.37 26.7812 161.188 26.7812C161.969 26.7812 162.651 26.9557 163.234 27.3047C163.823 27.6536 164.279 28.1589 164.602 28.8203C164.93 29.4766 165.094 30.2708 165.094 31.2031ZM158.578 31.2031C158.578 31.8906 158.669 32.487 158.852 32.9922C159.034 33.4974 159.315 33.888 159.695 34.1641C160.076 34.4401 160.565 34.5781 161.164 34.5781C161.758 34.5781 162.245 34.4401 162.625 34.1641C163.01 33.888 163.294 33.4974 163.477 32.9922C163.659 32.487 163.75 31.8906 163.75 31.2031C163.75 30.5208 163.659 29.9323 163.477 29.4375C163.294 28.9375 163.013 28.5521 162.633 28.2812C162.253 28.0104 161.76 27.875 161.156 27.875C160.266 27.875 159.612 28.1693 159.195 28.7578C158.784 29.3464 158.578 30.1615 158.578 31.2031ZM171.391 26.7812C172.406 26.7812 173.174 27.0312 173.695 27.5312C174.216 28.026 174.477 28.8229 174.477 29.9219V35.5H173.195V30.0078C173.195 29.2943 173.031 28.7604 172.703 28.4062C172.38 28.0521 171.883 27.875 171.211 27.875C170.263 27.875 169.596 28.1432 169.211 28.6797C168.826 29.2161 168.633 29.9948 168.633 31.0156V35.5H167.336V26.9375H168.383L168.578 28.1719H168.648C168.831 27.8698 169.062 27.6172 169.344 27.4141C169.625 27.2057 169.94 27.0495 170.289 26.9453C170.638 26.8359 171.005 26.7812 171.391 26.7812ZM180.445 26.7812C181.174 26.7812 181.799 26.9427 182.32 27.2656C182.841 27.5885 183.24 28.0417 183.516 28.625C183.792 29.2031 183.93 29.8802 183.93 30.6562V31.4609H178.016C178.031 32.4661 178.281 33.2318 178.766 33.7578C179.25 34.2839 179.932 34.5469 180.812 34.5469C181.354 34.5469 181.833 34.4974 182.25 34.3984C182.667 34.2995 183.099 34.1536 183.547 33.9609V35.1016C183.115 35.2943 182.685 35.4349 182.258 35.5234C181.836 35.612 181.336 35.6562 180.758 35.6562C179.935 35.6562 179.216 35.4896 178.602 35.1562C177.992 34.8177 177.518 34.3229 177.18 33.6719C176.841 33.0208 176.672 32.224 176.672 31.2812C176.672 30.3594 176.826 29.5625 177.133 28.8906C177.445 28.2135 177.883 27.6927 178.445 27.3281C179.013 26.9635 179.68 26.7812 180.445 26.7812ZM180.43 27.8438C179.737 27.8438 179.185 28.0703 178.773 28.5234C178.362 28.9766 178.117 29.6094 178.039 30.4219H182.57C182.565 29.9115 182.484 29.4635 182.328 29.0781C182.177 28.6875 181.945 28.3854 181.633 28.1719C181.32 27.9531 180.919 27.8438 180.43 27.8438Z" fill="#A8A8A8"/>
</g>
<defs>
<filter id="filter0_d_195316_5460" x="0.5" y="0.5" width="261" height="57" filterUnits="userSpaceOnUse" color-interpolation-filters="sRGB">
<feFlood flood-opacity="0" result="BackgroundImageFix"/>
<feColorMatrix in="SourceAlpha" type="matrix" values="0 0 0 0 0 0 0 0 0 0 0 0 0 0 0 0 0 0 127 0" result="hardAlpha"/>
<feOffset/>
<feGaussianBlur stdDeviation="2"/>
<feColorMatrix type="matrix" values="0 0 0 0 0 0 0 0 0 0 0 0 0 0 0 0 0 0 0.16 0"/>
<feBlend mode="normal" in2="BackgroundImageFix" result="effect1_dropShadow_195316_5460"/>
<feBlend mode="normal" in="SourceGraphic" in2="effect1_dropShadow_195316_5460" result="shape"/>
</filter>
</defs>
</svg>
