<svg width="396" height="58" viewBox="0 0 396 58" fill="none" xmlns="http://www.w3.org/2000/svg">
<g filter="url(#filter0_d_171427_3200)">
<rect x="2" y="5" width="392" height="48" rx="10" fill="#E7E7E7"/>
<rect x="2" y="5" width="392" height="48" rx="10" stroke="#A8A8A8" stroke-dasharray="2 4"/>
<path d="M152.992 35.5H151.461L145.234 25.9062H145.172C145.188 26.1615 145.206 26.4531 145.227 26.7812C145.247 27.1042 145.263 27.4505 145.273 27.8203C145.289 28.1849 145.297 28.5573 145.297 28.9375V35.5H144.062V24.0781H145.586L151.789 33.6406H151.844C151.833 33.4583 151.82 33.2005 151.805 32.8672C151.789 32.5286 151.773 32.1667 151.758 31.7812C151.747 31.3906 151.742 31.0286 151.742 30.6953V24.0781H152.992V35.5ZM163.297 31.2031C163.297 31.9062 163.206 32.5339 163.023 33.0859C162.841 33.638 162.578 34.1042 162.234 34.4844C161.891 34.8646 161.474 35.1562 160.984 35.3594C160.5 35.5573 159.951 35.6562 159.336 35.6562C158.763 35.6562 158.237 35.5573 157.758 35.3594C157.284 35.1562 156.872 34.8646 156.523 34.4844C156.18 34.1042 155.911 33.638 155.719 33.0859C155.531 32.5339 155.438 31.9062 155.438 31.2031C155.438 30.2656 155.596 29.4688 155.914 28.8125C156.232 28.151 156.685 27.6484 157.273 27.3047C157.867 26.9557 158.573 26.7812 159.391 26.7812C160.172 26.7812 160.854 26.9557 161.438 27.3047C162.026 27.6536 162.482 28.1589 162.805 28.8203C163.133 29.4766 163.297 30.2708 163.297 31.2031ZM156.781 31.2031C156.781 31.8906 156.872 32.487 157.055 32.9922C157.237 33.4974 157.518 33.888 157.898 34.1641C158.279 34.4401 158.768 34.5781 159.367 34.5781C159.961 34.5781 160.448 34.4401 160.828 34.1641C161.214 33.888 161.497 33.4974 161.68 32.9922C161.862 32.487 161.953 31.8906 161.953 31.2031C161.953 30.5208 161.862 29.9323 161.68 29.4375C161.497 28.9375 161.216 28.5521 160.836 28.2812C160.456 28.0104 159.964 27.875 159.359 27.875C158.469 27.875 157.815 28.1693 157.398 28.7578C156.987 29.3464 156.781 30.1615 156.781 31.2031ZM172.461 34.5938C172.674 34.5938 172.893 34.5755 173.117 34.5391C173.341 34.5026 173.523 34.4583 173.664 34.4062V35.4141C173.513 35.4818 173.302 35.5391 173.031 35.5859C172.766 35.6328 172.505 35.6562 172.25 35.6562C171.797 35.6562 171.385 35.5781 171.016 35.4219C170.646 35.2604 170.349 34.9896 170.125 34.6094C169.906 34.2292 169.797 33.7031 169.797 33.0312V27.9531H168.578V27.3203L169.805 26.8125L170.32 24.9531H171.102V26.9375H173.609V27.9531H171.102V32.9922C171.102 33.5286 171.224 33.9297 171.469 34.1953C171.719 34.4609 172.049 34.5938 172.461 34.5938ZM178.602 26.7969C179.622 26.7969 180.38 27.026 180.875 27.4844C181.37 27.9427 181.617 28.6745 181.617 29.6797V35.5H180.672L180.422 34.2344H180.359C180.12 34.5469 179.87 34.8099 179.609 35.0234C179.349 35.2318 179.047 35.3906 178.703 35.5C178.365 35.6042 177.948 35.6562 177.453 35.6562C176.932 35.6562 176.469 35.5651 176.062 35.3828C175.661 35.2005 175.344 34.9245 175.109 34.5547C174.88 34.1849 174.766 33.7161 174.766 33.1484C174.766 32.2943 175.104 31.638 175.781 31.1797C176.458 30.7214 177.49 30.4714 178.875 30.4297L180.352 30.3672V29.8438C180.352 29.1042 180.193 28.5859 179.875 28.2891C179.557 27.9922 179.109 27.8438 178.531 27.8438C178.083 27.8438 177.656 27.9089 177.25 28.0391C176.844 28.1693 176.458 28.3229 176.094 28.5L175.695 27.5156C176.081 27.3177 176.523 27.1484 177.023 27.0078C177.523 26.8672 178.049 26.7969 178.602 26.7969ZM180.336 31.2812L179.031 31.3359C177.964 31.3776 177.211 31.5521 176.773 31.8594C176.336 32.1667 176.117 32.6016 176.117 33.1641C176.117 33.6536 176.266 34.0156 176.562 34.25C176.859 34.4844 177.253 34.6016 177.742 34.6016C178.503 34.6016 179.125 34.3906 179.609 33.9688C180.094 33.5469 180.336 32.9141 180.336 32.0703V31.2812ZM189.828 33.1562C189.828 33.7031 189.69 34.1641 189.414 34.5391C189.143 34.9089 188.753 35.1875 188.242 35.375C187.737 35.5625 187.133 35.6562 186.43 35.6562C185.831 35.6562 185.312 35.6094 184.875 35.5156C184.438 35.4219 184.055 35.2891 183.727 35.1172V33.9219C184.076 34.0938 184.492 34.25 184.977 34.3906C185.461 34.5312 185.956 34.6016 186.461 34.6016C187.201 34.6016 187.737 34.4818 188.07 34.2422C188.404 34.0026 188.57 33.6771 188.57 33.2656C188.57 33.0312 188.503 32.8255 188.367 32.6484C188.237 32.4661 188.016 32.2917 187.703 32.125C187.391 31.9531 186.958 31.7656 186.406 31.5625C185.859 31.3542 185.385 31.1484 184.984 30.9453C184.589 30.737 184.281 30.4844 184.062 30.1875C183.849 29.8906 183.742 29.5052 183.742 29.0312C183.742 28.3073 184.034 27.7526 184.617 27.3672C185.206 26.9766 185.977 26.7812 186.93 26.7812C187.445 26.7812 187.927 26.8333 188.375 26.9375C188.828 27.0365 189.25 27.1719 189.641 27.3438L189.203 28.3828C188.849 28.2318 188.471 28.1042 188.07 28C187.669 27.8958 187.26 27.8438 186.844 27.8438C186.245 27.8438 185.784 27.9427 185.461 28.1406C185.143 28.3385 184.984 28.6094 184.984 28.9531C184.984 29.2188 185.057 29.4375 185.203 29.6094C185.354 29.7812 185.594 29.9427 185.922 30.0938C186.25 30.2448 186.682 30.4219 187.219 30.625C187.755 30.8229 188.219 31.0286 188.609 31.2422C189 31.4505 189.299 31.7057 189.508 32.0078C189.721 32.3047 189.828 32.6875 189.828 33.1562ZM193.203 23.3438V29.6562C193.203 29.8646 193.195 30.1198 193.18 30.4219C193.164 30.7188 193.151 30.9818 193.141 31.2109H193.195C193.305 31.0755 193.464 30.875 193.672 30.6094C193.885 30.3438 194.065 30.1302 194.211 29.9688L197.055 26.9375H198.578L195.133 30.5938L198.828 35.5H197.266L194.242 31.4453L193.203 32.3984V35.5H191.914V23.3438H193.203ZM205.859 33.1562C205.859 33.7031 205.721 34.1641 205.445 34.5391C205.174 34.9089 204.784 35.1875 204.273 35.375C203.768 35.5625 203.164 35.6562 202.461 35.6562C201.862 35.6562 201.344 35.6094 200.906 35.5156C200.469 35.4219 200.086 35.2891 199.758 35.1172V33.9219C200.107 34.0938 200.523 34.25 201.008 34.3906C201.492 34.5312 201.987 34.6016 202.492 34.6016C203.232 34.6016 203.768 34.4818 204.102 34.2422C204.435 34.0026 204.602 33.6771 204.602 33.2656C204.602 33.0312 204.534 32.8255 204.398 32.6484C204.268 32.4661 204.047 32.2917 203.734 32.125C203.422 31.9531 202.99 31.7656 202.438 31.5625C201.891 31.3542 201.417 31.1484 201.016 30.9453C200.62 30.737 200.312 30.4844 200.094 30.1875C199.88 29.8906 199.773 29.5052 199.773 29.0312C199.773 28.3073 200.065 27.7526 200.648 27.3672C201.237 26.9766 202.008 26.7812 202.961 26.7812C203.477 26.7812 203.958 26.8333 204.406 26.9375C204.859 27.0365 205.281 27.1719 205.672 27.3438L205.234 28.3828C204.88 28.2318 204.503 28.1042 204.102 28C203.701 27.8958 203.292 27.8438 202.875 27.8438C202.276 27.8438 201.815 27.9427 201.492 28.1406C201.174 28.3385 201.016 28.6094 201.016 28.9531C201.016 29.2188 201.089 29.4375 201.234 29.6094C201.385 29.7812 201.625 29.9427 201.953 30.0938C202.281 30.2448 202.714 30.4219 203.25 30.625C203.786 30.8229 204.25 31.0286 204.641 31.2422C205.031 31.4505 205.331 31.7057 205.539 32.0078C205.753 32.3047 205.859 32.6875 205.859 33.1562ZM215.805 35.5H214.469V25.25H210.875V24.0781H219.383V25.25H215.805V35.5ZM228.297 31.2031C228.297 31.9062 228.206 32.5339 228.023 33.0859C227.841 33.638 227.578 34.1042 227.234 34.4844C226.891 34.8646 226.474 35.1562 225.984 35.3594C225.5 35.5573 224.951 35.6562 224.336 35.6562C223.763 35.6562 223.237 35.5573 222.758 35.3594C222.284 35.1562 221.872 34.8646 221.523 34.4844C221.18 34.1042 220.911 33.638 220.719 33.0859C220.531 32.5339 220.438 31.9062 220.438 31.2031C220.438 30.2656 220.596 29.4688 220.914 28.8125C221.232 28.151 221.685 27.6484 222.273 27.3047C222.867 26.9557 223.573 26.7812 224.391 26.7812C225.172 26.7812 225.854 26.9557 226.438 27.3047C227.026 27.6536 227.482 28.1589 227.805 28.8203C228.133 29.4766 228.297 30.2708 228.297 31.2031ZM221.781 31.2031C221.781 31.8906 221.872 32.487 222.055 32.9922C222.237 33.4974 222.518 33.888 222.898 34.1641C223.279 34.4401 223.768 34.5781 224.367 34.5781C224.961 34.5781 225.448 34.4401 225.828 34.1641C226.214 33.888 226.497 33.4974 226.68 32.9922C226.862 32.487 226.953 31.8906 226.953 31.2031C226.953 30.5208 226.862 29.9323 226.68 29.4375C226.497 28.9375 226.216 28.5521 225.836 28.2812C225.456 28.0104 224.964 27.875 224.359 27.875C223.469 27.875 222.815 28.1693 222.398 28.7578C221.987 29.3464 221.781 30.1615 221.781 31.2031ZM237.742 35.6562C236.659 35.6562 235.799 35.2865 235.164 34.5469C234.534 33.8073 234.219 32.7083 234.219 31.25C234.219 29.776 234.542 28.6641 235.188 27.9141C235.833 27.1589 236.693 26.7812 237.766 26.7812C238.219 26.7812 238.615 26.8411 238.953 26.9609C239.292 27.0807 239.583 27.2422 239.828 27.4453C240.073 27.6432 240.279 27.8698 240.445 28.125H240.539C240.518 27.9635 240.497 27.7422 240.477 27.4609C240.456 27.1797 240.445 26.9505 240.445 26.7734V23.3438H241.742V35.5H240.695L240.5 34.2812H240.445C240.284 34.5365 240.078 34.7682 239.828 34.9766C239.583 35.1849 239.289 35.3516 238.945 35.4766C238.607 35.5964 238.206 35.6562 237.742 35.6562ZM237.945 34.5781C238.862 34.5781 239.51 34.3177 239.891 33.7969C240.271 33.276 240.461 32.5026 240.461 31.4766V31.2422C240.461 30.1536 240.279 29.3177 239.914 28.7344C239.555 28.151 238.898 27.8594 237.945 27.8594C237.148 27.8594 236.552 28.1667 236.156 28.7812C235.76 29.3906 235.562 30.224 235.562 31.2812C235.562 32.3333 235.758 33.1458 236.148 33.7188C236.544 34.2917 237.143 34.5781 237.945 34.5781ZM251.875 31.2031C251.875 31.9062 251.784 32.5339 251.602 33.0859C251.419 33.638 251.156 34.1042 250.812 34.4844C250.469 34.8646 250.052 35.1562 249.562 35.3594C249.078 35.5573 248.529 35.6562 247.914 35.6562C247.341 35.6562 246.815 35.5573 246.336 35.3594C245.862 35.1562 245.451 34.8646 245.102 34.4844C244.758 34.1042 244.49 33.638 244.297 33.0859C244.109 32.5339 244.016 31.9062 244.016 31.2031C244.016 30.2656 244.174 29.4688 244.492 28.8125C244.81 28.151 245.263 27.6484 245.852 27.3047C246.445 26.9557 247.151 26.7812 247.969 26.7812C248.75 26.7812 249.432 26.9557 250.016 27.3047C250.604 27.6536 251.06 28.1589 251.383 28.8203C251.711 29.4766 251.875 30.2708 251.875 31.2031ZM245.359 31.2031C245.359 31.8906 245.451 32.487 245.633 32.9922C245.815 33.4974 246.096 33.888 246.477 34.1641C246.857 34.4401 247.346 34.5781 247.945 34.5781C248.539 34.5781 249.026 34.4401 249.406 34.1641C249.792 33.888 250.076 33.4974 250.258 32.9922C250.44 32.487 250.531 31.8906 250.531 31.2031C250.531 30.5208 250.44 29.9323 250.258 29.4375C250.076 28.9375 249.794 28.5521 249.414 28.2812C249.034 28.0104 248.542 27.875 247.938 27.875C247.047 27.875 246.393 28.1693 245.977 28.7578C245.565 29.3464 245.359 30.1615 245.359 31.2031Z" fill="#A8A8A8"/>
</g>
<defs>
<filter id="filter0_d_171427_3200" x="-2.5" y="0.5" width="401" height="57" filterUnits="userSpaceOnUse" color-interpolation-filters="sRGB">
<feFlood flood-opacity="0" result="BackgroundImageFix"/>
<feColorMatrix in="SourceAlpha" type="matrix" values="0 0 0 0 0 0 0 0 0 0 0 0 0 0 0 0 0 0 127 0" result="hardAlpha"/>
<feOffset/>
<feGaussianBlur stdDeviation="2"/>
<feColorMatrix type="matrix" values="0 0 0 0 0 0 0 0 0 0 0 0 0 0 0 0 0 0 0.16 0"/>
<feBlend mode="normal" in2="BackgroundImageFix" result="effect1_dropShadow_171427_3200"/>
<feBlend mode="normal" in="SourceGraphic" in2="effect1_dropShadow_171427_3200" result="shape"/>
</filter>
</defs>
</svg>
