<?xml version="1.0" standalone="no"?>
<!DOCTYPE svg PUBLIC "-//W3C//DTD SVG 20010904//EN"
 "http://www.w3.org/TR/2001/REC-SVG-20010904/DTD/svg10.dtd">
<svg version="1.0" xmlns="http://www.w3.org/2000/svg"
 width="396.000000pt" height="58.000000pt" viewBox="0 0 396.000000 58.000000"
 preserveAspectRatio="xMidYMid meet">

<g transform="translate(0.000000,58.000000) scale(0.100000,-0.100000)"
fill="#000000" stroke="none">
<path d="M0 290 l0 -290 1980 0 1980 0 0 290 0 290 -1980 0 -1980 0 0 -290z
m3883 229 c55 -30 57 -40 55 -235 l-3 -181 -30 -26 -30 -26 -1888 -1 c-2067 0
-1930 -4 -1956 58 -9 20 -11 83 -9 201 l3 171 30 25 30 24 1888 1 c1402 0
1894 -3 1910 -11z"/>
</g>
</svg>
