<svg width="22" height="12" viewBox="0 0 22 12" fill="none" xmlns="http://www.w3.org/2000/svg">
<path d="M6.55153 3.82027C6.51148 3.4165 6.33963 3.10283 6.03597 2.87926C5.73231 2.65568 5.32019 2.54389 4.79963 2.54389C4.44592 2.54389 4.14726 2.59395 3.90366 2.69405C3.66007 2.79083 3.4732 2.92597 3.34306 3.09949C3.21625 3.27301 3.15285 3.46989 3.15285 3.69013C3.14618 3.87366 3.18455 4.03384 3.26798 4.17065C3.35474 4.30747 3.4732 4.42593 3.62336 4.52604C3.77352 4.62281 3.94704 4.7079 4.14392 4.78131C4.3408 4.85139 4.55103 4.91145 4.7746 4.96151L5.6956 5.18174C6.14275 5.28185 6.55319 5.41533 6.92693 5.58218C7.30067 5.74902 7.62435 5.95425 7.89798 6.19784C8.17161 6.44144 8.38351 6.72842 8.53367 7.05877C8.68717 7.38913 8.76559 7.76787 8.76892 8.195C8.76559 8.82235 8.60541 9.36627 8.2884 9.82677C7.97473 10.2839 7.52091 10.6393 6.92693 10.8929C6.33629 11.1432 5.62386 11.2683 4.78962 11.2683C3.96206 11.2683 3.24128 11.1415 2.62728 10.8879C2.01662 10.6343 1.53944 10.2589 1.19574 9.76169C0.855367 9.26115 0.676841 8.64215 0.660156 7.90469H2.75742C2.78078 8.24839 2.87922 8.53537 3.05274 8.76562C3.2296 8.99253 3.46486 9.16438 3.75851 9.28118C4.05549 9.39463 4.39086 9.45136 4.76459 9.45136C5.13166 9.45136 5.45034 9.39797 5.72063 9.29119C5.99426 9.1844 6.20615 9.03591 6.35631 8.84571C6.50648 8.6555 6.58156 8.43693 6.58156 8.19C6.58156 7.95975 6.51315 7.7662 6.37634 7.60937C6.24286 7.45253 6.04598 7.31906 5.7857 7.20894C5.52875 7.09882 5.21341 6.99871 4.83967 6.90861L3.72347 6.62831C2.8592 6.41808 2.1768 6.08939 1.67625 5.64224C1.17571 5.19509 0.927112 4.59277 0.930449 3.83529C0.927112 3.21462 1.09229 2.67236 1.42598 2.20853C1.76302 1.7447 2.22518 1.38264 2.81248 1.12236C3.39979 0.862074 4.06717 0.731934 4.81465 0.731934C5.57547 0.731934 6.23952 0.862074 6.8068 1.12236C7.37742 1.38264 7.82123 1.7447 8.13824 2.20853C8.45525 2.67236 8.61876 3.20961 8.62877 3.82027H6.55153Z" fill="#29ABE2"/>
<path d="M10.2267 0.872085H12.8996L15.7227 7.75953H15.8428L18.6659 0.872085H21.3388V11.1232H19.2365V4.45095H19.1514L16.4985 11.0731H15.067L12.4141 4.42593H12.329V11.1232H10.2267V0.872085Z" fill="#29ABE2"/>
</svg>
